<svg width="121" height="121" viewBox="0 0 121 121" fill="none" xmlns="http://www.w3.org/2000/svg">
<path d="M120.602 119.139C120.602 120.166 93.7623 120.997 60.6526 120.997C27.543 120.997 0.703491 120.166 0.703491 119.139C0.703491 118.113 27.543 117.282 60.6526 117.282C93.7623 117.282 120.602 118.113 120.602 119.139Z" fill="#9BC4ED"/>
<g opacity="0.5">
<path d="M55.2835 119.023C55.2835 119.023 54.9144 118.756 54.3388 118.239L54.4173 118.393C54.4173 118.393 45.6123 117.727 42.6094 109.838C45.3111 110.244 47.8606 111.346 50.0075 113.035C48.0802 109.838 46.5977 105.477 47.618 100.262C47.618 100.248 56.3126 106.878 55.2835 119.023Z" fill="#9BC4ED"/>
</g>
<path d="M48.9261 104.867C50.7846 109.014 52.4444 113.243 53.9057 117.555C53.9434 117.663 54.1179 117.616 54.0801 117.506C52.615 113.186 50.9493 108.943 49.0831 104.777C49.0337 104.669 48.8796 104.762 48.9261 104.867Z" fill="#9BC4ED"/>
<path d="M46.3274 113.189C48.6742 114.317 51.0288 115.415 53.3912 116.483C53.4958 116.532 53.5888 116.375 53.4813 116.329C51.1131 115.257 48.7556 114.158 46.4088 113.032C46.3041 112.983 46.214 113.14 46.3186 113.189H46.3274Z" fill="#9BC4ED"/>
<path d="M51.1063 106.858C50.9765 107.519 50.8466 108.179 50.7168 108.838C50.6935 108.951 50.8679 109 50.8912 108.884C51.0191 108.224 51.1499 107.567 51.2807 106.907C51.3011 106.794 51.1267 106.745 51.1063 106.858Z" fill="#9BC4ED"/>
<path d="M49.3651 109.172L51.2459 110.334C51.3447 110.395 51.4348 110.239 51.336 110.177L49.4581 109.015C49.4373 109.002 49.4124 108.999 49.389 109.005C49.3656 109.011 49.3455 109.026 49.3331 109.047C49.3208 109.067 49.3172 109.092 49.3232 109.116C49.3292 109.139 49.3443 109.159 49.3651 109.172Z" fill="#9BC4ED"/>
<path d="M52.7894 110.012C52.6149 110.79 52.3916 111.557 52.1209 112.308C52.0802 112.419 52.2546 112.465 52.2953 112.358C52.5657 111.607 52.789 110.84 52.9639 110.061C52.99 109.948 52.8156 109.898 52.7894 110.012Z" fill="#9BC4ED"/>
<path d="M47.9611 112.744L48.6936 114.233C48.7459 114.335 48.9029 114.233 48.8506 114.14L48.118 112.654C48.0657 112.55 47.9116 112.654 47.9611 112.744Z" fill="#9BC4ED"/>
<path d="M49.0308 115.614L50.2314 115.096C50.3389 115.05 50.2459 114.893 50.1412 114.939L48.932 115.462C48.8244 115.509 48.932 115.666 49.0221 115.619L49.0308 115.614Z" fill="#9BC4ED"/>
<path d="M50.6994 114.105L51.5104 115.526C51.5223 115.547 51.5421 115.562 51.5652 115.569C51.5884 115.575 51.6131 115.572 51.6339 115.56C51.6547 115.548 51.67 115.528 51.6762 115.505C51.6825 115.482 51.6793 115.457 51.6674 115.436L50.8534 114.012C50.7982 113.913 50.6412 114.012 50.6994 114.105Z" fill="#9BC4ED"/>
<path d="M51.1267 112.959C51.6247 113.172 52.1 113.434 52.5453 113.741C52.6412 113.808 52.7313 113.651 52.6354 113.587C52.1912 113.277 51.7158 113.014 51.2168 112.802C51.1122 112.756 51.0191 112.913 51.1267 112.959Z" fill="#9BC4ED"/>
<g opacity="0.5">
<path d="M107.931 119.695C107.931 119.695 108.297 119.424 108.872 118.91L108.794 119.061C108.794 119.061 117.599 118.398 120.602 110.506C117.902 110.909 115.353 112.006 113.204 113.689C115.131 110.491 116.613 106.148 115.596 100.919C115.599 100.928 106.902 107.55 107.931 119.695Z" fill="#9BC4ED"/>
</g>
<path d="M114.285 105.538C112.427 109.685 110.767 113.914 109.306 118.224C109.268 118.334 109.093 118.288 109.131 118.177C110.596 113.858 112.262 109.614 114.128 105.445C114.178 105.34 114.332 105.431 114.285 105.538Z" fill="#9BC4ED"/>
<path d="M116.884 113.861C114.541 114.987 112.183 116.084 109.811 117.154C109.707 117.204 109.614 117.047 109.721 116.997C112.089 115.927 114.447 114.834 116.794 113.718C116.898 113.669 116.988 113.823 116.884 113.875V113.861Z" fill="#9BC4ED"/>
<path d="M112.111 107.529C112.239 108.189 112.369 108.849 112.497 109.506C112.521 109.619 112.346 109.669 112.323 109.555C112.195 108.896 112.064 108.236 111.936 107.579C111.913 107.465 112.087 107.416 112.111 107.529Z" fill="#9BC4ED"/>
<path d="M113.855 109.84L111.974 111.003C111.875 111.064 111.785 110.907 111.884 110.846L113.765 109.683C113.864 109.622 113.954 109.776 113.855 109.838V109.84Z" fill="#9BC4ED"/>
<path d="M110.422 110.683C110.597 111.462 110.82 112.229 111.09 112.98C111.131 113.09 110.957 113.137 110.916 113.026C110.645 112.276 110.422 111.509 110.247 110.73C110.221 110.617 110.396 110.57 110.422 110.683Z" fill="#9BC4ED"/>
<path d="M115.25 113.428L114.518 114.913C114.465 115.018 114.308 114.927 114.361 114.823L115.093 113.337C115.145 113.233 115.3 113.337 115.25 113.428Z" fill="#9BC4ED"/>
<path d="M114.189 116.285L112.983 115.753C112.875 115.707 112.983 115.552 113.076 115.599L114.276 116.116C114.381 116.163 114.276 116.32 114.183 116.273L114.189 116.285Z" fill="#9BC4ED"/>
<path d="M112.512 114.773L111.701 116.198C111.689 116.219 111.669 116.234 111.646 116.24C111.623 116.246 111.598 116.243 111.577 116.231C111.556 116.219 111.541 116.199 111.535 116.176C111.529 116.153 111.532 116.128 111.544 116.108C111.815 115.631 112.087 115.156 112.358 114.683C112.371 114.666 112.39 114.655 112.412 114.65C112.433 114.646 112.455 114.65 112.474 114.661C112.493 114.672 112.507 114.69 112.514 114.71C112.521 114.731 112.52 114.753 112.512 114.773Z" fill="#9BC4ED"/>
<path d="M112.085 113.628C111.586 113.841 111.111 114.104 110.666 114.413C110.57 114.48 110.48 114.323 110.576 114.256C111.021 113.947 111.496 113.685 111.994 113.474C112.099 113.427 112.192 113.584 112.085 113.628Z" fill="#9BC4ED"/>
<g opacity="0.8">
<path d="M90.149 117.939C90.149 117.939 87.4455 115.361 88.1141 114.268C88.7827 113.175 90.5821 116.489 90.5821 116.489C90.5821 116.489 91.2449 113.747 92.1954 114.268C93.146 114.788 91.5297 117.939 91.5297 117.939H90.149Z" fill="#9BC4ED"/>
</g>
<g opacity="0.8">
<path d="M67.1292 117.939C67.1292 117.939 64.4258 115.361 65.0944 114.268C65.7629 113.175 67.5623 116.489 67.5623 116.489C67.5623 116.489 68.2251 113.747 69.1756 114.268C70.1262 114.788 68.5071 117.939 68.5071 117.939H67.1292Z" fill="#9BC4ED"/>
</g>
<g opacity="0.8">
<path d="M21.6303 118.163C21.6303 118.163 18.9269 115.584 19.5955 114.491C20.264 113.398 22.0634 116.715 22.0634 116.715C22.0634 116.715 22.7262 113.971 23.6767 114.491C24.6273 115.012 23.0111 118.163 23.0111 118.163H21.6303Z" fill="#9BC4ED"/>
</g>
<path d="M81.6492 54.3999C81.6492 54.3999 85.309 89.8641 78.9923 93.1664C75.9168 94.7768 72.5796 88.6549 69.4722 79.9661C68.2542 76.565 67.074 72.7744 65.9606 68.8995C63.9258 61.8706 53.9435 61.8706 51.9203 68.8995C50.9959 72.1146 50.0104 75.2598 48.9872 78.1609C45.6355 87.6956 41.8885 94.6198 38.6095 92.9018C32.2928 89.5909 36.2404 54.3999 36.2404 54.3999C30.6737 45.0745 17.7408 24.3221 28.2668 13.491C38.7316 2.7354 58.7195 16.9385 58.9462 17.1013C60.4854 16.0403 62.085 15.0697 63.7368 14.1944C70.3588 10.6393 82.3149 5.97079 89.6257 13.491C100.149 24.3221 87.2159 45.0745 81.6492 54.3999Z" fill="white"/>
<g opacity="0.4">
<path d="M69.4722 79.966C68.2542 76.5649 67.074 72.7743 65.9606 68.8994C63.9258 61.8705 53.9435 61.8705 51.9203 68.8994C50.9959 72.1144 50.0104 75.2597 48.9872 78.1608C48.9872 77.9486 49.6674 60.5595 58.0393 59.513C66.4722 58.4607 67.5187 68.8354 69.4722 79.966Z" fill="#BADEFD"/>
</g>
<g opacity="0.4">
<path d="M72.4023 27.165C62.702 18.0315 58.9404 17.1012 58.9404 17.1012C60.4796 16.0402 62.0792 15.0696 63.731 14.1943C71.0012 19.6477 72.4023 27.165 72.4023 27.165Z" fill="#BADEFD"/>
</g>
<path d="M37.6008 49.836C37.47 51.2895 37.0776 54.2516 35.534 56.051C34.7288 56.987 33.6852 57.612 32.3364 57.5364C31.6112 57.481 30.904 57.2835 30.2551 56.955C25.4529 54.708 26.4877 41.9176 26.4877 41.9176L28.2551 34.3335C31.2492 36.4555 33.5108 49.4494 33.5108 49.4494C33.5108 49.4494 33.4643 44.9582 35.6445 44.9641C37.8247 44.9699 37.8566 47.0338 37.6008 49.836Z" fill="#F5CDFF"/>
<path d="M35.534 56.051C34.7288 56.987 33.6852 57.612 32.3364 57.5364C32.9004 55.7835 34.659 55.8708 35.534 56.051Z" fill="#275CC7"/>
<path d="M34.3625 47.8128C34.8204 48.1234 35.3464 48.319 35.8959 48.3833C36.4454 48.4476 37.0023 48.3785 37.5194 48.182C37.6444 48.1326 37.6997 48.3332 37.5747 48.3797C37.0311 48.5849 36.4463 48.6569 35.8693 48.5896C35.2922 48.5223 34.7396 48.3178 34.2579 47.9931C34.1474 47.9204 34.2579 47.7402 34.3625 47.8128Z" fill="#275CC7"/>
<path d="M33.5457 48.9494C32.2088 50.4318 31.318 52.2617 30.976 54.2283C30.9585 54.3272 31.1126 54.3708 31.13 54.269C31.4637 52.3285 32.3406 50.5223 33.6591 49.0599C33.7259 48.9843 33.6155 48.8738 33.5457 48.9494Z" fill="#275CC7"/>
<path d="M32.6475 50.0568C32.284 50.1276 31.9408 50.2783 31.6427 50.498C31.3446 50.7177 31.099 51.0009 30.9237 51.3271C30.9133 51.3452 30.9105 51.3667 30.9159 51.3869C30.9214 51.4071 30.9346 51.4242 30.9527 51.4347C30.9709 51.4451 30.9924 51.4478 31.0125 51.4424C31.0327 51.4369 31.0499 51.4237 31.0603 51.4056C31.2265 51.098 31.4591 50.8312 31.7411 50.6245C32.0232 50.4179 32.3477 50.2766 32.6911 50.2108C32.7899 50.1905 32.7492 50.0364 32.6475 50.0568Z" fill="#275CC7"/>
<path d="M23.8657 109.529L23.9791 116.5L26.5924 116.709L27.8424 110.114L23.8657 109.529Z" fill="#FD945C"/>
<path d="M8.89221 109.529L8.97651 117.535L11.5898 117.741L12.8689 110.114L8.89221 109.529Z" fill="#FD945C"/>
<path d="M30.6155 61.9578L33.4556 84.3642L29.2841 113.445L21.7378 113.143L23.9645 85.2624L21.2117 64.6583L30.6155 61.9578Z" fill="#24318E"/>
<path d="M26.2494 64.9258C26.5901 66.1731 27.2551 67.3079 28.1767 68.2147C29.0983 69.1216 30.2437 69.7681 31.4964 70.0885C31.5185 70.0913 31.541 70.0861 31.5596 70.0737C31.5782 70.0613 31.5917 70.0427 31.5977 70.0212C31.6037 69.9997 31.6017 69.9767 31.5922 69.9565C31.5827 69.9363 31.5662 69.9202 31.5458 69.9112C30.3244 69.5997 29.2073 68.9703 28.3082 68.0869C27.409 67.2036 26.7599 66.0979 26.4267 64.8822C26.4177 64.8618 26.4016 64.8453 26.3814 64.8358C26.3612 64.8263 26.3382 64.8243 26.3167 64.8303C26.2952 64.8363 26.2766 64.8499 26.2642 64.8685C26.2518 64.8871 26.2466 64.9095 26.2494 64.9317V64.9258Z" fill="#5A91FF"/>
<path d="M29.4469 112.294L22.0227 112.003C22.0013 112.002 21.9803 111.997 21.9608 111.988C21.9413 111.98 21.9238 111.967 21.9092 111.951C21.8947 111.936 21.8833 111.917 21.8758 111.897C21.8684 111.877 21.8649 111.856 21.8657 111.834C21.8679 111.793 21.8859 111.753 21.9162 111.724C21.9464 111.695 21.9865 111.678 22.0285 111.677L29.4498 111.968C29.493 111.968 29.5344 111.985 29.5649 112.016C29.5955 112.046 29.6126 112.088 29.6126 112.131C29.6126 112.174 29.5955 112.216 29.5649 112.246C29.5344 112.277 29.493 112.294 29.4498 112.294H29.4469Z" fill="#5A91FF"/>
<path d="M22.764 111.922H23.0169C23.389 108.268 25.575 86.6783 25.4006 84.9138C25.2145 83.0302 22.4472 69.2834 22.328 68.6991C22.321 68.6666 22.3016 68.6381 22.2739 68.6196C22.2462 68.6012 22.2124 68.5942 22.1797 68.6003C22.1474 68.6072 22.1191 68.6268 22.1011 68.6546C22.0831 68.6823 22.0769 68.7161 22.0838 68.7485C22.11 68.891 24.9675 83.0679 25.1506 84.9371C25.3221 86.6609 23.1187 108.448 22.764 111.922Z" fill="#5A91FF"/>
<path d="M30.1359 84.6055C30.7879 84.7763 31.4646 84.8323 32.1358 84.7712C32.5394 84.7582 32.9288 84.6189 33.2492 84.373C33.3945 84.2363 33.1765 84.0212 33.034 84.1549C32.7303 84.3683 32.3674 84.4811 31.9963 84.4776C31.3982 84.5172 30.7977 84.4613 30.2172 84.3119C30.0254 84.2654 29.944 84.5619 30.1359 84.6026V84.6055Z" fill="#5A91FF"/>
<path d="M6.99981 69.7599C8.40569 70.1802 9.89158 70.2589 11.334 69.9895C13.863 69.5564 11.6247 67.1611 9.49975 67.0303C7.3748 66.8995 5.10741 67.9721 6.99981 69.7599Z" fill="#10283B"/>
<path d="M22.8396 63.0247L19.8891 85.5735L13.7787 113.218L6.54926 113.029L9.76429 84.8003L9.9765 64.7775L22.8396 63.0247Z" fill="#24318E"/>
<path d="M22.8163 64.9926C22.5256 66.6205 22.1797 68.2367 21.8541 69.8558C21.8309 69.9721 22.0111 70.0245 22.0343 69.9053C22.357 68.2861 22.7087 66.6699 22.9965 65.042C23.0169 64.9257 22.8396 64.8763 22.8163 64.9926Z" fill="#5A91FF"/>
<path d="M17.3746 65.1875C16.0839 68.0391 13.4648 70.6408 10.2003 70.8588C10.0812 70.8588 10.0812 71.0536 10.2003 71.0449C13.5288 70.8211 16.2147 68.1961 17.5345 65.2834C17.5839 65.1758 17.424 65.0799 17.3746 65.1875Z" fill="#5A91FF"/>
<path d="M13.9328 112L6.88062 111.82C6.83745 111.82 6.79604 111.803 6.76551 111.772C6.73498 111.742 6.71783 111.7 6.71783 111.657C6.71783 111.614 6.73498 111.573 6.76551 111.542C6.79604 111.512 6.83745 111.494 6.88062 111.494L13.9211 111.678C13.9442 111.674 13.9676 111.676 13.9898 111.683C14.012 111.69 14.0325 111.701 14.05 111.716C14.0675 111.732 14.0815 111.75 14.0911 111.772C14.1007 111.793 14.1056 111.816 14.1056 111.839C14.1056 111.862 14.1007 111.885 14.0911 111.906C14.0815 111.927 14.0675 111.946 14.05 111.961C14.0325 111.977 14.012 111.988 13.9898 111.995C13.9676 112.001 13.9442 112.003 13.9211 112H13.9328Z" fill="#5A91FF"/>
<path d="M11.0142 70.821C10.9532 72.8559 10.6363 83.283 10.4677 85.2742C10.3689 86.5183 7.49398 111.265 7.462 111.512C7.45869 111.545 7.46837 111.578 7.48899 111.604C7.5096 111.63 7.53954 111.647 7.57246 111.651H7.58991C7.62018 111.651 7.64925 111.639 7.67171 111.619C7.69416 111.599 7.70848 111.571 7.71199 111.541C7.74106 111.291 10.6189 86.5416 10.7148 85.2974C10.8834 83.2946 11.2003 72.8413 11.2613 70.821H11.0142Z" fill="#5A91FF"/>
<path d="M16.5868 85.2305C17.1971 85.5147 17.8522 85.6908 18.5228 85.7508C18.9206 85.8099 19.327 85.7439 19.6856 85.5618C19.8542 85.4543 19.6856 85.2043 19.5141 85.3089C19.177 85.4639 18.7999 85.5097 18.4356 85.4398C17.8409 85.3696 17.2611 85.2058 16.7176 84.9543C16.5374 84.8729 16.4037 85.1491 16.5839 85.2305H16.5868Z" fill="#5A91FF"/>
<path d="M26.5081 114.84C26.5081 114.84 27.4063 114.058 27.8453 114.84C28.2842 115.622 27.9703 116.233 29.008 116.709C29.842 117.076 30.7134 117.351 31.6068 117.529C32.7318 117.683 32.7696 118.57 32.1882 119.541L32.1562 119.593H22.8541C22.7578 118.97 22.8198 118.334 23.0343 117.741C23.325 117.038 23.3803 114.646 23.9587 114.491C24.5372 114.337 25.1128 115.872 26.5081 114.84Z" fill="white"/>
<path d="M31.3278 118.881C30.6038 118.259 29.6792 117.921 28.7252 117.929C27.7711 117.937 26.8523 118.291 26.1389 118.924C26.0488 119.003 26.1825 119.137 26.2726 119.058C26.9502 118.459 27.8214 118.124 28.7261 118.115C29.6308 118.107 30.5082 118.425 31.1969 119.012C31.2871 119.09 31.4208 118.959 31.3278 118.881Z" fill="#10283B"/>
<path d="M23.4268 115.849C24.4355 116.416 25.2465 117.43 25.3424 118.608C25.3424 118.727 25.5401 118.73 25.5285 118.608C25.4543 117.995 25.2332 117.41 24.8839 116.901C24.5347 116.392 24.0677 115.976 23.5227 115.686C23.5016 115.678 23.4783 115.678 23.4571 115.686C23.4358 115.693 23.4179 115.708 23.4064 115.727C23.395 115.747 23.3907 115.77 23.3944 115.792C23.3982 115.814 23.4096 115.834 23.4268 115.849Z" fill="#10283B"/>
<path d="M11.7148 115.654C11.7148 115.654 11.2933 114.346 10.1858 114.201C9.07826 114.055 8.95326 115.247 8.95326 115.247V114.43C8.77177 115.007 8.67388 115.608 8.66257 116.212C8.66257 117.119 7.00272 116.933 6.56378 119.59H12.2323C12.2323 119.59 12.6799 115.811 12.4096 115.18C12.1392 114.55 11.7148 115.654 11.7148 115.654Z" fill="white"/>
<path d="M12.3108 116.916C12.0498 116.926 11.7934 116.988 11.5569 117.099C11.3203 117.209 11.1084 117.366 10.9336 117.56C10.7588 117.755 10.6247 117.982 10.5392 118.228C10.4537 118.475 10.4185 118.737 10.4358 118.997C10.4358 119.116 10.6335 119.119 10.6248 118.997C10.607 118.761 10.6369 118.524 10.7127 118.3C10.7886 118.076 10.9087 117.87 11.0661 117.693C11.2234 117.517 11.4147 117.373 11.6286 117.272C11.8424 117.171 12.0744 117.114 12.3108 117.105C12.4299 117.105 12.4299 116.91 12.3108 116.916Z" fill="#10283B"/>
<path d="M12.4038 117.823C12.4038 117.823 12.741 118.863 12.2294 119.593H6.54926C6.59343 119.214 6.69131 118.843 6.83995 118.491C7.06668 118.047 7.42133 118.509 7.77016 118.201C8.11898 117.893 8.66548 117.983 9.04338 118.491C9.42128 119 10.6509 119.012 11.0782 118.706C11.5055 118.401 11.9096 117.826 12.4038 117.823Z" fill="#10283B"/>
<path d="M32.1358 119.593C32.2582 119.512 32.3604 119.405 32.4345 119.278C32.5086 119.152 32.5526 119.01 32.5632 118.863C32.5632 118.863 29.0981 118.884 28.1795 118.904C27.4934 118.934 26.8068 118.857 26.1447 118.675C25.5372 118.518 24.2872 117.401 23.139 117.393C23.139 117.393 22.3192 118.113 22.8483 119.593H32.1358Z" fill="#10283B"/>
<path d="M27.4354 55.7427L9.46487 57.8386L9.13929 57.8764L7.48817 58.0711C7.48817 58.0711 6.15681 48.1237 7.89223 38.5949C7.89223 38.5222 7.91839 38.4495 7.93002 38.3768C8.02886 37.8565 8.1335 37.3391 8.24978 36.8245L8.30211 36.6036C8.36606 36.3129 8.43873 36.0222 8.5114 35.7461C8.77302 34.717 9.92125 33.6647 11.2933 32.7345L11.4677 32.6153C13.2218 31.505 15.0699 30.5507 16.9908 29.7637C16.9908 29.7637 27.9208 33.1967 28.4731 34.7374C29.0545 36.3711 27.4354 55.7427 27.4354 55.7427Z" fill="white"/>
<path d="M16.1275 31.2056C16.1275 31.2056 17.4385 34.2782 20.8338 32.9062L20.9966 30.6417L21.107 29.1475L21.1826 28.101L17.3193 26.04C16.8513 27.8598 16.892 28.9324 16.1275 31.2056Z" fill="#FD945C"/>
<path d="M17.9705 27.7812C18.9385 30.4382 20.3774 31.2288 20.9501 31.2056L21.1013 29.1417L17.9705 27.7812Z" fill="#10283B"/>
<path d="M16.8658 25.2813C16.8653 25.4367 16.874 25.592 16.892 25.7464C16.9355 26.0697 17.0338 26.3833 17.1827 26.6737C17.4335 27.1497 17.7253 27.6029 18.0548 28.0283C18.6739 28.8829 19.7146 29.223 20.7233 29.2405C23.4064 29.2928 23.6825 27.4702 23.5052 24.7028C23.3976 22.9848 23.8976 22.043 23.4819 21.3686C23.4558 21.3366 23.4267 21.3075 23.3976 21.2756C22.7004 20.5625 21.7549 20.146 20.7582 20.1128C20.5663 20.1128 20.3832 20.1128 20.2059 20.1128H20.0402H19.9064H19.8134L19.607 20.1331C17.4559 20.3919 16.9007 21.6883 16.8048 22.9761C16.7846 23.745 16.805 24.5145 16.8658 25.2813Z" fill="#FD945C"/>
<path d="M20.0024 23.6041C20.0024 23.6041 20.2495 22.9384 20.7088 22.9064C21.1681 22.8745 21.2902 23.514 21.2902 23.514L20.0024 23.6041Z" fill="#10283B"/>
<path d="M23.3803 23.6622C23.3803 23.6622 23.1884 22.9762 22.7291 22.9093C22.2698 22.8424 22.0954 23.4674 22.0954 23.4674L23.3803 23.6622Z" fill="#10283B"/>
<path d="M19.6855 25.0838C19.6855 25.2321 19.9152 25.3513 20.1972 25.3513C20.4791 25.3513 20.7088 25.2321 20.7088 25.0838C20.7088 24.9356 20.4791 24.8164 20.1972 24.8164C19.9152 24.8164 19.6855 24.9356 19.6855 25.0838Z" fill="#D4652D"/>
<path d="M23.5256 25.3977C23.4048 25.4706 23.2654 25.507 23.1244 25.5023C22.8337 25.5023 22.6128 25.3831 22.6128 25.2349C22.6128 25.0866 22.8424 24.9675 23.1244 24.9675C23.2591 24.9646 23.3923 24.9967 23.511 25.0605L23.5256 25.3977Z" fill="#D4652D"/>
<path d="M20.7902 24.1679C20.7835 24.2267 20.7996 24.2857 20.8354 24.3329C20.8711 24.38 20.9237 24.4115 20.982 24.4208C21.0867 24.4208 21.171 24.3075 21.171 24.1679C21.171 24.0284 21.0867 23.9121 20.982 23.9121C20.8774 23.9121 20.7902 24.0284 20.7902 24.1679Z" fill="#10283B"/>
<path d="M22.546 24.1855C22.5393 24.2442 22.5554 24.3033 22.5912 24.3504C22.6269 24.3975 22.6795 24.4291 22.7378 24.4384C22.8425 24.4384 22.9268 24.325 22.9268 24.1855C22.9268 24.046 22.8425 23.9297 22.7378 23.9297C22.6332 23.9297 22.546 24.046 22.546 24.1855Z" fill="#10283B"/>
<path d="M21.7582 25.3482H21.7059C21.6882 25.3482 21.6712 25.3412 21.6586 25.3287C21.6461 25.3161 21.639 25.2991 21.639 25.2814C21.639 25.2637 21.6461 25.2467 21.6586 25.2341C21.6712 25.2216 21.6882 25.2145 21.7059 25.2145C21.8438 25.2233 21.9818 25.1973 22.1071 25.139C21.9406 24.913 21.84 24.6453 21.8164 24.3657C21.8155 24.3477 21.8218 24.33 21.8337 24.3165C21.8456 24.3029 21.8623 24.2945 21.8803 24.293C21.8983 24.2922 21.916 24.2984 21.9295 24.3104C21.9431 24.3223 21.9515 24.339 21.953 24.357C21.9665 24.63 22.0685 24.8913 22.2437 25.1012C22.2509 25.1079 22.2567 25.1159 22.2607 25.1249C22.2647 25.1339 22.2668 25.1436 22.2669 25.1535C22.2673 25.1637 22.2651 25.1738 22.2605 25.183C22.256 25.1921 22.2492 25.2 22.2408 25.2058C22.0984 25.3018 21.9299 25.3516 21.7582 25.3482Z" fill="#10283B"/>
<path d="M22.7088 25.9035C22.7088 25.9035 22.0809 25.8337 20.8455 25.7058C20.8455 25.7058 20.9269 27.0372 21.828 27.0314C22.578 27.0255 22.7088 25.9035 22.7088 25.9035Z" fill="white"/>
<path d="M21.9762 27.4935C21.8811 27.5352 21.7762 27.5494 21.6735 27.5345C21.5707 27.5196 21.4741 27.4762 21.3948 27.4092C21.3105 27.3307 21.4355 27.2057 21.5198 27.2842C21.5774 27.3289 21.6464 27.3565 21.7189 27.3637C21.7914 27.3709 21.8645 27.3574 21.9297 27.3249C22.0372 27.29 22.0838 27.4586 21.9762 27.4935Z" fill="#D4652D"/>
<path d="M17.8281 26.0373C17.4921 26.0495 17.162 25.947 16.892 25.7466C16.9355 26.07 17.0339 26.3835 17.1827 26.6739C17.4591 26.5344 17.6848 26.3118 17.8281 26.0373Z" fill="#10283B"/>
<path d="M17.3891 22.9821C18.4559 23.2728 18.5518 25.0954 19.11 24.7815C19.6681 24.4675 18.6391 21.4938 20.0489 21.5839C21.4588 21.674 21.2843 21.9298 21.9268 21.9763C23.0227 22.0548 23.0227 21.5054 23.4645 21.3949C23.4384 21.363 23.4093 21.3339 23.3802 21.3019C22.683 20.5889 21.7375 20.1724 20.7407 20.1392C20.5489 20.1392 20.3658 20.1392 20.1884 20.1392H20.0227H19.889H19.796L19.5896 20.1595C17.4385 20.4182 16.8833 21.7147 16.7874 23.0025C16.9798 22.9276 17.192 22.9204 17.3891 22.9821Z" fill="#10283B"/>
<path d="M16.017 22.322C16.017 22.322 15.6333 22.0313 15.7641 21.6767C15.8048 21.5971 15.8676 21.5309 15.9449 21.486C16.0222 21.4412 16.1109 21.4196 16.2002 21.4238C16.2002 21.4238 15.7147 20.4412 16.2002 19.9005C16.5955 19.4616 17.3629 19.8308 17.3629 19.8308C17.3629 19.8308 22.3047 17.3105 23.5139 18.1593C24.5314 18.8628 23.6971 19.7901 23.6971 19.7901C23.6971 19.7901 24.793 19.8104 24.7407 20.4848C24.6738 21.3075 23.5256 21.5546 23.5256 21.5546C23.5256 21.5546 17.1711 21.7086 16.017 22.322Z" fill="#10283B"/>
<path d="M16.4066 23.2088C16.2515 23.1301 16.1283 23.0005 16.0574 22.8417C15.9865 22.683 15.9722 22.5047 16.017 22.3367C18.3283 21.0249 21.0515 20.6395 23.636 21.2583C23.7386 21.4454 23.7923 21.6553 23.7923 21.8687C23.7923 22.0821 23.7386 22.292 23.636 22.4792C23.636 22.4792 21.2553 21.5199 16.4066 23.2088Z" fill="#5A91FF"/>
<path d="M18.6798 25.3745C18.7478 25.1603 18.7667 24.9336 18.735 24.7111C18.7033 24.4887 18.6218 24.2762 18.4966 24.0896C18.174 23.5954 17.578 22.8396 17.0054 22.9268C16.1682 23.0431 16.0694 23.7989 16.1507 24.5518C16.2321 25.3047 16.7321 26.3105 17.7786 26.1506C17.9882 26.1235 18.1853 26.0355 18.3455 25.8975C18.5056 25.7596 18.6218 25.5777 18.6798 25.3745Z" fill="#FD945C"/>
<path d="M17.6798 25.238C17.7432 24.9197 17.7242 24.5905 17.6246 24.2816C17.517 24.0083 17.2118 23.613 16.8629 23.7264C16.7438 23.7642 16.6653 23.5897 16.7816 23.549C16.9464 23.5079 17.12 23.5207 17.277 23.5856C17.434 23.6505 17.566 23.764 17.6536 23.9095C17.9022 24.3134 17.9855 24.7975 17.8862 25.2612C17.8804 25.2846 17.8662 25.3051 17.8464 25.3187C17.8266 25.3324 17.8025 25.3384 17.7785 25.3356C17.7546 25.3327 17.7326 25.3212 17.7165 25.3032C17.7005 25.2853 17.6915 25.262 17.6914 25.238H17.6798Z" fill="#10283B"/>
<path d="M24.1709 66.2922H23.9791C18.2728 66.7689 11.3573 66.4055 9.57828 66.4579C6.21208 66.5509 7.67716 43.4788 7.67716 43.4788L28.1185 46.2781C28.1185 46.2781 29.0575 56.5424 31.8655 62.1527C33.1707 64.7573 29.165 65.8532 24.1709 66.2922Z" fill="white"/>
<path d="M17.52 52.99C19.2932 52.3417 21.3687 52.2342 23.0838 53.1208C24.7989 54.0074 25.7785 55.8213 26.6447 57.4811C26.7029 57.5945 26.8686 57.4811 26.8133 57.3852C25.9151 55.6411 24.918 53.7952 23.0925 52.897C21.3484 52.0249 19.2641 52.1353 17.4676 52.7923C17.3514 52.833 17.4008 53.022 17.52 52.9783V52.99Z" fill="#BADEFD"/>
<path d="M16.0316 56.9871C18.424 56.4057 20.6391 57.8592 22.4733 59.2167C24.1448 60.4463 25.8802 61.7573 28.0342 61.8765C29.0753 61.9582 30.1099 61.654 30.9411 61.0219C31.0371 60.9434 30.9004 60.8068 30.8016 60.8853C29.0952 62.2428 26.6912 61.6847 24.9587 60.6876C23.0576 59.5946 21.4879 57.9813 19.4356 57.1528C18.3497 56.6728 17.1396 56.5497 15.9793 56.8011C15.8572 56.8301 15.9095 57.0191 16.0316 56.9871Z" fill="#BADEFD"/>
<path d="M24.5372 32.4527C24.2921 32.7588 24.0186 33.0411 23.7204 33.2957C21.7495 34.9992 18.9647 35.3305 16.5461 34.4585C15.0697 33.9229 13.7645 33.0002 12.7672 31.787L12.9532 31.6824C13.2003 31.9756 13.4654 32.2532 13.7468 32.5137C15.6392 34.2579 18.331 35.13 20.8716 34.5166C22.2228 34.1884 23.4325 33.4342 24.3221 32.3655L24.5372 32.4527Z" fill="#BADEFD"/>
<path d="M28.3133 43.3972L28.2958 43.7083C28.2261 43.6269 28.1592 43.5426 28.0923 43.4583C27.0035 42.0909 26.2231 40.5043 25.8046 38.8072C25.3439 36.8974 25.3379 34.906 25.7872 32.9934L25.9819 33.0835C25.8855 33.4979 25.8108 33.9171 25.7581 34.3393C25.7232 34.63 25.7 34.9062 25.6854 35.191C25.5377 37.8787 26.2917 40.5387 27.8278 42.749C27.9179 42.8769 28.011 43.0019 28.1185 43.1269C28.2261 43.2519 28.2435 43.31 28.3133 43.3972Z" fill="#BADEFD"/>
<path d="M14.3281 50.7778C13.6683 53.4638 12.1857 55.8039 10.2875 57.7544C9.4928 58.5718 8.63558 59.326 7.72363 60.0102C7.72363 59.9288 7.7091 59.8474 7.70038 59.7631C8.49931 59.1597 9.25501 58.5011 9.96195 57.7922C10.5938 57.1589 11.1769 56.4787 11.7061 55.7574C14.113 52.4755 15.2903 48.0744 13.8834 44.1472C13.8427 44.0338 13.7991 43.9175 13.7526 43.8013C13.6886 43.6414 13.6188 43.4844 13.5491 43.3303C12.5358 41.2132 10.8247 39.5092 8.70326 38.5049C8.70326 38.4322 8.72942 38.3595 8.74396 38.2869C9.53305 38.6576 10.274 39.1233 10.9503 39.6735C12.0722 40.5881 12.9885 41.7292 13.6392 43.0222C13.8271 43.3988 13.9902 43.7872 14.1275 44.185C14.1275 44.2286 14.1595 44.2722 14.1712 44.3158C14.828 46.4125 14.8824 48.6517 14.3281 50.7778Z" fill="#BADEFD"/>
<path d="M31.0661 58.4871C30.3568 57.772 29.6272 57.0802 28.8947 56.3942C28.4266 55.9523 27.9557 55.5221 27.4906 55.0686C26.396 54.0476 25.354 52.9717 24.3686 51.8448C23.6992 51.0689 23.0834 50.2482 22.5256 49.3885C21.9588 48.5164 21.4181 47.5281 21.3629 46.4613C21.3346 46.0905 21.3851 45.718 21.5111 45.3683C21.7134 44.8717 22.0459 44.439 22.4736 44.1156C22.9014 43.7923 23.4084 43.5903 23.9413 43.5311C24.291 43.4776 24.6468 43.4776 24.9965 43.5311C25.9519 43.707 26.8333 44.1634 27.5284 44.8421C27.7673 45.0636 27.9934 45.2985 28.2057 45.5456C28.2057 45.6531 28.1912 45.7578 28.1854 45.8624C27.9219 45.5415 27.6374 45.2385 27.3336 44.9555C26.4122 44.1096 25.3163 43.5456 24.0023 43.7142H23.9616C23.0227 43.845 22.0925 44.4148 21.7349 45.3218C21.7285 45.3426 21.7207 45.363 21.7117 45.3828C21.3251 46.4525 21.7727 47.624 22.2931 48.5804C23.3027 50.2821 24.529 51.8456 25.9412 53.2314C26.4587 53.7634 26.9848 54.2808 27.5226 54.7954C28.6476 55.8738 29.7987 56.9261 30.9062 58.0191C30.976 58.169 31.0296 58.3259 31.0661 58.4871Z" fill="#BADEFD"/>
<path d="M19.9094 38.8014C19.3542 38.4002 18.767 38.5514 18.2205 38.8566L18.1943 38.874L18.171 38.8886C17.1852 39.6424 16.3889 40.6158 15.8455 41.7315C15.3775 42.6559 14.8397 44.2431 16.1071 44.8187C17.1507 45.2925 18.3484 44.5047 19.0431 43.7693C19.8687 42.8972 20.546 41.5862 20.546 40.3624C20.5431 39.8072 20.3861 39.1415 19.9094 38.8014ZM19.0053 43.5018C18.3949 44.1908 17.3484 44.9873 16.36 44.6879C14.9444 44.2576 15.6798 42.5077 16.1391 41.6443C16.6535 40.6293 17.3921 39.7445 18.2989 39.0572C18.8047 38.7665 19.4123 38.5979 19.8861 39.0572C20.2815 39.4351 20.3774 40.1008 20.328 40.6182C20.1881 41.6908 19.7271 42.6961 19.0053 43.5018Z" fill="#BADEFD"/>
<path d="M13.3805 37.2664C12.6799 38.2984 11.2119 38.0222 10.2061 37.7112C9.51961 37.4956 8.86322 37.1938 8.25269 36.813L8.30501 36.592C8.90021 36.9726 9.54215 37.2745 10.2148 37.4903C11.2439 37.8158 13.3107 38.1443 13.4124 36.531C13.4196 36.1879 13.3417 35.8483 13.1857 35.5426C13.0474 35.2664 12.8931 34.9985 12.7235 34.7403C12.3882 34.2113 12.0336 33.6938 11.6596 33.188C11.5433 33.0311 11.4241 32.8741 11.3049 32.7229L11.4794 32.6038C11.8069 33.0262 12.1227 33.4584 12.427 33.9002C12.8485 34.5223 13.5316 35.4089 13.6246 36.2636C13.6712 36.6166 13.5841 36.9743 13.3805 37.2664Z" fill="#BADEFD"/>
<path d="M28.5052 38.6997C28.3889 40.2637 28.3918 41.8305 28.3133 43.3973L28.2959 43.7083C28.2959 43.8973 28.2726 44.0892 28.2581 44.2897C28.2581 44.4205 28.0459 44.4205 28.0546 44.2897L28.0924 43.47L28.1069 43.1444L28.3017 38.7114C28.3133 38.5718 28.5168 38.5718 28.5052 38.6997Z" fill="#BADEFD"/>
<path d="M16.5839 29.6448C16.5839 29.6448 11.4212 32.0546 9.60734 33.3075C7.79343 34.5604 7.53472 37.8481 7.3603 39.444C7.18589 41.0399 3.77318 69.3037 6.99985 69.7601C6.99985 69.7601 5.09582 67.7253 8.24981 67.609C11.4038 67.4927 16.9705 69.0305 20.5518 68.1671C17.3542 49.7518 17.9037 43.4584 17.9037 32.7552C17.9037 32.7552 16.645 32.3249 16.5839 29.6448Z" fill="#F5CDFF"/>
<path d="M11.3544 61.7108C10.8905 61.7078 10.4411 61.5492 10.0783 61.2602C8.54923 60.0742 8.19168 56.9871 8.17714 56.8562C8.17537 56.8313 8.18259 56.8066 8.19749 56.7865C8.21418 56.7659 8.23808 56.7524 8.26435 56.7487L13.4968 56.2022C13.5217 56.1996 13.5466 56.2066 13.5666 56.2217C13.5866 56.2368 13.6001 56.2589 13.6043 56.2836C13.6247 56.4086 14.0985 59.4027 13.0026 60.8939C12.8492 61.1104 12.6523 61.2925 12.4246 61.4286C12.1968 61.5647 11.9433 61.6519 11.68 61.6846C11.5721 61.7005 11.4634 61.7092 11.3544 61.7108Z" fill="#275CC7"/>
<path d="M16.988 51.1616C17.1682 55.1557 17.7554 59.1004 18.3368 63.048C18.517 64.2805 18.6943 65.5159 18.8542 66.7514C18.8717 66.8734 19.0664 66.8734 19.049 66.7514C18.5315 62.7544 17.8194 58.7835 17.4356 54.772C17.3223 53.5714 17.2351 52.368 17.1827 51.1616C17.1827 51.0366 16.9822 51.0366 16.988 51.1616Z" fill="#275CC7"/>
<path d="M5.89226 66.693C8.12767 65.571 10.6741 66.1117 13.0113 66.5535C14.192 66.8033 15.3923 66.9492 16.5984 66.9895C17.8012 67.0055 19.0018 66.8836 20.1768 66.6262C20.2989 66.6 20.2495 66.4111 20.1274 66.4372C18.848 66.7178 17.538 66.834 16.2292 66.7832C14.9578 66.6974 13.6947 66.5167 12.4502 66.2425C10.2497 65.821 7.88059 65.475 5.79343 66.5332C5.68296 66.5884 5.77889 66.757 5.89226 66.7018V66.693Z" fill="#275CC7"/>
<path d="M16.5839 29.6446C16.5839 29.6446 15.7874 29.5108 14.706 30.5457L15.5345 35.5543L17.0373 36.0717L15.8746 37.3275L16.1304 47.0947C16.1304 47.0947 18.0693 50.49 18.2001 50.2545C18.3309 50.0191 17.9094 32.7549 17.9094 32.7549C17.9094 32.7549 16.7641 31.7433 16.5839 29.6446Z" fill="#275CC7"/>
<path d="M34.3422 66.4724C30.9062 68.202 25.4558 68.1671 25.4558 68.1671C25.4558 68.1671 23.3744 61.9928 22.9035 52.5657C22.4326 43.1386 20.8338 32.9063 20.8338 32.9063L20.9966 30.7639C23.9994 31.636 28.3191 34.0923 28.604 34.6098C28.8888 35.1272 28.7755 42.9061 28.8947 47.6908C28.9441 49.4873 29.726 52.589 30.6824 55.7633C31.101 57.1499 31.5545 58.5539 31.9934 59.865C33.2201 63.5102 34.3422 66.4724 34.3422 66.4724Z" fill="#F5CDFF"/>
<path d="M30.6853 55.7458L28.2173 56.0075C28.2047 56.0089 28.1925 56.0128 28.1814 56.019C28.1703 56.0253 28.1605 56.0336 28.1527 56.0436C28.1448 56.0536 28.1391 56.0651 28.1357 56.0773C28.1323 56.0896 28.1314 56.1024 28.133 56.115C28.133 56.2284 28.4499 58.9115 29.758 59.926C30.0653 60.1711 30.4463 60.3053 30.8394 60.3068C30.9367 60.3079 31.0339 60.3011 31.1301 60.2864C31.4623 60.2437 31.7699 60.0888 32.0021 59.8475C31.5545 58.5365 31.1039 57.1324 30.6853 55.7458Z" fill="#275CC7"/>
<path d="M23.5255 47.8912C23.4949 52.8638 23.9377 57.8279 24.8482 62.7165C25.1127 64.0798 25.4296 65.4315 25.7987 66.7687C25.8053 66.7933 25.8214 66.8144 25.8435 66.8272C25.8655 66.84 25.8918 66.8435 25.9165 66.837C25.9411 66.8304 25.9622 66.8144 25.975 66.7923C25.9878 66.7702 25.9913 66.7439 25.9848 66.7193C24.6505 61.9112 24.0401 56.9143 23.8133 51.9405C23.7532 50.584 23.7222 49.2323 23.7203 47.8854C23.7163 47.8625 23.7044 47.8417 23.6866 47.8267C23.6687 47.8117 23.6462 47.8035 23.6229 47.8035C23.5996 47.8035 23.5771 47.8117 23.5593 47.8267C23.5415 47.8417 23.5295 47.8625 23.5255 47.8854V47.8912Z" fill="#275CC7"/>
<path d="M25.165 66.888C28.0232 67.205 30.9146 66.7681 33.5515 65.6206C33.6648 65.5712 33.566 65.4055 33.4526 65.4549C30.8449 66.5816 27.9883 67.0084 25.165 66.6932C25.04 66.6787 25.04 66.8735 25.165 66.888Z" fill="#275CC7"/>
<path d="M20.8338 32.9062C20.8338 32.9062 22.4559 46.5687 22.7436 50.525C22.7436 50.525 24.4384 47.4844 24.543 46.8797C24.6477 46.2751 23.5314 36.4497 23.5314 36.4497L22.6186 35.5602L23.4704 34.226L22.764 31.3859C22.244 30.9689 21.6532 30.6489 21.0198 30.4412L20.8338 32.9062Z" fill="#275CC7"/>
<path d="M28.8307 40.4641C28.7958 44.2082 28.7464 47.9843 29.5022 51.6702C29.7086 52.6876 29.9731 53.7051 30.2725 54.6876C30.3074 54.8068 30.4963 54.7574 30.4615 54.6382C29.9391 52.9403 29.5599 51.2017 29.3278 49.4406C29.1195 47.6751 29.0157 45.8988 29.0167 44.121C29.0167 42.9001 29.0167 41.6821 29.0167 40.4641C29.0167 40.4387 29.0066 40.4142 28.9886 40.3963C28.9706 40.3783 28.9462 40.3682 28.9208 40.3682C28.8954 40.3682 28.871 40.3783 28.853 40.3963C28.835 40.4142 28.8249 40.4387 28.8249 40.4641H28.8307Z" fill="#275CC7"/>
<path d="M23.6418 27.4179C23.5725 27.8323 23.3802 28.2163 23.0899 28.5201C22.7997 28.8238 22.4248 29.0333 22.014 29.1214C21.282 29.3624 20.4908 29.3542 19.764 29.0981C19.655 29.0521 19.5562 28.9849 19.4733 28.9005C19.0838 28.79 18.4327 28.1708 17.9617 27.6825C17.6892 27.3971 17.4819 27.0559 17.3542 26.6825C17.3157 26.5654 17.2846 26.446 17.2612 26.3249C17.8658 27.5429 19.2437 28.3888 19.5867 28.1796C19.9276 27.6882 20.066 27.0844 19.9733 26.4935C19.8105 25.5662 18.6478 24.5604 18.6478 24.5604L18.0664 23.7698C18.8477 24.3986 19.5867 25.0784 20.2785 25.8046L20.296 25.854C20.3469 25.809 20.4062 25.7745 20.4704 25.7523C20.825 25.6186 21.6332 25.3308 21.9791 25.0139C22.5605 24.4703 22.6767 25.4064 23.5052 25.4558C23.6389 25.4558 23.7145 25.6418 23.7494 25.8889C23.8037 26.4009 23.7673 26.9186 23.6418 27.4179Z" fill="white"/>
<path d="M23.6419 27.4181C23.5725 27.8324 23.3802 28.2164 23.09 28.5202C22.7997 28.8239 22.4248 29.0334 22.014 29.1215C21.282 29.3625 20.4909 29.3543 19.764 29.0982C19.7835 29.0671 19.8059 29.0379 19.8309 29.011C20.6129 28.139 20.514 26.0634 20.514 26.0634C20.889 26.1129 21.8774 25.453 22.1971 25.2175C22.5169 24.9821 22.7 25.235 22.8715 25.4094C23.043 25.5838 23.4296 25.6332 23.7436 25.8977C23.7988 26.4066 23.7644 26.9211 23.6419 27.4181Z" fill="#5A91FF"/>
<path d="M22.0169 26.1389C22.323 26.1864 22.6351 26.1785 22.9384 26.1156C23.0372 26.0923 22.9965 25.9383 22.8948 25.9586C22.6204 26.0167 22.3379 26.0256 22.0605 25.9848C21.9588 25.9703 21.9152 26.1243 22.0169 26.1389Z" fill="#275CC7"/>
<path d="M21.2495 26.7668C21.9797 26.9218 22.7386 26.8705 23.4413 26.6186C23.5401 26.5866 23.4965 26.4296 23.3977 26.4645C22.7224 26.7077 21.9929 26.759 21.2902 26.6128C21.1914 26.5924 21.1478 26.7465 21.2495 26.7668Z" fill="#275CC7"/>
<path d="M21.0489 27.4587C21.8003 27.6184 22.5813 27.5661 23.3046 27.3075C23.4035 27.2726 23.3599 27.1156 23.2639 27.1505C22.5676 27.403 21.8146 27.4563 21.0896 27.3046C20.9907 27.2842 20.9471 27.4383 21.0489 27.4587Z" fill="#275CC7"/>
<path d="M20.8803 28.232C21.6391 28.433 22.4444 28.3621 23.1564 28.0314C23.2523 27.9907 23.1709 27.8512 23.075 27.8919C22.4009 28.2005 21.6405 28.2652 20.9239 28.075C20.9031 28.0692 20.8808 28.072 20.862 28.0826C20.8432 28.0932 20.8294 28.1109 20.8236 28.1317C20.8178 28.1525 20.8205 28.1748 20.8312 28.1936C20.8418 28.2124 20.8595 28.2262 20.8803 28.232Z" fill="#275CC7"/>
<path d="M17.2699 57.3621C16.3135 59.4841 15.9909 61.2544 14.9444 63.3299C11.241 62.6817 4.51441 58.6905 2.22958 54.5423C1.86883 53.9124 1.62277 53.2235 1.50285 52.5075C1.42203 51.9246 1.41324 51.3339 1.47669 50.7488C2.05807 44.4699 8.88349 33.9644 8.88349 33.9644C11.7003 36.4643 12.5578 44.9932 12.5578 44.9932C12.5578 44.9932 9.89218 49.6878 9.97067 51.3418C10.0433 52.7575 15.3397 56.2487 17.2699 57.3621Z" fill="#5A91FF"/>
<path d="M2.22958 54.5423C1.86883 53.9124 1.62277 53.2234 1.50285 52.5075C1.42203 51.9245 1.41324 51.3339 1.47669 50.7488C1.74574 50.9533 1.98029 51.1997 2.17144 51.4784C3.1249 52.8301 2.81096 53.8359 2.22958 54.5423Z" fill="#275CC7"/>
<path d="M16.3049 59.205C16.319 59.2051 16.3329 59.2023 16.3459 59.1968C16.3589 59.1913 16.3706 59.1832 16.3804 59.1731C16.3901 59.1636 16.3978 59.1523 16.403 59.1398C16.4083 59.1273 16.411 59.1139 16.411 59.1004C16.411 59.0869 16.4083 59.0735 16.403 59.061C16.3978 59.0485 16.3901 59.0372 16.3804 59.0277C13.6625 56.3824 9.84862 51.2866 9.47072 50.7808C10.0783 48.6036 13.302 42.499 13.334 42.4409C13.3406 42.4291 13.3448 42.4161 13.3464 42.4027C13.3479 42.3892 13.3468 42.3756 13.343 42.3626C13.3392 42.3496 13.3328 42.3375 13.3243 42.327C13.3158 42.3165 13.3052 42.3078 13.2933 42.3014C13.2811 42.2948 13.2677 42.2907 13.2539 42.2893C13.2401 42.288 13.2262 42.2893 13.213 42.2934C13.1997 42.2975 13.1874 42.3041 13.1767 42.313C13.1661 42.3218 13.1573 42.3327 13.1509 42.345C13.0171 42.5979 9.83117 48.621 9.2556 50.775C9.24914 50.7886 9.24579 50.8035 9.24579 50.8186C9.24579 50.8337 9.24914 50.8486 9.2556 50.8622C9.2963 50.9174 13.3573 56.3853 16.2322 59.176C16.2418 59.1854 16.2531 59.1928 16.2656 59.1978C16.2781 59.2028 16.2914 59.2052 16.3049 59.205Z" fill="#275CC7"/>
<path d="M14.0404 43.6619C13.4068 43.8339 12.8139 44.1303 12.2962 44.534C12.1887 44.6183 12.052 44.4555 12.1625 44.3712C12.71 43.945 13.3378 43.6336 14.0084 43.4555C14.1392 43.4206 14.177 43.6328 14.0433 43.6677L14.0404 43.6619Z" fill="#275CC7"/>
<path d="M13.2439 62.9781C13.2683 62.9777 13.2919 62.9688 13.3105 62.9529C13.3291 62.9369 13.3415 62.915 13.3456 62.8909C13.3481 62.8775 13.3479 62.8637 13.345 62.8504C13.3421 62.8371 13.3365 62.8246 13.3287 62.8134C13.3208 62.8023 13.3108 62.7929 13.2992 62.7857C13.2876 62.7786 13.2748 62.7738 13.2613 62.7717C10.8108 62.3618 6.81379 59.2514 6.776 59.2194C6.75384 59.2026 6.726 59.195 6.69836 59.1982C6.67071 59.2015 6.6454 59.2153 6.62775 59.2369C6.61108 59.2586 6.60356 59.2859 6.60682 59.3131C6.61009 59.3403 6.62386 59.3651 6.64519 59.3822C6.81088 59.513 10.7149 62.5595 13.2264 62.9752L13.2439 62.9781Z" fill="#275CC7"/>
<path d="M9.49683 50.9117C9.12357 50.5439 8.6769 50.259 8.186 50.0757C7.6951 49.8923 7.17103 49.8147 6.64806 49.8478C6.54631 49.8478 6.55213 50.0135 6.64806 50.0076C7.1509 49.9747 7.65501 50.0489 8.12705 50.2253C8.59909 50.4017 9.02832 50.6763 9.38636 51.0309C9.45904 51.1006 9.56369 50.9844 9.49101 50.9117H9.49683Z" fill="#275CC7"/>
<path d="M8.23234 49.7807C8.66497 50.0512 9.03867 50.4061 9.33115 50.8242C9.3951 50.9115 9.53463 50.8242 9.47068 50.7312C9.16122 50.2902 8.76569 49.9165 8.30792 49.6324C8.2178 49.5743 8.14222 49.7225 8.23234 49.7807Z" fill="#275CC7"/>
<path d="M15.7467 66.3735C15.1572 66.1741 14.6231 65.8381 14.1882 65.3931C13.7532 64.948 13.4296 64.4064 13.2438 63.8125L37.9845 39.6328L40.4845 42.1938L15.7467 66.3735Z" fill="#10283B"/>
<path d="M55.1425 28.0462L52.2697 25.1064L35.5065 41.4879L38.3793 44.4276L55.1425 28.0462Z" fill="#24318E"/>
<path d="M53.385 43.0145C58.0146 38.4903 58.5976 31.5788 54.6872 27.5773C50.7768 23.5758 43.8538 23.9994 39.2242 28.5236C34.5945 33.0478 34.0115 39.9592 37.9219 43.9608C41.8323 47.9623 48.7554 47.5386 53.385 43.0145Z" fill="#24318E"/>
<path d="M51.2559 40.834C55.8855 36.3099 56.4685 29.3984 52.5581 25.3969C48.6477 21.3953 41.7247 21.819 37.0951 26.3432C32.4655 30.8673 31.8824 37.7788 35.7928 41.7803C39.7032 45.7819 46.6263 45.3582 51.2559 40.834Z" fill="#275CC7"/>
<path d="M49.8244 39.3768C49.233 39.958 48.5765 40.4691 47.868 40.9C46.2959 41.8641 44.4793 42.3546 42.6356 42.3127C41.5972 42.2854 40.5746 42.0522 39.627 41.6267C38.8282 41.263 38.1038 40.7545 37.4904 40.1267C37.4381 40.0744 37.3886 40.0192 37.3392 39.9669C34.3858 36.7547 34.8945 31.3624 38.5281 27.8131C38.9999 27.3497 39.5137 26.9313 40.063 26.5631C40.974 25.9502 41.9783 25.4888 43.0368 25.1969C44.0508 24.9202 45.1052 24.8219 46.153 24.9062C47.876 25.0252 49.5025 25.7453 50.7488 26.941L50.8621 27.0544C53.9725 30.2549 53.5162 35.7664 49.8244 39.3768Z" fill="#BADEFD"/>
<g opacity="0.5">
<path d="M43.0368 25.2L39.627 41.6269C38.8282 41.2632 38.1038 40.7546 37.4904 40.1269C37.4381 40.0746 37.3887 40.0194 37.3392 39.967L40.063 26.5633C40.9742 25.9514 41.9785 25.491 43.0368 25.2Z" fill="white"/>
</g>
<g opacity="0.5">
<path d="M50.7488 26.95L47.8419 40.9032C46.2698 41.8673 44.4531 42.3578 42.6094 42.3159L46.1471 24.9036C47.8737 25.0244 49.5027 25.7488 50.7488 26.95Z" fill="white"/>
</g>
<path d="M16.1624 66.8443C15.3531 66.5983 14.6189 66.152 14.028 65.5468C13.437 64.9416 13.0083 64.1971 12.7817 63.3821L23.8076 52.6091L27.1912 56.0713L16.1624 66.8443Z" fill="#24318E"/>
<path d="M37.0485 45.0832C37.0485 45.0832 35.3044 44.0629 34.8392 44.2838C34.3741 44.5047 35.9758 45.7867 35.9758 45.7867C35.9758 45.7867 34.9352 45.2053 34.5224 45.3216C34.1096 45.4378 35.2317 46.5134 35.2317 46.5134C35.2317 46.5134 34.5195 46.1587 34.2928 46.5308C34.066 46.9029 34.2637 47.1849 34.6096 47.4814C34.751 47.6037 34.9189 47.6913 35.1001 47.7372C35.2813 47.7831 35.4706 47.7861 35.6532 47.7459C35.8886 47.6703 35.9613 47.2081 35.9613 47.2081C35.9613 47.2081 36.8043 47.2081 36.9613 46.9756C37.0071 46.8995 37.0362 46.8145 37.0467 46.7263C37.0572 46.6381 37.0489 46.5487 37.0223 46.464C37.1283 46.4945 37.2402 46.498 37.3479 46.4741C37.4555 46.4503 37.5555 46.3998 37.6386 46.3273C37.7152 46.2668 37.7754 46.1879 37.8135 46.098C37.8516 46.0081 37.8664 45.91 37.8566 45.8128C37.8566 45.8128 38.2229 45.4059 38.4787 45.1152C38.7345 44.8245 38.2607 44.2431 38.0107 43.8623C37.7607 43.4815 36.9584 43.8448 36.3014 43.6733C36.3014 43.6733 35.9061 43.7024 36.1125 44.0948C36.3189 44.4873 36.8712 44.6326 37.0165 44.7227C37.1619 44.8128 37.0485 45.0832 37.0485 45.0832Z" fill="#FD945C"/>
<path d="M15.2874 59.1322C15.2874 59.1322 17.0316 58.9229 18.1943 58.8939C18.9821 58.8735 19.6187 58.7078 19.8396 59.0101C20.0606 59.3125 18.5025 59.734 18.36 59.7718C18.2176 59.8095 15.2874 59.1322 15.2874 59.1322Z" fill="#FD945C"/>
<path d="M13.8572 60.391C13.7002 61.2311 14.1479 61.4956 14.9444 61.8212C15.3676 61.9767 15.7609 62.2038 16.1071 62.4927C16.8019 63.1467 17.3542 64.0857 17.9094 64.574C18.4646 65.0624 18.6739 64.6816 18.4152 64.0973C18.1565 63.513 17.5432 62.4869 17.5432 62.4869C17.5432 62.4869 18.7321 63.5915 18.9966 64.1758C19.2611 64.7601 19.8135 64.9083 19.8687 64.2252C19.9239 63.5421 18.8803 62.0537 18.4763 61.7194C18.9876 61.954 19.4074 62.3503 19.671 62.8473C20.0489 63.6293 20.3222 64.0421 20.6128 64.2397C20.9035 64.4374 21.3454 64.0072 20.7902 62.9345C20.4392 62.1721 19.8951 61.5148 19.2117 61.0276C19.2117 61.0276 19.5751 61.2049 20.2844 61.5421C20.9937 61.8793 21.4471 62.7456 21.9297 62.7398C22.4122 62.7339 21.9297 61.6758 21.4239 61.2078C20.9181 60.7398 20.5518 60.3532 19.7262 60.0451C19.0147 59.7635 18.2765 59.5551 17.5228 59.423C16.9763 59.3648 16.2641 59.0422 15.488 59.1148C14.8339 59.1701 13.9706 59.7544 13.8572 60.391Z" fill="#FD945C"/>
<path d="M31.5167 3.27324C31.3249 5.77609 27.8075 8.65102 26.4325 9.66843C26.2793 9.78019 26.0946 9.8404 25.9049 9.8404C25.7153 9.8404 25.5305 9.78019 25.3773 9.66843C23.9994 8.66264 20.4821 5.78771 20.2902 3.27324C20.0519 0.168662 23.9035 -1.4999 25.9035 1.81978C27.9034 -1.4999 31.758 0.168662 31.5167 3.27324Z" fill="#7FAFE1"/>
<path d="M30.6707 4.09596C30.6654 4.12135 30.6516 4.14415 30.6314 4.16055C30.6113 4.17695 30.5862 4.18596 30.5603 4.18607H29.5371C29.5133 4.1856 29.4902 4.1782 29.4705 4.16477C29.4509 4.15134 29.4356 4.13248 29.4266 4.1105L29.3772 3.98259L29.1126 3.314L28.9033 3.83725C28.8948 3.85713 28.8806 3.87407 28.8625 3.88596C28.8444 3.89784 28.8232 3.90415 28.8016 3.90411H28.1824C28.1612 3.90396 28.1405 3.89754 28.1229 3.88564C28.1053 3.87374 28.0916 3.8569 28.0836 3.83725L27.8888 3.34016L27.1534 5.20059C27.1454 5.22024 27.1317 5.23708 27.1141 5.24898C27.0965 5.26088 27.0758 5.2673 27.0545 5.26744C27.0332 5.2677 27.0123 5.26143 26.9947 5.24948C26.977 5.23753 26.9634 5.22047 26.9557 5.20059L26.5807 4.25003L25.4848 7.03484C25.4769 7.05482 25.4634 7.07207 25.4458 7.08446C25.4283 7.09685 25.4075 7.10385 25.386 7.10461C25.3644 7.10423 25.3435 7.09738 25.3258 7.08494C25.3082 7.0725 25.2947 7.05504 25.2872 7.03484L24.1099 4.05817H23.6622C23.641 4.05803 23.6202 4.0516 23.6027 4.0397C23.5851 4.02781 23.5714 4.01097 23.5634 3.99131L23.3308 3.40993L23.0401 4.12794C23.0321 4.14759 23.0184 4.16443 23.0008 4.17633C22.9832 4.18823 22.9625 4.19465 22.9413 4.1948H21.2349C21.209 4.19468 21.1839 4.18567 21.1638 4.16927C21.1437 4.15287 21.1298 4.13007 21.1245 4.10468C21.1224 4.08939 21.1236 4.07382 21.1281 4.05905C21.1325 4.04427 21.1401 4.03063 21.1503 4.01904C21.1605 4.00746 21.1731 3.99821 21.1872 3.99192C21.2013 3.98563 21.2166 3.98245 21.232 3.98259H22.8686L23.2262 3.07854C23.2342 3.05889 23.2479 3.04205 23.2655 3.03015C23.283 3.01825 23.3038 3.01183 23.325 3.01168C23.3463 3.01143 23.3672 3.0177 23.3849 3.02965C23.4025 3.0416 23.4161 3.05866 23.4238 3.07854L23.7407 3.83725H24.1883C24.21 3.8372 24.2312 3.84351 24.2493 3.85539C24.2673 3.86728 24.2815 3.88422 24.2901 3.90411L25.3918 6.69764L26.4848 3.92736C26.4931 3.90803 26.5069 3.89155 26.5244 3.87998C26.542 3.8684 26.5626 3.86223 26.5836 3.86223C26.6047 3.86223 26.6252 3.8684 26.6428 3.87998C26.6604 3.89155 26.6742 3.90803 26.6825 3.92736L27.0575 4.87501L27.79 3.01459C27.7985 2.9947 27.8127 2.97777 27.8308 2.96588C27.8489 2.95399 27.8701 2.94768 27.8917 2.94773C27.913 2.94787 27.9337 2.9543 27.9513 2.9662C27.9689 2.9781 27.9825 2.99493 27.9906 3.01459L28.258 3.69771H28.7318L29.0225 2.97971C29.0306 2.96005 29.0442 2.94321 29.0618 2.93132C29.0794 2.91942 29.1001 2.91299 29.1214 2.91285C29.1427 2.9126 29.1636 2.91886 29.1812 2.93081C29.1989 2.94276 29.2125 2.95982 29.2202 2.97971L29.6097 3.96806H30.5748C30.59 3.96894 30.6048 3.97313 30.6182 3.98032C30.6317 3.98752 30.6433 3.99756 30.6525 4.00974C30.6616 4.02192 30.668 4.03594 30.6711 4.05083C30.6743 4.06572 30.6742 4.08112 30.6707 4.09596Z" fill="#BADEFD"/>
<path d="M33.2492 3.45625H32.9004C32.8541 3.45625 32.8097 3.43787 32.777 3.40517C32.7443 3.37246 32.726 3.32809 32.726 3.28184C32.726 3.23558 32.7443 3.19122 32.777 3.15851C32.8097 3.1258 32.8541 3.10742 32.9004 3.10742H33.2492C33.2955 3.10742 33.3398 3.1258 33.3725 3.15851C33.4052 3.19122 33.4236 3.23558 33.4236 3.28184C33.4236 3.32809 33.4052 3.37246 33.3725 3.40517C33.3398 3.43787 33.2955 3.45625 33.2492 3.45625Z" fill="#7FAFE1"/>
<path d="M49.2313 3.45625H48.5656C48.5194 3.45625 48.475 3.43787 48.4423 3.40517C48.4096 3.37246 48.3912 3.32809 48.3912 3.28184C48.3912 3.23558 48.4096 3.19122 48.4423 3.15851C48.475 3.1258 48.5194 3.10742 48.5656 3.10742H49.2313C49.2776 3.10742 49.322 3.1258 49.3547 3.15851C49.3874 3.19122 49.4057 3.23558 49.4057 3.28184C49.4057 3.32809 49.3874 3.37246 49.3547 3.40517C49.322 3.43787 49.2776 3.45625 49.2313 3.45625ZM47.4552 3.45625H46.7895C46.7433 3.45625 46.6989 3.43787 46.6662 3.40517C46.6335 3.37246 46.6151 3.32809 46.6151 3.28184C46.6151 3.23558 46.6335 3.19122 46.6662 3.15851C46.6989 3.1258 46.7433 3.10742 46.7895 3.10742H47.4552C47.5015 3.10742 47.5458 3.1258 47.5785 3.15851C47.6112 3.19122 47.6296 3.23558 47.6296 3.28184C47.6296 3.32809 47.6112 3.37246 47.5785 3.40517C47.5458 3.43787 47.5015 3.45625 47.4552 3.45625ZM45.6791 3.45625H45.0134C44.9672 3.45625 44.9228 3.43787 44.8901 3.40517C44.8574 3.37246 44.839 3.32809 44.839 3.28184C44.839 3.23558 44.8574 3.19122 44.8901 3.15851C44.9228 3.1258 44.9672 3.10742 45.0134 3.10742H45.6791C45.7254 3.10742 45.7697 3.1258 45.8024 3.15851C45.8351 3.19122 45.8535 3.23558 45.8535 3.28184C45.8535 3.32809 45.8351 3.37246 45.8024 3.40517C45.7697 3.43787 45.7254 3.45625 45.6791 3.45625ZM43.903 3.45625H43.2373C43.191 3.45625 43.1467 3.43787 43.114 3.40517C43.0813 3.37246 43.0629 3.32809 43.0629 3.28184C43.0629 3.23558 43.0813 3.19122 43.114 3.15851C43.1467 3.1258 43.191 3.10742 43.2373 3.10742H43.903C43.9492 3.10742 43.9936 3.1258 44.0263 3.15851C44.059 3.19122 44.0774 3.23558 44.0774 3.28184C44.0774 3.32809 44.059 3.37246 44.0263 3.40517C43.9936 3.43787 43.9492 3.45625 43.903 3.45625ZM42.1269 3.45625H41.4728C41.4265 3.45625 41.3822 3.43787 41.3495 3.40517C41.3168 3.37246 41.2984 3.32809 41.2984 3.28184C41.2984 3.23558 41.3168 3.19122 41.3495 3.15851C41.3822 3.1258 41.4265 3.10742 41.4728 3.10742H42.1385C42.1847 3.10742 42.2291 3.1258 42.2618 3.15851C42.2945 3.19122 42.3129 3.23558 42.3129 3.28184C42.3129 3.32809 42.2945 3.37246 42.2618 3.40517C42.2291 3.43787 42.1847 3.45625 42.1385 3.45625H42.1269ZM40.3507 3.45625H39.6851C39.6388 3.45625 39.5944 3.43787 39.5617 3.40517C39.529 3.37246 39.5106 3.32809 39.5106 3.28184C39.5106 3.23558 39.529 3.19122 39.5617 3.15851C39.5944 3.1258 39.6388 3.10742 39.6851 3.10742H40.3507C40.397 3.10742 40.4414 3.1258 40.4741 3.15851C40.5068 3.19122 40.5251 3.23558 40.5251 3.28184C40.5251 3.32809 40.5068 3.37246 40.4741 3.40517C40.4414 3.43787 40.397 3.45625 40.3507 3.45625ZM38.5746 3.45625H37.9089C37.8627 3.45625 37.8183 3.43787 37.7856 3.40517C37.7529 3.37246 37.7345 3.32809 37.7345 3.28184C37.7345 3.23558 37.7529 3.19122 37.7856 3.15851C37.8183 3.1258 37.8627 3.10742 37.9089 3.10742H38.5659C38.6121 3.10742 38.6565 3.1258 38.6892 3.15851C38.7219 3.19122 38.7403 3.23558 38.7403 3.28184C38.7403 3.32809 38.7219 3.37246 38.6892 3.40517C38.6565 3.43787 38.6121 3.45625 38.5659 3.45625H38.5746ZM36.8014 3.45625H36.1357C36.0895 3.45625 36.0451 3.43787 36.0124 3.40517C35.9797 3.37246 35.9613 3.32809 35.9613 3.28184C35.9613 3.23558 35.9797 3.19122 36.0124 3.15851C36.0451 3.1258 36.0895 3.10742 36.1357 3.10742H36.8014C36.8477 3.10742 36.892 3.1258 36.9247 3.15851C36.9574 3.19122 36.9758 3.23558 36.9758 3.28184C36.9758 3.32809 36.9574 3.37246 36.9247 3.40517C36.892 3.43787 36.8477 3.45625 36.8014 3.45625ZM35.0253 3.45625H34.3596C34.3133 3.45625 34.269 3.43787 34.2363 3.40517C34.2036 3.37246 34.1852 3.32809 34.1852 3.28184C34.1852 3.23558 34.2036 3.19122 34.2363 3.15851C34.269 3.1258 34.3133 3.10742 34.3596 3.10742H35.0253C35.0715 3.10742 35.1159 3.1258 35.1486 3.15851C35.1813 3.19122 35.1997 3.23558 35.1997 3.28184C35.1997 3.32809 35.1813 3.37246 35.1486 3.40517C35.1159 3.43787 35.0715 3.45625 35.0253 3.45625Z" fill="#7FAFE1"/>
<path d="M50.6906 3.80508C50.6443 3.80508 50.6 3.7867 50.5673 3.75399C50.5346 3.72129 50.5162 3.67692 50.5162 3.63066V3.45625H50.3418C50.2955 3.45625 50.2512 3.43787 50.2184 3.40517C50.1857 3.37246 50.1674 3.32809 50.1674 3.28184C50.1674 3.23558 50.1857 3.19122 50.2184 3.15851C50.2512 3.1258 50.2955 3.10742 50.3418 3.10742H50.6906C50.7369 3.10742 50.7812 3.1258 50.8139 3.15851C50.8466 3.19122 50.865 3.23558 50.865 3.28184V3.63066C50.865 3.67692 50.8466 3.72129 50.8139 3.75399C50.7812 3.7867 50.7369 3.80508 50.6906 3.80508Z" fill="#7FAFE1"/>
<path d="M50.6907 8.64524C50.6444 8.64524 50.6001 8.62687 50.5673 8.59416C50.5346 8.56145 50.5163 8.51709 50.5163 8.47083V7.86619C50.5163 7.81994 50.5346 7.77557 50.5673 7.74286C50.6001 7.71015 50.6444 7.69178 50.6907 7.69178C50.7369 7.69178 50.7813 7.71015 50.814 7.74286C50.8467 7.77557 50.8651 7.81994 50.8651 7.86619V8.47083C50.8651 8.51709 50.8467 8.56145 50.814 8.59416C50.7813 8.62687 50.7369 8.64524 50.6907 8.64524ZM50.6907 7.03191C50.6444 7.03191 50.6001 7.01353 50.5673 6.98083C50.5346 6.94812 50.5163 6.90375 50.5163 6.8575V6.25286C50.5163 6.2066 50.5346 6.16224 50.5673 6.12953C50.6001 6.09682 50.6444 6.07844 50.6907 6.07844C50.7369 6.07844 50.7813 6.09682 50.814 6.12953C50.8467 6.16224 50.8651 6.2066 50.8651 6.25286V6.8575C50.8655 6.88064 50.8612 6.90364 50.8527 6.92513C50.8441 6.94663 50.8313 6.9662 50.815 6.98271C50.7988 6.99921 50.7795 7.01232 50.7581 7.02127C50.7367 7.03022 50.7138 7.03482 50.6907 7.03482V7.03191ZM50.6907 5.41858C50.6444 5.41858 50.6001 5.4002 50.5673 5.36749C50.5346 5.33478 50.5163 5.29042 50.5163 5.24416V4.63953C50.5159 4.61651 50.5201 4.59366 50.5287 4.57232C50.5374 4.55098 50.5502 4.53159 50.5665 4.51532C50.5827 4.49904 50.6021 4.48621 50.6235 4.47759C50.6448 4.46896 50.6677 4.46472 50.6907 4.46511C50.7369 4.46511 50.7813 4.48349 50.814 4.5162C50.8467 4.54891 50.8651 4.59327 50.8651 4.63953V5.24416C50.8651 5.29042 50.8467 5.33478 50.814 5.36749C50.7813 5.4002 50.7369 5.41858 50.6907 5.41858Z" fill="#7FAFE1"/>
<path d="M50.6907 10.0028C50.6444 10.0028 50.6 9.98446 50.5673 9.95175C50.5346 9.91904 50.5162 9.87468 50.5162 9.82842V9.47959C50.5162 9.43333 50.5346 9.38897 50.5673 9.35626C50.6 9.32355 50.6444 9.30518 50.6907 9.30518C50.7369 9.30518 50.7813 9.32355 50.814 9.35626C50.8467 9.38897 50.8651 9.43333 50.8651 9.47959V9.82842C50.8651 9.87468 50.8467 9.91904 50.814 9.95175C50.7813 9.98446 50.7369 10.0028 50.6907 10.0028Z" fill="#7FAFE1"/>
<path d="M90.3933 13.3791C91.4657 8.8947 88.6999 4.39 84.2155 3.31753C79.7311 2.24507 75.2264 5.01096 74.154 9.49533C73.0815 13.9797 75.8474 18.4844 80.3318 19.5569C84.8161 20.6293 89.3208 17.8634 90.3933 13.3791Z" fill="#275CC7"/>
<path d="M87.4921 9.85727V13.0171H83.8584V16.6536H80.6957V13.0171H77.0621V9.85727H80.6957V6.22363H83.8584V9.85727H87.4921Z" fill="white"/>
<path d="M7.14223 22.7146C6.69895 22.7146 6.26564 22.5832 5.89707 22.3369C5.5285 22.0906 5.24124 21.7406 5.07161 21.3311C4.90197 20.9216 4.85759 20.4709 4.94407 20.0362C5.03054 19.6014 5.244 19.2021 5.55744 18.8886C5.87088 18.5752 6.27023 18.3617 6.70498 18.2752C7.13974 18.1888 7.59038 18.2331 7.99991 18.4028C8.40944 18.5724 8.75947 18.8597 9.00574 19.2282C9.25201 19.5968 9.38345 20.0301 9.38345 20.4734C9.38268 21.0676 9.14631 21.6372 8.72616 22.0573C8.30602 22.4775 7.7364 22.7139 7.14223 22.7146ZM7.14223 18.674C6.78634 18.674 6.43845 18.7796 6.14255 18.9773C5.84664 19.175 5.61601 19.456 5.47982 19.7848C5.34363 20.1136 5.308 20.4754 5.37743 20.8244C5.44685 21.1735 5.61823 21.4941 5.86988 21.7458C6.12152 21.9974 6.44214 22.1688 6.79119 22.2382C7.14023 22.3076 7.50203 22.272 7.83082 22.1358C8.15961 21.9996 8.44064 21.769 8.63835 21.4731C8.83607 21.1772 8.9416 20.8293 8.9416 20.4734C8.94313 20.2361 8.89773 20.0009 8.80799 19.7812C8.71825 19.5616 8.58595 19.3619 8.41871 19.1935C8.25146 19.0252 8.05259 18.8916 7.83351 18.8005C7.61444 18.7093 7.37951 18.6624 7.14223 18.6624V18.674Z" fill="#9BC4ED"/>
<path d="M104.047 11.3457C103.604 11.344 103.172 11.2111 102.804 10.9638C102.437 10.7165 102.151 10.3658 101.983 9.95614C101.814 9.54647 101.771 9.09611 101.859 8.66193C101.946 8.22775 102.16 7.82922 102.474 7.51665C102.788 7.20408 103.187 6.99149 103.622 6.90571C104.056 6.81994 104.506 6.86483 104.915 7.03472C105.324 7.2046 105.674 7.49187 105.92 7.86025C106.166 8.22862 106.297 8.66159 106.297 9.10449C106.297 9.39944 106.238 9.69142 106.125 9.96373C106.011 10.236 105.846 10.4834 105.637 10.6915C105.428 10.8997 105.18 11.0646 104.907 11.1768C104.634 11.2891 104.342 11.3465 104.047 11.3457ZM104.047 7.30512C103.691 7.30569 103.344 7.41171 103.048 7.60978C102.753 7.80784 102.522 8.08907 102.387 8.41791C102.251 8.74675 102.216 9.10846 102.285 9.45731C102.355 9.80616 102.527 10.1265 102.779 10.3779C103.03 10.6292 103.351 10.8003 103.7 10.8695C104.049 10.9387 104.411 10.9029 104.739 10.7666C105.068 10.6303 105.349 10.3997 105.546 10.1039C105.744 9.80803 105.849 9.46025 105.849 9.10449C105.849 8.86795 105.803 8.63373 105.712 8.41523C105.621 8.19673 105.489 7.99824 105.321 7.83111C105.154 7.66399 104.955 7.53151 104.736 7.44125C104.518 7.35099 104.284 7.30473 104.047 7.30512Z" fill="#9BC4ED"/>
<path d="M3.57259 33.8626H1.99123C1.94497 33.8626 1.90061 33.8443 1.8679 33.8116C1.83519 33.7789 1.81682 33.7345 1.81682 33.6882V32.0342H0.174414C0.128156 32.0342 0.0837937 32.0158 0.0510847 31.9831C0.0183756 31.9504 0 31.906 0 31.8598V30.2901C0 30.2438 0.0183756 30.1994 0.0510847 30.1667C0.0837937 30.134 0.128156 30.1156 0.174414 30.1156H1.81682V28.4732C1.81682 28.427 1.83519 28.3826 1.8679 28.3499C1.90061 28.3172 1.94497 28.2988 1.99123 28.2988H3.57259C3.61885 28.2988 3.66321 28.3172 3.69592 28.3499C3.72863 28.3826 3.747 28.427 3.747 28.4732V30.1156H5.3865C5.40951 30.1153 5.43237 30.1195 5.45371 30.1281C5.47505 30.1367 5.49443 30.1496 5.5107 30.1659C5.52698 30.1821 5.53981 30.2015 5.54844 30.2229C5.55706 30.2442 5.56131 30.267 5.56091 30.2901V31.8685C5.56091 31.9148 5.54254 31.9591 5.50983 31.9918C5.47712 32.0246 5.43276 32.0429 5.3865 32.0429H3.747V33.6853C3.74739 33.7085 3.74316 33.7315 3.73457 33.753C3.72598 33.7745 3.71319 33.794 3.69696 33.8105C3.68072 33.827 3.66137 33.8402 3.64001 33.8491C3.61866 33.858 3.59574 33.8627 3.57259 33.8626ZM2.16564 33.5138H3.39236V31.8714C3.39236 31.8252 3.41074 31.7808 3.44344 31.7481C3.47615 31.7154 3.52052 31.697 3.56677 31.697H5.20627V30.4674H3.57259C3.52633 30.4674 3.48197 30.449 3.44926 30.4163C3.41655 30.3836 3.39817 30.3392 3.39817 30.293V28.6506H2.16564V30.2901C2.16564 30.3363 2.14727 30.3807 2.11456 30.4134C2.08185 30.4461 2.03749 30.4645 1.99123 30.4645H0.348828V31.6941H1.99123C2.03749 31.6941 2.08185 31.7125 2.11456 31.7452C2.14727 31.7779 2.16564 31.8223 2.16564 31.8685V33.5138Z" fill="#9BC4ED"/>
<path d="M110.808 21.4935H109.23C109.184 21.4935 109.139 21.4752 109.107 21.4424C109.074 21.4097 109.056 21.3654 109.056 21.3191V19.6767H107.413C107.367 19.6767 107.323 19.6583 107.29 19.6256C107.257 19.5929 107.239 19.5486 107.239 19.5023V17.9238C107.239 17.8776 107.257 17.8332 107.29 17.8005C107.323 17.7678 107.367 17.7494 107.413 17.7494H109.056V16.107C109.056 16.0608 109.074 16.0164 109.107 15.9837C109.139 15.951 109.184 15.9326 109.23 15.9326H110.808C110.855 15.9326 110.899 15.951 110.932 15.9837C110.964 16.0164 110.983 16.0608 110.983 16.107V17.7494H112.625C112.671 17.7494 112.716 17.7678 112.749 17.8005C112.781 17.8332 112.8 17.8776 112.8 17.9238V19.5023C112.8 19.5253 112.796 19.5482 112.787 19.5695C112.779 19.5908 112.766 19.6102 112.749 19.6265C112.733 19.6428 112.714 19.6556 112.692 19.6642C112.671 19.6729 112.648 19.6771 112.625 19.6767H110.983V21.3191C110.983 21.3654 110.964 21.4097 110.932 21.4424C110.899 21.4752 110.855 21.4935 110.808 21.4935ZM109.404 21.1447H110.634V19.5023C110.634 19.456 110.652 19.4117 110.685 19.379C110.718 19.3463 110.762 19.3279 110.808 19.3279H112.451V18.0983H110.808C110.762 18.0983 110.718 18.0799 110.685 18.0472C110.652 18.0145 110.634 17.9701 110.634 17.9238V16.2814H109.404V17.9238C109.404 17.9701 109.386 18.0145 109.353 18.0472C109.321 18.0799 109.276 18.0983 109.23 18.0983H107.588V19.3279H109.23C109.276 19.3279 109.321 19.3463 109.353 19.379C109.386 19.4117 109.404 19.456 109.404 19.5023V21.1447Z" fill="#9BC4ED"/>
<path d="M83.4224 70.8879C83.4224 70.8879 82.2422 82.9458 81.7161 89.2683C81.0039 97.8233 79.9719 115.608 79.9719 115.608C79.9719 115.608 80.2626 117.643 81.562 117.233C82.8614 116.823 82.7248 115.962 82.7248 115.962C82.7248 115.962 85.2974 106.201 87.181 99.393C88.3438 95.1373 87.7973 90.5938 87.7973 90.5938C87.7973 90.5938 92.6082 77.8732 93.2478 73.4751C93.8873 69.0769 83.4224 70.8879 83.4224 70.8879Z" fill="#FD945C"/>
<path d="M85.1404 89.6374C84.2073 89.8729 82.9689 89.9717 82.1172 89.4223C81.9602 89.3206 82.1172 89.0706 82.2625 89.1723C83.0474 89.681 84.2044 89.5735 85.0648 89.3584C85.0839 89.3534 85.1038 89.3522 85.1233 89.355C85.1428 89.3577 85.1616 89.3642 85.1786 89.3742C85.1956 89.3842 85.2105 89.3974 85.2224 89.4132C85.2343 89.4289 85.243 89.4468 85.2479 89.4659C85.2529 89.485 85.254 89.5049 85.2513 89.5244C85.2486 89.5439 85.2421 89.5628 85.2321 89.5798C85.2221 89.5968 85.2089 89.6116 85.1931 89.6235C85.1774 89.6354 85.1595 89.6441 85.1404 89.6491V89.6374Z" fill="#D4652D"/>
<path d="M75.7918 119.549H83.1114V118.41C83.1114 117.727 83.1608 117.66 83.1114 116.302C83.0881 115.762 82.7451 115.692 82.7451 115.692C82.7451 116.209 82.0271 116.529 82.0271 116.529C82.0271 116.529 81.5155 115.218 80.4893 115.276C79.4632 115.334 79.065 116.529 79.065 116.529C79.065 116.529 76.3441 117.416 75.8848 118.143C75.7447 118.364 75.6654 118.619 75.6551 118.881C75.647 119.111 75.6938 119.341 75.7918 119.549Z" fill="white"/>
<path d="M75.7918 119.549H83.1114V118.881H75.6551C75.647 119.111 75.6938 119.341 75.7918 119.549Z" fill="#10283B"/>
<path d="M83.0038 117.177C82.642 117.394 82.338 117.696 82.1178 118.056C81.8976 118.415 81.7678 118.823 81.7393 119.244C81.7393 119.355 81.902 119.355 81.9108 119.244C81.9385 118.853 82.0603 118.474 82.2658 118.14C82.4713 117.806 82.7544 117.527 83.091 117.326C83.1068 117.312 83.1173 117.294 83.1208 117.274C83.1243 117.253 83.1205 117.232 83.1101 117.215C83.0996 117.197 83.0832 117.183 83.0637 117.177C83.0443 117.17 83.023 117.17 83.0038 117.177Z" fill="#10283B"/>
<path d="M101.463 69.3588C101.463 69.3588 101.239 84.7916 101.425 91.2129C101.678 99.8668 100.538 114.817 100.538 114.817C100.538 114.817 100.044 116.884 98.7941 116.471C97.5442 116.058 97.7506 115.172 97.7506 115.172C97.7506 115.172 95.425 98.7331 94.8989 94.9367C94.3727 91.1403 94.9309 89.4455 94.9309 89.4455C94.9309 89.4455 91.5937 76.4517 91.3844 71.9808C91.1751 67.51 101.463 69.3588 101.463 69.3588Z" fill="#FD945C"/>
<path d="M100.98 88.9573C100.033 89.4881 98.9152 89.6269 97.8668 89.3439C97.8302 89.3335 97.7992 89.3089 97.7807 89.2757C97.7621 89.2424 97.7576 89.2032 97.768 89.1666C97.7784 89.1299 97.8029 89.099 97.8362 89.0804C97.8694 89.0619 97.9087 89.0573 97.9453 89.0677C98.9241 89.3329 99.9678 89.2034 100.852 88.7073C101.012 88.6172 101.16 88.8672 100.998 88.9573H100.98Z" fill="#D4652D"/>
<path d="M104.34 119.549H97.8464V118.288C97.8408 117.534 97.7363 116.785 97.5354 116.058C97.4909 115.907 97.4875 115.746 97.5252 115.593C97.563 115.44 97.6408 115.3 97.7505 115.186C97.7505 115.768 98.8057 116.212 98.8057 116.212C98.8057 116.212 99.6284 114.759 100.55 114.823C101.471 114.887 101.448 116.212 101.448 116.212C101.448 116.212 103.861 117.195 104.268 117.997C104.397 118.25 104.468 118.53 104.474 118.814C104.479 119.066 104.433 119.316 104.34 119.549Z" fill="white"/>
<path d="M104.34 119.549H97.8464V118.808H104.463C104.471 119.061 104.43 119.313 104.34 119.549Z" fill="#10283B"/>
<path d="M97.9686 116.916C98.3681 117.157 98.7038 117.491 98.9472 117.889C99.1905 118.287 99.3345 118.738 99.3668 119.203C99.3668 119.326 99.1865 119.326 99.1778 119.203C99.1473 118.77 99.0127 118.351 98.7855 117.981C98.5583 117.611 98.2451 117.302 97.8726 117.079C97.8555 117.064 97.844 117.044 97.8403 117.021C97.8366 116.999 97.8408 116.976 97.8523 116.957C97.8637 116.937 97.8817 116.923 97.9029 116.915C97.9242 116.908 97.9474 116.908 97.9686 116.916Z" fill="#10283B"/>
<path d="M88.0793 49.8042C88.0793 49.8042 93.4367 52.6501 99.4162 50.3216C99.4162 50.3216 102.076 57.6063 102.009 60.9493C101.942 64.2922 85.9921 61.987 85.5822 58.5947C85.3323 56.65 88.0793 49.8042 88.0793 49.8042Z" fill="#24318E"/>
<path d="M86.3381 54.708C86.3381 54.708 82.6114 62.266 81.1202 76.6697C81.1202 76.6697 90.6577 80.9021 102.736 77.44C103.091 70.3733 102.631 62.6875 100.006 55.3475L86.3381 54.708Z" fill="#F5CDFF"/>
<path d="M87.2798 56.8183C87.3583 59.3357 86.245 62.4345 83.5357 63.0856C83.4136 63.1147 83.466 63.2978 83.5852 63.2688C86.3787 62.6002 87.5531 59.42 87.4717 56.8183C87.4717 56.7929 87.4616 56.7685 87.4436 56.7505C87.4256 56.7325 87.4012 56.7224 87.3758 56.7224C87.3503 56.7224 87.3259 56.7325 87.3079 56.7505C87.2899 56.7685 87.2798 56.7929 87.2798 56.8183Z" fill="#5A91FF"/>
<path d="M96.6024 57.3706C96.3528 58.1134 96.2671 58.9015 96.3511 59.6807C96.4351 60.4598 96.6869 61.2115 97.089 61.8841C97.4912 62.5567 98.0343 63.1342 98.6809 63.577C99.3275 64.0197 100.062 64.3172 100.835 64.4489C100.957 64.4721 101.006 64.2861 100.887 64.2628C100.139 64.1386 99.4259 63.8531 98.7987 63.4261C98.1715 62.999 97.6446 62.4406 97.2547 61.7896C96.8648 61.1387 96.6211 60.4107 96.5406 59.6561C96.4601 58.9016 96.5446 58.1386 96.7884 57.42C96.8262 57.3037 96.6402 57.2514 96.6024 57.3706Z" fill="#5A91FF"/>
<path d="M92.4687 77.0619C91.108 77.0656 89.7484 76.9792 88.3991 76.8032C85.9221 76.508 83.5196 75.7643 81.3091 74.6085C81.2981 74.6027 81.2884 74.5948 81.2805 74.5852C81.2726 74.5756 81.2667 74.5645 81.2632 74.5525C81.2597 74.5406 81.2586 74.5281 81.26 74.5157C81.2614 74.5034 81.2652 74.4914 81.2713 74.4806C81.2837 74.4582 81.3042 74.4415 81.3285 74.4339C81.3529 74.4263 81.3793 74.4285 81.4021 74.4399C85.9282 76.8962 91.4775 77.0561 95.332 76.7654C97.8219 76.5775 100.289 76.1581 102.701 75.5125C102.725 75.5053 102.751 75.508 102.774 75.5199C102.796 75.5319 102.813 75.5523 102.82 75.5765C102.824 75.5887 102.825 75.6015 102.823 75.6141C102.822 75.6268 102.818 75.639 102.812 75.6501C102.806 75.6612 102.797 75.6709 102.787 75.6787C102.777 75.6866 102.766 75.6923 102.753 75.6957C100.332 76.3489 97.8537 76.7713 95.3524 76.9573C94.3737 77.027 93.4125 77.0619 92.4687 77.0619Z" fill="#5A91FF"/>
<path d="M99.7941 58.8591C100.778 63.2018 101.301 67.6361 101.355 72.0885C101.37 73.353 101.355 74.6175 101.285 75.8675C101.285 75.9605 101.425 75.9605 101.428 75.8675C101.641 71.4278 101.386 66.9781 100.669 62.5916C100.463 61.3213 100.213 60.0597 99.9307 58.8126C99.9104 58.7225 99.7709 58.7603 99.7912 58.8533L99.7941 58.8591Z" fill="#5A91FF"/>
<path d="M89.0908 50.4117C88.872 50.7767 88.7287 51.182 88.6693 51.6035C88.6519 51.7198 88.4717 51.7052 88.4891 51.6035C88.552 51.1499 88.7063 50.7138 88.9426 50.3216C89.0007 50.2227 89.149 50.3216 89.0908 50.4262V50.4117Z" fill="#53647C"/>
<path d="M97.7796 50.9524C97.9705 51.4779 98.0774 52.0302 98.0965 52.5889C98.0965 52.7052 97.9221 52.6878 97.9162 52.5715C97.901 52.0449 97.8029 51.524 97.6256 51.0279C97.5849 50.9204 97.7476 50.8419 97.7883 50.9524H97.7796Z" fill="#53647C"/>
<path d="M94.4745 51.3826C94.605 51.8802 94.6376 52.3986 94.5704 52.9087C94.5559 53.022 94.3757 53.0075 94.3902 52.8912C94.4539 52.3986 94.4224 51.8982 94.2972 51.4174C94.2681 51.3041 94.4483 51.2721 94.4745 51.3826Z" fill="#53647C"/>
<path d="M91.5501 51.6993C91.5423 51.7875 91.5086 51.8714 91.4531 51.9403C91.3976 52.0093 91.3229 52.0603 91.2385 52.0869C91.1541 52.1134 91.0637 52.1143 90.9787 52.0895C90.8937 52.0647 90.818 52.0153 90.7612 51.9474C90.7043 51.8796 90.6688 51.7964 90.6592 51.7084C90.6496 51.6204 90.6663 51.5316 90.7072 51.4531C90.7481 51.3745 90.8113 51.3099 90.8889 51.2673C90.9665 51.2248 91.055 51.2062 91.1432 51.2139C91.2612 51.2249 91.3702 51.2821 91.4464 51.373C91.5226 51.4639 91.5598 51.5811 91.5501 51.6993Z" fill="#53647C"/>
<path d="M97.5558 54.051C98.0092 55.5277 98.7796 57.4027 100.588 57.4899C100.704 57.4899 100.687 57.6759 100.573 57.6701C98.6749 57.5771 97.8552 55.6353 97.3755 54.0859C97.3436 53.9725 97.5209 53.9405 97.5558 54.051Z" fill="#53647C"/>
<path d="M89.0327 53.2895C88.7512 53.8007 88.3688 54.2494 87.9085 54.6081C87.4483 54.9669 86.9199 55.2284 86.3555 55.3767C86.2421 55.4058 86.2101 55.2284 86.3235 55.1965C86.8651 55.0529 87.3717 54.8005 87.8125 54.4546C88.2533 54.1088 88.6191 53.6767 88.8874 53.1849C88.9426 53.0832 89.0909 53.1849 89.0327 53.2895Z" fill="#53647C"/>
<path d="M90.4251 28.2086C90.4245 28.3491 90.4657 28.4866 90.5434 28.6037C90.6212 28.7208 90.7319 28.8122 90.8616 28.8662C90.9913 28.9203 91.1342 28.9346 91.2721 28.9073C91.4099 28.88 91.5366 28.8124 91.6359 28.713C91.7353 28.6137 91.8029 28.487 91.8302 28.3491C91.8575 28.2113 91.8432 28.0684 91.7891 27.9387C91.7351 27.809 91.6437 27.6982 91.5266 27.6205C91.4096 27.5428 91.272 27.5016 91.1315 27.5022C91.0387 27.5022 90.9469 27.5205 90.8612 27.556C90.7755 27.5915 90.6976 27.6435 90.632 27.7091C90.5664 27.7747 90.5144 27.8526 90.4789 27.9383C90.4434 28.024 90.4251 28.1158 90.4251 28.2086Z" fill="white"/>
<path d="M93.9803 42.2549C94.3217 41.3654 94.4151 40.3998 94.2507 39.4614C94.2303 39.348 94.4076 39.3276 94.428 39.441C94.5944 40.4118 94.4939 41.4095 94.1373 42.3276C94.0966 42.4351 93.9338 42.3625 93.9745 42.2549H93.9803Z" fill="#10283B"/>
<path d="M100.713 52.019C91.3728 54.8882 86.152 50.0569 86.152 50.0569C88.2391 48.2808 89.2188 41.7693 88.8874 39.0106C88.6765 37.4744 88.7098 35.9145 88.9862 34.3887C89.617 34.1183 90.3554 33.7898 91.0443 33.4759C92.2826 32.9119 93.3698 32.4032 93.3698 32.4032L96.5267 32.1125C96.5267 32.1125 97.2883 32.3713 98.2709 32.7724C100.015 33.4759 102.454 34.6212 102.707 35.5863C103.021 36.781 100.713 41.0542 99.8929 45.0861C99.385 47.4238 99.6735 49.8642 100.713 52.019Z" fill="white"/>
<path d="M88.8757 35.0633C90.7827 36.1825 93.0239 36.9383 95.2331 36.322C96.8668 35.8627 98.2534 34.5372 98.5412 32.8831L98.3319 32.7988C98.0674 34.4848 96.5878 35.7842 94.9221 36.1767C92.8146 36.6679 90.7071 35.886 88.9077 34.8278C88.8961 34.9005 88.8874 34.9761 88.8757 35.0633Z" fill="#BADEFD"/>
<path d="M88.3816 45.1152C89.2833 45.0115 90.1278 44.6206 90.7905 44.0003C91.4531 43.3799 91.8987 42.563 92.0616 41.6701C92.2245 40.7771 92.096 39.8554 91.6951 39.0411C91.2942 38.2267 90.6421 37.5629 89.835 37.1474C89.71 37.0806 89.617 37.2782 89.742 37.3422C90.5041 37.7325 91.1215 38.3561 91.5043 39.122C91.887 39.888 92.015 40.7562 91.8696 41.6C91.7242 42.4437 91.313 43.219 90.696 43.8127C90.079 44.4064 89.2885 44.7874 88.4397 44.9001C88.4165 44.9525 88.399 45.028 88.3816 45.1152Z" fill="#BADEFD"/>
<path d="M100.448 39.2432C100.143 37.845 98.4308 37.4845 97.2854 38.0426C95.9454 38.6967 95.1779 40.1705 94.646 41.4902C93.614 44.0483 93.1925 47.1878 90.8932 49.0133C89.7856 49.8854 88.2915 50.3592 86.9078 49.9145C86.7741 49.8709 86.8148 49.6557 86.9485 49.6993C88.4194 50.1703 90.0007 49.586 91.0879 48.554C92.1751 47.5221 92.8321 46.0832 93.3175 44.6762C93.8524 43.1617 94.2506 41.5862 95.021 40.1647C95.6256 39.0484 96.5355 37.9235 97.829 37.6153C98.9744 37.345 100.39 37.9467 100.655 39.1705C100.684 39.3042 100.48 39.3798 100.448 39.2432Z" fill="#BADEFD"/>
<path d="M93.3175 49.4901C93.468 50.265 93.8203 50.9865 94.3389 51.5816C94.8574 52.1767 95.5239 52.6245 96.2709 52.8796C96.4744 52.8651 96.6808 52.8447 96.8901 52.8215C96.3384 52.7179 95.8132 52.5048 95.3453 52.1947C94.8775 51.8846 94.4766 51.4838 94.1664 51.0161C93.8562 50.5483 93.6429 50.0231 93.5392 49.4715C93.4355 48.9199 93.4434 48.3531 93.5626 47.8046C93.6818 47.2561 93.9098 46.7371 94.2331 46.2783C94.5563 45.8195 94.9683 45.4301 95.4447 45.1333C95.9211 44.8365 96.4521 44.6383 97.0064 44.5503C97.5608 44.4623 98.1271 44.4864 98.672 44.6211C98.8115 44.6531 98.8522 44.4379 98.7127 44.406C97.6806 44.1677 96.5976 44.2984 95.6517 44.7751C94.8123 45.2113 94.1336 45.9034 93.7139 46.7511C93.2942 47.5988 93.1554 48.5582 93.3175 49.4901Z" fill="#BADEFD"/>
<path d="M88.5996 51.3564C89.4862 49.9582 91.367 50.3884 92.4978 51.1994C93.0339 51.5847 93.4933 52.0668 93.8524 52.6209C93.9047 52.7052 93.9658 52.8011 94.0268 52.9116L94.2768 52.9261C94.265 52.9 94.2514 52.8748 94.2361 52.8505C93.8277 52.1019 93.2492 51.4597 92.5472 50.9756C91.2943 50.1035 89.3496 49.7867 88.4019 51.2663C88.3264 51.3796 88.524 51.4756 88.5996 51.3564Z" fill="#BADEFD"/>
<path d="M88.7508 37.1533C88.7508 37.1533 88.9543 38.2812 87.6839 39.8596C86.1491 41.7666 88.6054 43.7026 89.1374 44.2665C89.6694 44.8305 88.7508 37.1533 88.7508 37.1533Z" fill="white"/>
<path d="M94.2768 60.2631C95.3284 60.2657 96.3769 60.1477 97.4017 59.9113C98.2447 59.7456 99.0208 59.6207 99.858 59.423C102.07 58.8736 102.681 58.7079 103.428 58.362C103.306 57.8986 103.159 57.4424 102.986 56.9957C102.966 56.9347 102.945 56.8736 102.922 56.8126C102.652 56.0568 102.277 55.1847 101.87 54.1964C101.588 53.4835 101.4 52.7369 101.311 51.9755C100.846 48.3884 102.125 44.1123 102.785 42.0135C103.913 38.4206 103.995 36.3509 102.736 34.8742C101.884 33.8771 99.6604 32.8248 97.8668 32.3568L97.8145 32.3422L97.5761 32.2841C96.8726 32.1039 96.4133 31.9934 96.4133 31.9934C97.8465 33.5341 97.0296 38.0979 95.1023 41.063C92.9861 44.31 95.5325 47.3739 94.5471 50.5744C93.7448 53.1615 93.5646 58.487 94.2768 60.2631Z" fill="#5A91FF"/>
<path d="M99.7912 41.7723C99.7912 41.7723 103.701 48.3768 105.965 49.8041C108.349 51.3041 114.628 50.3564 114.628 50.3564V46.6966C114.628 46.6966 109.137 45.342 108.872 45.1036C107.204 43.6182 102.736 34.8684 102.736 34.8684C102.736 34.8684 99.2389 37.2666 99.7912 41.7723Z" fill="#5A91FF"/>
<path d="M108.814 45.0484L107.393 46.1356C107.306 46.2025 107.393 46.3536 107.48 46.2868L108.904 45.1996C108.992 45.1327 108.904 44.9816 108.814 45.0484Z" fill="#275CC7"/>
<path d="M108.465 45.2867L107.66 45.3564C107.547 45.3564 107.547 45.5425 107.66 45.5309L108.465 45.4611C108.576 45.4611 108.576 45.278 108.465 45.2867Z" fill="#275CC7"/>
<path d="M97.2854 51.3943C97.3882 52.3564 97.8561 53.2423 98.5927 53.8697C99.3293 54.497 100.278 54.8179 101.245 54.7663C101.37 54.7663 101.37 54.9524 101.245 54.9582C100.228 55.0068 99.2322 54.6646 98.4603 54.0019C97.6884 53.3392 97.1993 52.4062 97.0936 51.3943C97.0936 51.2722 97.2738 51.2722 97.2854 51.3943Z" fill="#275CC7"/>
<path d="M101.745 34.2172C101.196 34.3691 100.688 34.6394 100.256 35.0091C99.8232 35.3787 99.4771 35.8388 99.2418 36.3567C99.1895 36.4672 99.0238 36.3567 99.0761 36.2579C99.3246 35.7192 99.6873 35.241 100.139 34.8565C100.591 34.472 101.121 34.1904 101.692 34.0312C101.717 34.0243 101.743 34.0274 101.766 34.0399C101.788 34.0525 101.805 34.0734 101.812 34.0981C101.818 34.1227 101.815 34.1491 101.803 34.1715C101.79 34.1938 101.769 34.2103 101.745 34.2172Z" fill="#275CC7"/>
<path d="M94.646 57.9958C94.8146 58.3446 95.1721 58.5248 95.8436 58.6789C95.9489 58.6999 96.0561 58.7096 96.1634 58.708C96.8988 58.708 98.1343 58.3388 99.5296 57.9173C100.666 57.5526 101.819 57.2451 102.986 56.9958C102.966 56.9347 102.945 56.8737 102.922 56.8127C101.823 57.0249 100.611 57.394 99.4743 57.7341C97.9453 58.1963 96.4977 58.6295 95.8872 58.4929C95.1343 58.3213 94.8233 58.1469 94.7245 57.6411C94.6755 57.0597 94.6921 56.4747 94.7739 55.897C94.7913 55.6906 94.8117 55.4726 94.8291 55.2313C94.896 54.3796 95.021 53.5831 95.1372 52.8098C95.3814 51.214 95.614 49.7024 95.3756 47.8187C94.9454 44.3769 95.3378 42.8595 96.2128 41.2607C98.1197 37.7899 98.3494 35.3742 98.2069 33.9557C98.1589 33.4004 98.0245 32.8561 97.8087 32.3423L97.5703 32.2842C97.8175 32.8237 97.969 33.402 98.018 33.9934C98.1517 35.3829 97.922 37.7521 96.0471 41.1706C95.1518 42.8014 94.7477 44.3507 95.175 47.8565C95.4076 49.7111 95.175 51.2081 94.9367 52.7982C94.8175 53.5715 94.6954 54.3738 94.6285 55.2313C94.6082 55.4697 94.5907 55.6906 94.5733 55.8941C94.4977 56.9551 94.4425 57.5888 94.646 57.9958Z" fill="#275CC7"/>
<path d="M95.2884 46.6471C96.3035 47.1721 97.4779 47.2996 98.5819 47.0046C98.7098 46.9697 98.7825 47.1674 98.6517 47.1994C97.4953 47.5132 96.2632 47.3826 95.1983 46.8331C95.0791 46.7721 95.1692 46.5831 95.2884 46.6471Z" fill="#275CC7"/>
<path d="M86.8206 34.8335C86.8206 34.8335 81.3585 41.4147 79.9981 45.6733C78.6377 49.932 84.3294 48.4524 86.1462 45.092C87.963 41.7316 86.8206 34.8335 86.8206 34.8335Z" fill="#5A91FF"/>
<path d="M81.9312 57.0712C82.2219 58.7398 87.8235 60.6555 89.3554 60.8764C89.3554 60.8764 89.0182 52.2894 89.5531 49.5394C90.2159 46.118 89.6839 44.7082 90.6839 42.1007C91.6838 39.4932 88.9746 36.0514 92.9687 32.3916C92.9425 32.3916 92.1344 32.7172 91.1141 33.0834L90.8234 33.1852L90.6955 33.2288C89.7682 33.5544 88.7333 33.8916 87.963 34.0747C86.1694 34.4991 86.5444 36.1531 86.4892 38.345C86.434 40.5368 84.8323 41.8332 84.9776 43.5774C85.1724 45.9552 86.2596 47.0918 86.0241 48.8098C85.8584 50.022 83.7364 52.8155 82.6085 54.9405C82.5736 55.0073 82.5387 55.0713 82.5067 55.1381C82.0969 55.9317 81.8498 56.6207 81.9312 57.0712Z" fill="#5A91FF"/>
<path d="M86.6113 50.7837C86.4224 51.4988 86.2072 52.2778 85.6142 52.772C85.3507 52.9878 85.0379 53.1351 84.7038 53.2011C84.3696 53.267 84.0243 53.2494 83.6986 53.1499C83.6739 53.143 83.653 53.1265 83.6405 53.1042C83.6279 53.0818 83.6248 53.0554 83.6317 53.0307C83.6387 53.006 83.6551 52.9851 83.6775 52.9726C83.6998 52.9601 83.7262 52.9569 83.7509 52.9639C84.0746 53.0641 84.4194 53.0745 84.7486 52.9942C85.0778 52.9138 85.379 52.7456 85.62 52.5075C86.0852 52.0307 86.2625 51.3447 86.4253 50.7314C86.4322 50.7067 86.4487 50.6858 86.471 50.6732C86.4934 50.6607 86.5198 50.6576 86.5444 50.6645C86.5691 50.6714 86.59 50.6879 86.6026 50.7102C86.6151 50.7326 86.6182 50.759 86.6113 50.7837Z" fill="#275CC7"/>
<path d="M86.2595 37.8044C86.7915 40.095 84.2829 41.8276 84.6869 44.1298C84.7073 44.2519 84.8933 44.1996 84.87 44.0775C84.4718 41.7898 86.9834 40.0718 86.4456 37.755C86.4165 37.6329 86.2334 37.6852 86.2595 37.8044Z" fill="#275CC7"/>
<path d="M82.5038 55.1353C83.9864 57.2167 87.2334 58.6672 87.6055 58.83C87.6569 58.8523 87.7133 58.8606 87.769 58.8539C87.8247 58.8473 87.8776 58.826 87.9223 58.7922C87.967 58.7593 88.0019 58.7148 88.0234 58.6637C88.0448 58.6125 88.0521 58.5565 88.0444 58.5015C87.8642 57.1411 88.1694 53.8825 88.4427 51.0075C88.649 48.7867 88.8467 46.6908 88.7944 45.7518C88.7421 44.8129 89.0124 43.8653 89.2973 42.8682C89.6897 41.5019 90.1345 39.9613 89.7653 38.1764C89.4484 36.6561 90.3467 34.4847 91.1141 33.0894L90.8234 33.1911C90.1897 34.3771 89.2159 36.5631 89.5589 38.22C89.9194 39.9642 89.5008 41.4176 89.0967 42.8101C88.806 43.8275 88.5299 44.7867 88.5851 45.7635C88.6374 46.6879 88.4397 48.775 88.2334 50.9959C87.9601 53.8825 87.652 57.1556 87.838 58.5364C87.842 58.5562 87.8399 58.5767 87.8321 58.5954C87.8244 58.614 87.8112 58.6299 87.7944 58.6411C87.7792 58.6536 87.7608 58.6617 87.7413 58.6643C87.7217 58.6668 87.7019 58.6638 87.684 58.6556C87.3119 58.4928 84.0271 57.0277 82.6085 54.9435C82.5736 55.0103 82.5387 55.0743 82.5068 55.1412L82.5038 55.1353Z" fill="#275CC7"/>
<path d="M96.5791 30.6793C96.5791 30.6793 96.7476 29.0747 98.5819 27.566C100.416 26.0574 100.035 22.5342 97.547 21.2261C96.9075 20.8918 96.3145 20.886 95.9715 20.6447C93.7681 19.0779 91.4978 20.8104 90.4862 22.008C89.2943 23.4266 90.3437 24.5981 90.7391 25.787C91.1344 26.9759 96.5791 30.6793 96.5791 30.6793Z" fill="#10283B"/>
<path d="M95.6343 20.7988C95.6343 20.7988 94.7361 17.2349 98.4308 17.1187C102.125 17.0024 102.25 22.8656 97.9424 22.1447C97.9424 22.1505 96.2971 22.2116 95.6343 20.7988Z" fill="#10283B"/>
<path d="M95.646 20.4937C96.7303 20.769 97.7055 21.3671 98.4424 22.2088C98.5151 22.2931 98.6372 22.1681 98.5645 22.0838C97.8047 21.2264 96.8037 20.6184 95.6925 20.3397C95.5849 20.3135 95.5384 20.4821 95.646 20.5083V20.4937Z" fill="white"/>
<path d="M97.3378 33.0456C96.614 34.1473 92.5472 36.9932 92.7478 33.1066L92.9949 31.7549L93.2681 30.2811L93.4571 29.2492L96.6081 27.4614L97.3378 33.0456Z" fill="#FD945C"/>
<path d="M95.9134 29.1504C94.5675 31.6968 93.2739 32.5922 92.8524 32.5311L93.2681 30.2812L95.9134 29.1504Z" fill="#10283B"/>
<path d="M97.6023 26.7495C97.3116 27.7786 97.0209 28.1187 96.2477 29.1158C95.6384 29.8692 94.7676 30.3654 93.8088 30.5053C91.649 30.6739 90.6461 29.7989 90.9019 26.8658C91.0705 25.0461 90.5676 24.0316 91.0327 23.3281L91.1286 23.2351C91.8882 22.4985 92.9048 22.0866 93.9629 22.0869C99.2302 22.0433 98.0354 25.2728 97.6023 26.7495Z" fill="#FD945C"/>
<path d="M93.2884 26.4296C93.3618 26.3379 93.4628 26.2722 93.5764 26.2423C93.69 26.2125 93.8102 26.2201 93.9192 26.2639C94.0093 26.2959 94.0471 26.1534 93.9599 26.1186C93.8254 26.068 93.6785 26.0605 93.5395 26.0969C93.4005 26.1334 93.2762 26.212 93.1838 26.322C93.1227 26.3947 93.2274 26.5023 93.2884 26.4296Z" fill="#10283B"/>
<path d="M92.053 26.4296C91.9797 26.3379 91.8787 26.2722 91.765 26.2423C91.6514 26.2125 91.5312 26.2201 91.4222 26.2639C91.3321 26.2959 91.2943 26.1534 91.3815 26.1186C91.5161 26.068 91.6629 26.0605 91.8019 26.0969C91.9409 26.1334 92.0652 26.212 92.1577 26.322C92.2187 26.3947 92.1141 26.5023 92.053 26.4296Z" fill="#10283B"/>
<path d="M93.5617 27.6155L91.8408 27.6823C91.8408 27.6823 92.0792 28.5544 92.678 28.5777C93.2768 28.6009 93.5617 27.6155 93.5617 27.6155Z" fill="white"/>
<path d="M92.1838 25.3976C92.132 25.3547 92.0718 25.3234 92.007 25.3055C91.9422 25.2876 91.8744 25.2836 91.808 25.2937C91.7416 25.3039 91.678 25.328 91.6216 25.3644C91.5651 25.4008 91.517 25.4488 91.4803 25.5051C91.3786 25.6621 91.1141 25.5313 91.2158 25.3714C91.274 25.2758 91.352 25.1939 91.4446 25.1312C91.5373 25.0685 91.6423 25.0265 91.7526 25.008C91.863 24.9895 91.976 24.995 92.084 25.0241C92.192 25.0532 92.2925 25.1052 92.3786 25.1766C92.5268 25.2958 92.3321 25.5138 92.1838 25.3976Z" fill="#10283B"/>
<path d="M93.3902 25.3655C93.4431 25.3243 93.5042 25.2948 93.5695 25.279C93.6347 25.2632 93.7025 25.2614 93.7685 25.2738C93.8344 25.2861 93.897 25.3124 93.9521 25.3507C94.0071 25.3891 94.0534 25.4387 94.0878 25.4963C94.1838 25.6562 94.4541 25.5341 94.3553 25.3742C94.301 25.2752 94.2257 25.1891 94.1348 25.1221C94.0438 25.0551 93.9393 25.0088 93.8286 24.9864C93.7179 24.964 93.6036 24.966 93.4937 24.9923C93.3838 25.0186 93.2811 25.0686 93.1925 25.1388C93.0384 25.2522 93.2274 25.4789 93.3815 25.3655H93.3902Z" fill="#10283B"/>
<path d="M92.4484 27.293C92.352 27.2969 92.2581 27.2623 92.1872 27.1969C92.1163 27.1314 92.0743 27.0405 92.0705 26.9442C92.0666 26.8478 92.1012 26.7539 92.1666 26.683C92.232 26.6121 92.3229 26.5701 92.4193 26.5663L92.5356 26.2552C92.5425 26.2371 92.5564 26.2225 92.5741 26.2146C92.5918 26.2067 92.6119 26.2062 92.6301 26.2131C92.6482 26.22 92.6628 26.2339 92.6707 26.2516C92.6786 26.2693 92.6792 26.2894 92.6722 26.3076L92.5414 26.6564C92.537 26.6696 92.529 26.6813 92.5181 26.6901C92.5073 26.6988 92.4942 26.7043 92.4804 26.7058C92.4804 26.7058 92.2187 26.7349 92.2216 26.9325C92.2245 27.1302 92.4542 27.1448 92.4629 27.1477C92.4724 27.1484 92.4816 27.151 92.49 27.1554C92.4984 27.1598 92.5058 27.1658 92.5118 27.1732C92.5177 27.1805 92.5222 27.189 92.5248 27.1981C92.5274 27.2072 92.5281 27.2168 92.5269 27.2261C92.5261 27.2357 92.5235 27.245 92.5192 27.2536C92.5148 27.2621 92.5088 27.2697 92.5015 27.2759C92.4942 27.2821 92.4858 27.2868 92.4767 27.2898C92.4675 27.2927 92.4579 27.2938 92.4484 27.293Z" fill="#10283B"/>
<path d="M91.3902 22.3686C91.3902 22.3686 90.0153 23.4587 90.553 23.7871C91.0908 24.1156 93.2216 21.6011 95.2564 24.3685C95.7651 25.0545 95.3436 25.8801 96.6605 26.1592C97.9773 26.4382 98.236 26.2842 98.4656 25.1359C98.6953 23.9877 97.2854 21.4994 94.5733 21.511C91.8612 21.5227 91.3902 22.3686 91.3902 22.3686Z" fill="#10283B"/>
<path d="M92.989 22.7698C92.989 22.7698 93.3001 25.4006 96.0791 25.418C98.8581 25.4355 96.5616 21.642 92.989 22.7698Z" fill="#10283B"/>
<path d="M97.1227 23.4354C96.7096 23.5033 96.3199 23.6732 95.989 23.9296C95.9541 24.7203 95.425 26.8132 96.3117 27.0022C97.6314 27.2929 97.6372 28.2115 98.2389 25.9732C98.4657 25.1214 98.3872 23.9848 97.9715 23.3569C97.6895 23.3657 97.4076 23.3947 97.1227 23.4354Z" fill="#10283B"/>
<path d="M92.4251 29.1796C92.5249 29.2281 92.6365 29.2471 92.7467 29.2342C92.857 29.2213 92.9612 29.1771 93.0472 29.1069C93.1373 29.0284 93.0065 28.8918 92.9163 28.9703C92.8539 29.0159 92.78 29.0431 92.7029 29.0488C92.6258 29.0544 92.5487 29.0383 92.4803 29.0023C92.3669 28.9616 92.3146 29.1389 92.4251 29.1796Z" fill="#D4652D"/>
<path d="M94.9105 27.0255C94.9105 27.1796 94.6605 27.3016 94.3611 27.2929C94.0617 27.2842 93.8204 27.1505 93.8262 27.0022C93.832 26.854 94.0762 26.7261 94.3756 26.7348C94.675 26.7435 94.9163 26.8685 94.9105 27.0255Z" fill="#D4652D"/>
<path d="M91.8001 27.0923C91.8001 27.2463 91.5501 27.3655 91.2507 27.3568C91.1239 27.3563 90.9988 27.3275 90.8845 27.2725C90.8845 27.1417 90.9019 27.0051 90.9164 26.8626V26.8481C91.028 26.8072 91.1465 26.7885 91.2653 26.7929C91.5647 26.8016 91.8059 26.9382 91.8001 27.0923Z" fill="#D4652D"/>
<path d="M95.5413 27.5196C95.4866 27.3297 95.4755 27.13 95.5087 26.9352C95.5419 26.7404 95.6186 26.5557 95.7331 26.3946C96.0238 25.9702 96.5732 25.3162 97.0732 25.4005C97.8087 25.5226 97.8784 26.1824 97.7883 26.8539C97.6982 27.5254 97.236 28.3859 96.3174 28.2202C96.1333 28.1931 95.9613 28.1122 95.8232 27.9875C95.6851 27.8628 95.587 27.7 95.5413 27.5196Z" fill="#FD945C"/>
<path d="M96.3901 28.1592C96.3901 28.2997 96.4318 28.4369 96.5099 28.5536C96.5879 28.6703 96.6989 28.7612 96.8287 28.8148C96.9584 28.8684 97.1012 28.8823 97.2389 28.8547C97.3765 28.8271 97.5029 28.7592 97.602 28.6597C97.7011 28.5603 97.7684 28.4336 97.7954 28.2958C97.8225 28.158 97.808 28.0153 97.7539 27.8858C97.6998 27.7562 97.6084 27.6457 97.4914 27.5681C97.3743 27.4905 97.2369 27.4494 97.0965 27.45C97.0035 27.45 96.9114 27.4683 96.8255 27.504C96.7396 27.5397 96.6616 27.592 96.596 27.6579C96.5304 27.7238 96.4784 27.802 96.4431 27.888C96.4077 27.9741 96.3898 28.0662 96.3901 28.1592Z" fill="white"/>
<path d="M96.5035 27.4178C96.4524 27.1435 96.4704 26.8608 96.5559 26.5952C96.6489 26.3626 96.9105 26.0138 97.2128 26.1214C97.3117 26.1562 97.3814 26.0051 97.2797 25.9702C97.1398 25.936 96.9927 25.9475 96.8599 26.003C96.727 26.0584 96.6154 26.1549 96.5413 26.2783C96.326 26.6251 96.253 27.0418 96.3378 27.4411C96.3431 27.4607 96.3553 27.4778 96.3721 27.4891C96.389 27.5005 96.4094 27.5053 96.4295 27.5029C96.4497 27.5004 96.4683 27.4907 96.4819 27.4756C96.4955 27.4605 96.5032 27.4411 96.5035 27.4207V27.4178Z" fill="#10283B"/>
<path d="M94.0646 24.4761C94.3088 24.9682 94.6145 25.4272 94.9744 25.8423C95.6314 26.6504 95.3494 27.2696 95.1779 28.1155C94.9105 29.4091 96.3145 29.4091 96.3145 29.4091C96.3145 29.4091 95.3494 28.7318 95.986 27.3568C96.4628 26.3278 96.1924 24.8482 95.582 24.6796C95.0839 24.5633 94.5757 24.4951 94.0646 24.4761Z" fill="#10283B"/>
<path d="M76.6086 40.9524C76.6086 40.9524 76.3412 39.2083 76.6406 38.7112L77.1668 40.371L76.6086 40.9524Z" fill="#D4652D"/>
<path d="M80.3498 47.6413L87.588 48.1501C87.6585 48.1548 87.7291 48.1423 87.7936 48.1135C87.8581 48.0848 87.9146 48.0407 87.9582 47.985C88.0018 47.9294 88.0311 47.864 88.0436 47.7945C88.056 47.7249 88.0513 47.6534 88.0298 47.5861L84.5881 36.7027C84.5602 36.6221 84.5093 36.5516 84.4415 36.4999C84.3738 36.4482 84.2923 36.4176 84.2073 36.412L76.9691 35.9062C76.8987 35.9011 76.8281 35.9132 76.7635 35.9416C76.6989 35.97 76.6422 36.0138 76.5983 36.0691C76.5545 36.1244 76.5248 36.1896 76.5119 36.259C76.499 36.3283 76.5033 36.3998 76.5243 36.4672L79.9661 47.3536C79.9946 47.434 80.0462 47.5042 80.1145 47.5554C80.1827 47.6066 80.2646 47.6365 80.3498 47.6413Z" fill="#10283B"/>
<path d="M79.626 47.5917L86.8642 48.0975C86.9345 48.1028 87.0051 48.0907 87.0697 48.0623C87.1343 48.034 87.1909 47.9901 87.2345 47.9347C87.2782 47.8793 87.3076 47.8139 87.32 47.7445C87.3325 47.6751 87.3277 47.6036 87.306 47.5365L83.8671 36.653C83.8391 36.572 83.7877 36.5012 83.7194 36.4494C83.6511 36.3977 83.569 36.3674 83.4834 36.3623L76.2452 35.8536C76.1773 35.8501 76.1096 35.8626 76.0474 35.8901C75.9852 35.9177 75.9304 35.9594 75.8874 36.0121C75.8444 36.0647 75.8144 36.1268 75.7998 36.1932C75.7852 36.2596 75.7864 36.3285 75.8034 36.3943L79.2423 47.2778C79.2668 47.3629 79.3166 47.4385 79.3852 47.4946C79.4537 47.5506 79.5377 47.5845 79.626 47.5917Z" fill="#10283B"/>
<path d="M87.0124 46.6965H87.0415C87.0553 46.6941 87.0684 46.6887 87.0798 46.6805C87.0911 46.6723 87.1005 46.6617 87.1072 46.6494C87.114 46.6371 87.1178 46.6235 87.1185 46.6095C87.1192 46.5955 87.1167 46.5815 87.1112 46.5686L84.0648 36.9351C84.0574 36.9109 84.0407 36.8906 84.0184 36.8786C83.9961 36.8666 83.9699 36.8639 83.9456 36.8712C83.9333 36.8748 83.9218 36.8809 83.9119 36.8891C83.9019 36.8972 83.8938 36.9073 83.8878 36.9187C83.8818 36.9301 83.8782 36.9426 83.8772 36.9554C83.8761 36.9682 83.8776 36.9811 83.8817 36.9933L86.9281 46.6268C86.9337 46.6454 86.9447 46.662 86.9597 46.6744C86.9747 46.6868 86.9931 46.6945 87.0124 46.6965Z" fill="#2E4970"/>
<path d="M80.5068 54.5482C79.7816 54.0906 79.227 53.4073 78.9283 52.6035C77.6318 49.2024 77.158 44.8769 77.7917 44.3072C78.4748 43.6938 79.7917 44.7171 79.7917 44.7171L81.5532 47.7315L86.0822 48.0513C86.0822 48.0513 86.431 50.0047 83.966 53.243C82.6114 54.929 81.4835 55.1587 80.5068 54.5482Z" fill="#5A91FF"/>
<path d="M82.6782 54.3882C82.2828 53.967 81.776 53.6666 81.2167 53.522C80.6573 53.3774 80.0684 53.3945 79.5184 53.5714C79.3992 53.6092 79.3498 53.4231 79.4661 53.3853C80.0498 53.2009 80.6737 53.1849 81.2661 53.3391C81.8585 53.4934 82.3953 53.8117 82.8149 54.2574C82.8992 54.3475 82.7625 54.4841 82.6782 54.394V54.3882Z" fill="#275CC7"/>
<path d="M85.3352 48.022C84.7757 50.1019 84.0073 52.1199 83.0416 54.0451C82.9864 54.1556 83.1521 54.2544 83.2073 54.141C84.1784 52.2011 84.9498 50.1674 85.5096 48.0714C85.5161 48.0467 85.5126 48.0205 85.4998 47.9984C85.487 47.9763 85.466 47.9602 85.4413 47.9537C85.4166 47.9471 85.3903 47.9506 85.3683 47.9634C85.3462 47.9762 85.3301 47.9973 85.3236 48.022H85.3352Z" fill="#275CC7"/>
<path d="M81.5649 47.8709C81.9962 48.4995 82.3185 49.1962 82.5183 49.9319C82.5249 49.9566 82.541 49.9776 82.563 49.9904C82.5851 50.0032 82.6114 50.0067 82.6361 50.0002C82.6607 49.9936 82.6818 49.9776 82.6946 49.9555C82.7074 49.9334 82.7109 49.9071 82.7044 49.8825C82.5011 49.1305 82.1729 48.4181 81.7335 47.775C81.6637 47.6732 81.4951 47.775 81.5649 47.8709Z" fill="#275CC7"/>
<path d="M79.7422 45.0456C79.7422 45.0456 79.9312 44.2985 79.7248 42.6154C80.1552 41.8457 80.4881 41.0255 80.7161 40.1736C81.0329 38.598 79.1987 41.4555 79.1987 41.4555C79.1987 41.4555 80.7858 38.9643 80.5126 38.4149C80.2393 37.8655 78.3963 40.8771 78.3963 40.8771C78.3963 40.8771 80.062 38.3132 79.7917 37.7667C79.5213 37.2202 77.7568 40.3073 77.7568 40.3073C77.7568 40.3073 78.8992 37.6388 78.687 37.3219C78.4748 37.0051 77.1115 39.6474 76.7685 40.3277C76.4255 41.0079 77.2714 43.97 78.0097 45.3711C78.5824 46.5019 79.7422 45.0456 79.7422 45.0456Z" fill="#FD945C"/>
<path d="M80.4486 45.7402C80.1651 46.1893 79.7545 46.5439 79.2691 46.7592C78.7836 46.9745 78.2451 47.0408 77.722 46.9495C77.5999 46.9262 77.6522 46.7402 77.7743 46.7635C78.2565 46.845 78.7521 46.782 79.1985 46.5823C79.645 46.3826 80.0223 46.0552 80.2829 45.6414C80.3498 45.5367 80.5155 45.6414 80.4486 45.7402Z" fill="white"/>
<path d="M98.6168 40.685L101.739 45.0831C101.746 45.0935 101.755 45.1022 101.766 45.109C101.777 45.1157 101.788 45.1203 101.801 45.1225C101.813 45.1246 101.826 45.1243 101.838 45.1216C101.851 45.1188 101.862 45.1137 101.873 45.1064C101.883 45.0991 101.892 45.0899 101.898 45.0793C101.905 45.0686 101.91 45.0568 101.912 45.0444C101.914 45.0319 101.914 45.0192 101.911 45.0069C101.908 44.9946 101.903 44.983 101.896 44.9727L98.7738 40.5716C98.7664 40.5613 98.757 40.5526 98.7461 40.5459C98.7353 40.5392 98.7233 40.5348 98.7107 40.5327C98.6982 40.5307 98.6854 40.5312 98.673 40.5341C98.6606 40.537 98.6489 40.5424 98.6386 40.5498C98.6283 40.5573 98.6196 40.5667 98.6129 40.5775C98.6062 40.5883 98.6018 40.6003 98.5997 40.6129C98.5977 40.6254 98.5982 40.6383 98.6011 40.6506C98.6041 40.663 98.6094 40.6747 98.6168 40.685Z" fill="#275CC7"/>
<path d="M96.3901 25.6389C95.3436 25.8046 94.4076 27.5633 94.3756 27.6505L94.6111 27.7348C94.6111 27.7174 95.4221 26.229 96.1517 25.8715L96.3901 25.6389Z" fill="white"/>
<path d="M94.5151 30.1387L94.6576 30.348C95.3163 29.9683 95.9331 29.5201 96.4976 29.0108C96.9104 28.6126 97.5732 28.0864 97.5441 27.5574C97.4623 27.6842 97.3555 27.793 97.2302 27.8771C97.0993 28.0525 96.9576 28.2195 96.8058 28.3771C96.0812 29.0134 95.3161 29.6018 94.5151 30.1387Z" fill="white"/>
<path d="M92.2623 26.5748C92.2969 26.5527 92.3357 26.5382 92.3763 26.5322C92.4169 26.5262 92.4583 26.5288 92.4978 26.54C92.9571 26.6679 94.5646 27.1678 94.8233 27.9934C95.082 28.819 95.3843 30.1416 94.5064 30.5108C93.6286 30.88 92.2478 31.1212 91.4338 30.0544C90.774 29.1823 90.774 28.1795 91.1025 27.6707C91.4079 27.2281 91.8031 26.8548 92.2623 26.5748Z" fill="#5A91FF"/>
<path d="M92.8698 27.8104C92.5783 27.8721 92.2782 27.8819 91.9832 27.8394C91.8873 27.8394 91.9367 27.6737 92.0356 27.6883C92.3024 27.7273 92.5741 27.7185 92.8379 27.6621C92.8575 27.6579 92.8781 27.6616 92.895 27.6725C92.9119 27.6834 92.9237 27.7006 92.928 27.7202C92.9322 27.7399 92.9285 27.7604 92.9176 27.7773C92.9067 27.7942 92.8895 27.8061 92.8698 27.8104Z" fill="#275CC7"/>
<path d="M93.5733 28.3684C92.8855 28.5649 92.1565 28.5649 91.4687 28.3684C91.3757 28.3423 91.4251 28.1882 91.5181 28.2173C92.1829 28.4087 92.8882 28.4087 93.553 28.2173C93.5627 28.2152 93.5728 28.215 93.5826 28.2168C93.5924 28.2186 93.6017 28.2223 93.6101 28.2277C93.6184 28.2331 93.6257 28.2401 93.6313 28.2482C93.637 28.2564 93.641 28.2657 93.6431 28.2754C93.6452 28.2851 93.6453 28.2952 93.6436 28.305C93.6418 28.3148 93.6381 28.3241 93.6327 28.3325C93.6273 28.3409 93.6203 28.3481 93.6121 28.3537C93.6039 28.3594 93.5947 28.3634 93.5849 28.3655L93.5733 28.3684Z" fill="#275CC7"/>
<path d="M93.6809 29.0777C92.9724 29.2814 92.2209 29.2814 91.5124 29.0777C91.4193 29.0487 91.4687 28.8975 91.5618 28.9237C92.2419 29.1253 92.965 29.1324 93.6489 28.944C93.6591 28.9398 93.6701 28.9379 93.6812 28.9384C93.6922 28.9388 93.703 28.9417 93.7128 28.9468C93.7226 28.952 93.7312 28.9592 93.7379 28.9679C93.7446 28.9767 93.7493 28.9868 93.7517 28.9976C93.754 29.0084 93.754 29.0196 93.7516 29.0304C93.7492 29.0411 93.7444 29.0513 93.7377 29.06C93.731 29.0688 93.7224 29.0759 93.7126 29.081C93.7027 29.0861 93.6919 29.0889 93.6809 29.0894V29.0777Z" fill="#275CC7"/>
<path d="M93.6983 29.8336C92.9858 30.0727 92.2119 30.0531 91.5123 29.7784C91.4251 29.7435 91.5123 29.604 91.5995 29.6389C92.2604 29.897 92.991 29.9145 93.6634 29.6883C93.7623 29.6563 93.7971 29.8045 93.6983 29.8336Z" fill="#275CC7"/>
<path d="M110.35 29.4684L108.707 40.8943L113.409 41.5701L115.051 30.1442L110.35 29.4684Z" fill="white"/>
<path d="M110.948 30.6475C112.43 30.9643 113.829 31.2463 114.875 31.3829L114.925 31.0428C113.855 30.8713 112.462 30.7463 110.948 30.6475Z" fill="#BADEFD"/>
<path d="M110.657 32.7463C112.14 33.0632 113.538 33.3452 114.584 33.4818L114.634 33.1417C113.538 32.9673 112.16 32.8452 110.657 32.7463Z" fill="#BADEFD"/>
<path d="M109.736 39.124C111.215 39.4409 112.616 39.7228 113.66 39.8624L113.709 39.5194C112.622 39.3449 111.239 39.2229 109.736 39.124Z" fill="#BADEFD"/>
<path d="M109.596 34.7637L109.555 35.0544C110.285 35.127 111.093 35.1939 111.928 35.2549C111.105 35.0631 110.32 34.8974 109.596 34.7637Z" fill="#BADEFD"/>
<path d="M109.303 36.8159L109.262 37.1066C109.992 37.1793 110.797 37.2432 111.631 37.3072C110.808 37.1153 110.026 36.9496 109.303 36.8159Z" fill="#BADEFD"/>
<path d="M108.65 71.763L111.484 72.1704L115.831 41.9296L112.997 41.5222L108.65 71.763Z" fill="#24318E"/>
<path d="M114.901 47.9757C114.901 47.9757 112.907 48.1908 112.66 48.6472C112.413 49.1036 114.459 49.1733 114.459 49.1733C114.459 49.1733 113.297 49.3332 113.035 49.6588C112.773 49.9844 114.308 50.1908 114.308 50.1908C114.308 50.1908 113.529 50.3303 113.57 50.7721C113.611 51.214 113.933 51.3128 114.384 51.3535C114.57 51.3682 114.757 51.3391 114.929 51.2684C115.102 51.1977 115.256 51.0875 115.378 50.9466C115.52 50.7489 115.302 50.3332 115.302 50.3332C115.302 50.3332 115.986 49.8419 115.968 49.5541C115.959 49.4662 115.932 49.3811 115.888 49.3044C115.844 49.2278 115.784 49.1613 115.712 49.1094C115.816 49.0709 115.908 49.0071 115.98 48.9238C116.052 48.8405 116.102 48.7404 116.125 48.6327C116.151 48.539 116.152 48.4405 116.13 48.346C116.108 48.2516 116.062 48.1643 115.997 48.092C115.997 48.092 116.044 47.5513 116.079 47.1647C116.114 46.778 115.395 46.6036 114.959 46.4379C114.523 46.2722 114.108 47.0513 113.48 47.31C113.48 47.31 113.189 47.5687 113.579 47.7606C113.968 47.9524 114.506 47.7402 114.675 47.7286C114.843 47.717 114.901 47.9757 114.901 47.9757Z" fill="#FD945C"/>
<path d="M112.934 41.9654L115.768 42.3728L117.653 29.2608L114.819 28.8534L112.934 41.9654Z" fill="#275CC7"/>
<path d="M100.43 118.841L105.799 119.613L113.244 67.8151L107.875 67.0433L100.43 118.841Z" fill="#275CC7"/>
</svg>
