<svg width="12" height="14" viewBox="0 0 12 14" fill="none" xmlns="http://www.w3.org/2000/svg">
<path d="M6.00008 6.99998C5.26675 6.99998 4.66675 6.39998 4.66675 5.66665C4.66675 4.93331 5.26675 4.33331 6.00008 4.33331C6.73341 4.33331 7.33341 4.93331 7.33341 5.66665C7.33341 6.39998 6.73341 6.99998 6.00008 6.99998ZM10.0001 5.79998C10.0001 3.37998 8.23341 1.66665 6.00008 1.66665C3.76675 1.66665 2.00008 3.37998 2.00008 5.79998C2.00008 7.35998 3.30008 9.42665 6.00008 11.8933C8.70008 9.42665 10.0001 7.35998 10.0001 5.79998ZM6.00008 0.333313C8.80008 0.333313 11.3334 2.47998 11.3334 5.79998C11.3334 8.01331 9.55341 10.6333 6.00008 13.6666C2.44675 10.6333 0.666748 8.01331 0.666748 5.79998C0.666748 2.47998 3.20008 0.333313 6.00008 0.333313Z" fill="#000"/>
</svg>
