<svg width="104" height="71" viewBox="0 0 104 71" fill="none" xmlns="http://www.w3.org/2000/svg">
<path d="M69.5826 21.5391C72.5565 15.8 74.5392 10.7913 73.9652 9.06954C73.8087 8.70433 73.5478 8.39128 73.1305 8.28693C72.087 7.97389 70.1565 8.65215 64.2609 12.9826C60.6609 7.19128 55.7565 0.043457 52.1565 0.043457H52.1044C49.0783 0.0956309 44.4348 6.51302 41.0957 11.8348L42.3478 12.6174C47.4609 4.47824 50.7478 1.5565 52.1565 1.50433C52.1565 1.50433 52.1565 1.50433 52.2087 1.50433C53.4609 1.50433 56.5391 3.17389 63.1131 13.8695C59.8783 16.2695 56.1218 19.2435 52.4174 22.1652C39.8957 12.7217 33.7391 8.33911 31.7565 8.7565C31.3913 8.80867 31.1305 9.01737 30.9739 9.27824C30.7131 9.74781 29.8261 11.1565 34.4696 20.3913C34.7305 20.913 35.0435 21.4869 35.3565 22.0608C32.2261 28.2695 28.9392 36.0956 31.1826 37.6087C31.3913 37.7652 31.6522 37.8174 32.0174 37.8174C33.3218 37.8174 35.8261 36.5652 41.4087 32.4435C45.4261 38.7565 49.7565 44.4956 52.0522 44.7043C52.1044 44.7043 52.1565 44.7043 52.2087 44.7043C53.1478 44.7043 54.7652 44.0261 58.4696 39.2782C61.6522 35.2087 65.6174 28.8956 68.8 23.0522C71.8261 28.9478 74.1218 35.1565 73.9131 36.6174C73.4435 36.6174 71.6696 36.0435 65.6174 31.8174L64.7826 33.0174C70.4696 36.9826 72.7652 38.0782 74.0174 38.0782C74.2261 38.0782 74.3826 38.0261 74.5391 38.0261C74.9044 37.9217 75.1652 37.6087 75.3218 37.2435C75.8435 35.313 72.9218 27.8522 69.5826 21.5391ZM32.1218 10.1652C33.1131 10.2174 35.9305 11.9913 39.4261 14.4435C39.0087 15.1739 37.6522 17.5217 36.1392 20.4956C32.9565 14.2869 31.9652 11 32.1218 10.1652ZM31.9652 36.4087C31.2348 35.7304 32.7478 30.6174 36.1913 23.6261C37.4957 25.9739 39.0087 28.6348 40.6261 31.2435C33.8957 36.2 32.2783 36.513 31.9652 36.4087ZM57.2696 38.4435C53.5131 43.2956 52.2609 43.2956 52.1565 43.2956C50.1218 43.0869 43.0261 33.2782 37.287 22.6348C37.1826 22.4261 37.0783 22.2174 36.9739 22.0087C38.0696 19.8695 39.2696 17.6261 40.6783 15.2782C44.0174 17.6782 47.8783 20.5478 51.2174 23.0522C48.4522 25.2435 45.687 27.4348 43.1305 29.3652L44.0174 30.513C46.6783 28.4782 49.5478 26.1826 52.4174 23.9391C55.7565 26.4435 59.2 29.0522 62.2783 31.2435C60.6087 33.9043 58.887 36.3565 57.2696 38.4435ZM63.0087 30.0435C60.0348 27.9043 56.7478 25.4522 53.5652 23C57.3739 19.9739 61.287 16.8956 64.5739 14.4956C70.4696 10.1652 72.1391 9.64346 72.6087 9.64346C72.8696 11 71.2522 15.0695 68.7478 20.0261C67.8087 18.3043 66.8174 16.7391 65.9305 15.4348L64.7305 16.2695C65.8261 17.8348 66.9218 19.6608 67.9652 21.5391C66.4522 24.3043 64.7826 27.2261 63.0087 30.0435Z" fill="#000"/>
<path d="M0.869629 56.9131H2.38267L5.9305 67.8696L9.37398 56.8609H10.5218L13.9653 67.8696L17.5131 56.9131H19.0262L14.5914 70.1653H13.3914L9.94789 59.5218L6.50441 70.1653H5.30441L0.869629 56.9131Z" fill="#000"/>
<path d="M19.3914 63.5392C19.3914 59.887 22.0001 56.7044 25.7566 56.7044C29.5653 56.7044 32.1218 59.8348 32.1218 63.487V63.5392C32.1218 67.1392 29.5131 70.3218 25.7566 70.3218C21.9479 70.3218 19.3914 67.1913 19.3914 63.5392ZM30.6609 63.5392C30.6609 60.5131 28.574 58.0609 25.7566 58.0609C22.9392 58.0609 20.8522 60.4609 20.8522 63.4348V63.487C20.8522 66.4609 22.9392 68.9131 25.7566 68.9131C28.574 68.9131 30.6609 66.5131 30.6609 63.5392Z" fill="#000"/>
<path d="M34 56.9131H39.3739C40.887 56.9131 42.1391 57.3826 42.9217 58.2174C43.5478 58.8435 43.8609 59.7826 43.8609 60.8261V60.8783C43.8609 63.0696 42.4522 64.3218 40.4696 64.687L44.3304 70.0609H42.6087L39.0087 64.9478H35.4609V70.0609H34.0522V56.9131H34ZM39.2696 63.6435C41.1478 63.6435 42.5044 62.6522 42.5044 60.9305V60.8783C42.5044 59.2609 41.3044 58.2696 39.3217 58.2696H35.4609V63.5913H39.2696V63.6435Z" fill="#000"/>
<path d="M46.2087 56.9131H47.6174V64.7391L54.7652 56.9131H56.5913L51.2174 62.6522L56.8 70.0609H55.0261L50.2261 63.6957L47.5652 66.5131V70.0609H46.1565V56.9131H46.2087Z" fill="#000"/>
<path d="M62.5392 56.8609H65.0957L70.4696 70.1131H67.5479L66.4001 67.1392H61.1305L59.9827 70.1131H57.1653L62.5392 56.8609ZM65.4088 64.5826L63.7392 60.3044L62.0696 64.5826H65.4088Z" fill="#000"/>
<path d="M82.6262 56.9131L78.4523 63.3304L82.7827 70.0609H79.5479L76.7305 65.5739L73.9131 70.0609H70.7827L75.1132 63.3826L70.9392 56.9131H74.174L76.7827 61.1913L79.4436 56.9131H82.6262Z" fill="#000"/>
<path d="M83.9827 56.9131H86.7479V67.4522H92.9566V70.0609H83.9827V56.9131V56.9131Z" fill="#000"/>
<path d="M94.1045 56.9131H103.548V59.4696H96.8697V62.1305H102.765V64.687H96.8697V67.4522H103.652V70.0087H94.1567V56.9131H94.1045Z" fill="#000"/>
</svg>
