<svg width="24" height="25" viewBox="0 0 24 25" fill="none" xmlns="http://www.w3.org/2000/svg">
<path d="M18 10.0999C19.9882 10.0999 21.6 8.48813 21.6 6.4999C21.6 4.51168 19.9882 2.8999 18 2.8999C16.0118 2.8999 14.4 4.51168 14.4 6.4999C14.4 6.65048 14.4093 6.79891 14.4272 6.94463L8.49913 9.90868C7.85166 9.28408 6.97071 8.8999 6.00002 8.8999C4.0118 8.8999 2.40002 10.5117 2.40002 12.4999C2.40002 14.4881 4.0118 16.0999 6.00002 16.0999C6.97073 16.0999 7.8517 15.7157 8.49917 15.0911L14.4272 18.0551C14.4093 18.2009 14.4 18.3493 14.4 18.4999C14.4 20.4881 16.0118 22.0999 18 22.0999C19.9882 22.0999 21.6 20.4881 21.6 18.4999C21.6 16.5117 19.9882 14.8999 18 14.8999C17.0293 14.8999 16.1484 15.2841 15.5009 15.9087L9.57282 12.9446C9.59077 12.7989 9.60002 12.6505 9.60002 12.4999C9.60002 12.3493 9.59077 12.2009 9.57281 12.0551L15.5009 9.09109C16.1483 9.71571 17.0293 10.0999 18 10.0999Z" fill="#555B6E"/>
</svg>
