<svg width="24" height="24" viewBox="0 0 24 24" fill="none" xmlns="http://www.w3.org/2000/svg">
<g clip-path="url(#clip0_1290_1025)">
<circle cx="12" cy="12" r="12" fill="white"/>
<path fill-rule="evenodd" clip-rule="evenodd" d="M17.9907 22.4C16.2278 23.4177 14.1819 24 12 24C9.81812 24 7.77225 23.4177 6.00932 22.4H17.9907ZM21.9793 18.6667C21.5284 19.3402 21.0112 19.9655 20.437 20.5333H3.56304C2.9888 19.9655 2.47158 19.3402 2.02073 18.6667H21.9793ZM23.6389 14.9333C23.477 15.5778 23.2629 16.2016 23.0015 16.8H0.998505C0.737069 16.2016 0.523019 15.5778 0.361099 14.9333H23.6389ZM0 12C0 12.3595 0.0158056 12.7152 0.0467597 13.0667H23.9532C23.9842 12.7152 24 12.3595 24 12C24 11.7312 23.9912 11.4644 23.9738 11.2H12V12H0ZM12 9.33333H23.7026C23.5567 8.68994 23.359 8.06619 23.1142 7.46666H12V9.33333ZM12 5.6L22.1527 5.6V5.6C21.7295 4.93008 21.2419 4.30495 20.6984 3.73333L20.6984 3.73333L12 3.73333V5.6ZM12 0C14.3659 0 16.5718 0.684665 18.4306 1.86667H12V0Z" fill="#E94B35"/>
<path fill-rule="evenodd" clip-rule="evenodd" d="M12 0C5.37258 0 0 5.37258 0 12H12V0Z" fill="#227FBB"/>
<g clip-path="url(#clip1_1290_1025)">
<path fill-rule="evenodd" clip-rule="evenodd" d="M7.78853 11.1283L7.42477 11.3333L7.49424 10.8991L7.19995 10.5917L7.60665 10.5283L7.78853 10.1333L7.97041 10.5283L8.37711 10.5917L8.08282 10.8991L8.15229 11.3333L7.78853 11.1283Z" fill="white"/>
<path fill-rule="evenodd" clip-rule="evenodd" d="M4.58858 11.1283L4.22482 11.3333L4.29429 10.8991L4 10.5917L4.4067 10.5283L4.58858 10.1333L4.77046 10.5283L5.17716 10.5917L4.88287 10.8991L4.95234 11.3333L4.58858 11.1283Z" fill="white"/>
<path fill-rule="evenodd" clip-rule="evenodd" d="M1.52193 11.1283L1.15817 11.3333L1.22764 10.8991L0.93335 10.5917L1.34005 10.5283L1.52193 10.1333L1.70381 10.5283L2.11051 10.5917L1.81622 10.8991L1.88569 11.3333L1.52193 11.1283Z" fill="white"/>
<path fill-rule="evenodd" clip-rule="evenodd" d="M10.7219 10.8617L10.3581 11.0667L10.4276 10.6325L10.1333 10.3251L10.54 10.2617L10.7219 9.8667L10.9038 10.2617L11.3105 10.3251L11.0162 10.6325L11.0856 11.0667L10.7219 10.8617Z" fill="white"/>
<path fill-rule="evenodd" clip-rule="evenodd" d="M6.18868 10.0617L5.82492 10.2667L5.89439 9.83249L5.6001 9.52501L6.0068 9.46167L6.18868 9.06665L6.37056 9.46167L6.77726 9.52501L6.48297 9.83249L6.55244 10.2667L6.18868 10.0617Z" fill="white"/>
<path fill-rule="evenodd" clip-rule="evenodd" d="M2.98848 10.0617L2.62472 10.2667L2.69419 9.83249L2.3999 9.52501L2.8066 9.46167L2.98848 9.06665L3.17036 9.46167L3.57706 9.52501L3.28277 9.83249L3.35225 10.2667L2.98848 10.0617Z" fill="white"/>
<path fill-rule="evenodd" clip-rule="evenodd" d="M9.12203 9.79506L8.75826 10L8.82774 9.56589L8.53345 9.25841L8.94015 9.19506L9.12203 8.80005L9.30391 9.19506L9.71061 9.25841L9.41632 9.56589L9.48579 10L9.12203 9.79506Z" fill="white"/>
<path fill-rule="evenodd" clip-rule="evenodd" d="M4.32198 9.26162L3.95822 9.4666L4.02769 9.03244L3.7334 8.72496L4.1401 8.66162L4.32198 8.2666L4.50386 8.66162L4.91056 8.72496L4.61627 9.03244L4.68574 9.4666L4.32198 9.26162Z" fill="white"/>
<path fill-rule="evenodd" clip-rule="evenodd" d="M1.52193 8.99501L1.15817 9.2L1.22764 8.76583L0.93335 8.45836L1.34005 8.39501L1.52193 8L1.70381 8.39501L2.11051 8.45836L1.81622 8.76583L1.88569 9.2L1.52193 8.99501Z" fill="white"/>
<path fill-rule="evenodd" clip-rule="evenodd" d="M7.78853 8.86172L7.42477 9.0667L7.49424 8.63254L7.19995 8.32506L7.60665 8.26171L7.78853 7.8667L7.97041 8.26171L8.37711 8.32506L8.08282 8.63254L8.15229 9.0667L7.78853 8.86172Z" fill="white"/>
<path fill-rule="evenodd" clip-rule="evenodd" d="M10.7219 8.59487L10.3581 8.79985L10.4276 8.36569L10.1333 8.05821L10.54 7.99487L10.7219 7.59985L10.9038 7.99487L11.3105 8.05821L11.0162 8.36569L11.0856 8.79985L10.7219 8.59487Z" fill="white"/>
<path fill-rule="evenodd" clip-rule="evenodd" d="M6.18868 7.92837L5.82492 8.13335L5.89439 7.69919L5.6001 7.39171L6.0068 7.32837L6.18868 6.93335L6.37056 7.32837L6.77726 7.39171L6.48297 7.69919L6.55244 8.13335L6.18868 7.92837Z" fill="white"/>
<path fill-rule="evenodd" clip-rule="evenodd" d="M2.98848 7.92837L2.62472 8.13335L2.69419 7.69919L2.3999 7.39171L2.8066 7.32837L2.98848 6.93335L3.17036 7.32837L3.57706 7.39171L3.28277 7.69919L3.35225 8.13335L2.98848 7.92837Z" fill="white"/>
<path fill-rule="evenodd" clip-rule="evenodd" d="M9.12203 7.66152L8.75826 7.86651L8.82774 7.43234L8.53345 7.12486L8.94015 7.06152L9.12203 6.6665L9.30391 7.06152L9.71061 7.12486L9.41632 7.43234L9.48579 7.86651L9.12203 7.66152Z" fill="white"/>
<path fill-rule="evenodd" clip-rule="evenodd" d="M7.78853 6.72841L7.42477 6.9334L7.49424 6.49923L7.19995 6.19176L7.60665 6.12841L7.78853 5.7334L7.97041 6.12841L8.37711 6.19176L8.08282 6.49923L8.15229 6.9334L7.78853 6.72841Z" fill="white"/>
<path fill-rule="evenodd" clip-rule="evenodd" d="M4.58858 6.72841L4.22482 6.9334L4.29429 6.49923L4 6.19176L4.4067 6.12841L4.58858 5.7334L4.77046 6.12841L5.17716 6.19176L4.88287 6.49923L4.95234 6.9334L4.58858 6.72841Z" fill="white"/>
<path fill-rule="evenodd" clip-rule="evenodd" d="M10.7219 6.46157L10.3581 6.66655L10.4276 6.23239L10.1333 5.92491L10.54 5.86157L10.7219 5.46655L10.9038 5.86157L11.3105 5.92491L11.0162 6.23239L11.0856 6.66655L10.7219 6.46157Z" fill="white"/>
<path fill-rule="evenodd" clip-rule="evenodd" d="M3.12203 5.92837L2.75826 6.13335L2.82774 5.69919L2.53345 5.39171L2.94015 5.32837L3.12203 4.93335L3.30391 5.32837L3.71061 5.39171L3.41632 5.69919L3.48579 6.13335L3.12203 5.92837Z" fill="white"/>
<path fill-rule="evenodd" clip-rule="evenodd" d="M6.18868 5.79506L5.82492 6.00005L5.89439 5.56588L5.6001 5.25841L6.0068 5.19506L6.18868 4.80005L6.37056 5.19506L6.77726 5.25841L6.48297 5.56588L6.55244 6.00005L6.18868 5.79506Z" fill="white"/>
<path fill-rule="evenodd" clip-rule="evenodd" d="M9.12203 5.52822L8.75826 5.7332L8.82774 5.29904L8.53345 4.99156L8.94015 4.92822L9.12203 4.5332L9.30391 4.92822L9.71061 4.99156L9.41632 5.29904L9.48579 5.7332L9.12203 5.52822Z" fill="white"/>
<path fill-rule="evenodd" clip-rule="evenodd" d="M7.78853 4.59487L7.42477 4.79985L7.49424 4.36569L7.19995 4.05821L7.60665 3.99487L7.78853 3.59985L7.97041 3.99487L8.37711 4.05821L8.08282 4.36569L8.15229 4.79985L7.78853 4.59487Z" fill="white"/>
<path fill-rule="evenodd" clip-rule="evenodd" d="M4.58858 4.59487L4.22482 4.79985L4.29429 4.36569L4 4.05821L4.4067 3.99487L4.58858 3.59985L4.77046 3.99487L5.17716 4.05821L4.88287 4.36569L4.95234 4.79985L4.58858 4.59487Z" fill="white"/>
<path fill-rule="evenodd" clip-rule="evenodd" d="M10.7219 4.32827L10.3581 4.53325L10.4276 4.09909L10.1333 3.79161L10.54 3.72827L10.7219 3.33325L10.9038 3.72827L11.3105 3.79161L11.0162 4.09909L11.0856 4.53325L10.7219 4.32827Z" fill="white"/>
<path fill-rule="evenodd" clip-rule="evenodd" d="M6.18868 3.66152L5.82492 3.8665L5.89439 3.43234L5.6001 3.12486L6.0068 3.06152L6.18868 2.6665L6.37056 3.06152L6.77726 3.12486L6.48297 3.43234L6.55244 3.8665L6.18868 3.66152Z" fill="white"/>
<path fill-rule="evenodd" clip-rule="evenodd" d="M9.12203 3.39492L8.75826 3.5999L8.82774 3.16574L8.53345 2.85826L8.94015 2.79492L9.12203 2.3999L9.30391 2.79492L9.71061 2.85826L9.41632 3.16574L9.48579 3.5999L9.12203 3.39492Z" fill="white"/>
<path fill-rule="evenodd" clip-rule="evenodd" d="M7.78853 2.46157L7.42477 2.66655L7.49424 2.23239L7.19995 1.92491L7.60665 1.86157L7.78853 1.46655L7.97041 1.86157L8.37711 1.92491L8.08282 2.23239L8.15229 2.66655L7.78853 2.46157Z" fill="white"/>
<path fill-rule="evenodd" clip-rule="evenodd" d="M10.7219 2.19497L10.3581 2.39995L10.4276 1.96579L10.1333 1.65831L10.54 1.59497L10.7219 1.19995L10.9038 1.59497L11.3105 1.65831L11.0162 1.96579L11.0856 2.39995L10.7219 2.19497Z" fill="white"/>
</g>
</g>
<defs>
<clipPath id="clip0_1290_1025">
<rect width="24" height="24" fill="white"/>
</clipPath>
<clipPath id="clip1_1290_1025">
<rect width="10.4" height="10.1333" fill="white" transform="translate(0.93335 1.19995)"/>
</clipPath>
</defs>
</svg>
