<svg width="16" height="16" viewBox="0 0 16 16" fill="none" xmlns="http://www.w3.org/2000/svg">
<path d="M3.65618 10.9569H12.165V8.23532C12.165 8.07372 12.2978 7.94092 12.4594 7.94092H14.461C14.6258 7.94092 14.7554 8.07372 14.7554 8.23532V13.2529C14.7554 13.4161 14.6258 13.5457 14.461 13.5457C10.0962 13.5457 5.72818 13.5457 1.36178 13.5457C1.19858 13.5457 1.06738 13.4161 1.06738 13.2529V8.23532C1.06738 8.07372 1.19858 7.94092 1.36178 7.94092H3.36178C3.52498 7.94092 3.65618 8.07372 3.65618 8.23532V10.9569Z" fill="url(#paint0_linear_831_5363)"/>
<path opacity="0.4" d="M6.99374 2.13281H8.82734C9.19854 2.13281 9.50094 2.43521 9.50094 2.80641V6.16001H11.0881C11.6753 6.16001 11.9905 6.88801 11.5585 7.31361L8.38254 10.44C8.25134 10.568 8.08334 10.6336 7.91054 10.6336C7.73454 10.6336 7.56814 10.5632 7.44014 10.44L4.29294 7.34081C3.82894 6.91201 4.11534 6.16001 4.73454 6.16001H6.32014V2.80641C6.32014 2.43521 6.62414 2.13281 6.99374 2.13281Z" fill="url(#paint1_linear_831_5363)"/>
<defs>
<linearGradient id="paint0_linear_831_5363" x1="14.7554" y1="10.7433" x2="7.33982" y2="21.8302" gradientUnits="userSpaceOnUse">
<stop stop-color="#2667FF"/>
<stop offset="1" stop-color="#ACD7F7"/>
</linearGradient>
<linearGradient id="paint1_linear_831_5363" x1="11.7593" y1="6.38321" x2="1.44019" y2="12.1022" gradientUnits="userSpaceOnUse">
<stop stop-color="#2667FF"/>
<stop offset="1" stop-color="#ACD7F7"/>
</linearGradient>
</defs>
</svg>
