<svg width="20" height="20" viewBox="0 0 20 20" fill="none" xmlns="http://www.w3.org/2000/svg">
<path d="M15.714 8.39796L10.694 13.418C10.502 13.61 10.252 13.704 10.002 13.704C9.75204 13.704 9.50004 13.608 9.31004 13.418L4.29004 8.39796C3.90804 8.01596 3.90804 7.39596 4.29004 7.01196L4.72204 6.57996C5.10404 6.19796 5.72404 6.19796 6.10804 6.57996L9.31204 9.78396C9.50404 9.97596 9.75404 10.07 10.004 10.07C10.254 10.07 10.506 9.97396 10.696 9.78396L13.9 6.57996C14.282 6.19796 14.902 6.19796 15.286 6.57996L15.718 7.01196C16.096 7.39596 16.096 8.01596 15.714 8.39796Z" fill="#6D758E"/>
</svg>
