<svg width="24" height="24" viewBox="0 0 24 24" fill="none" xmlns="http://www.w3.org/2000/svg">
<path d="M3 6.5C3 5.57174 3.36875 4.6815 4.02513 4.02513C4.6815 3.36875 5.57174 3 6.5 3H8.364C8.62922 3 8.88357 3.10536 9.07111 3.29289C9.25864 3.48043 9.364 3.73478 9.364 4C9.364 4.26522 9.25864 4.51957 9.07111 4.70711C8.88357 4.89464 8.62922 5 8.364 5H6.5C6.10218 5 5.72064 5.15804 5.43934 5.43934C5.15804 5.72064 5 6.10218 5 6.5V8.364C5 8.62922 4.89464 8.88357 4.70711 9.07111C4.51957 9.25864 4.26522 9.364 4 9.364C3.73478 9.364 3.48043 9.25864 3.29289 9.07111C3.10536 8.88357 3 8.62922 3 8.364V6.5ZM14.636 4C14.636 3.73478 14.7414 3.48043 14.9289 3.29289C15.1164 3.10536 15.3708 3 15.636 3H17.5C18.4283 3 19.3185 3.36875 19.9749 4.02513C20.6313 4.6815 21 5.57174 21 6.5V8.364C21 8.62922 20.8946 8.88357 20.7071 9.07111C20.5196 9.25864 20.2652 9.364 20 9.364C19.7348 9.364 19.4804 9.25864 19.2929 9.07111C19.1054 8.88357 19 8.62922 19 8.364V6.5C19 6.10218 18.842 5.72064 18.5607 5.43934C18.2794 5.15804 17.8978 5 17.5 5H15.636C15.3708 5 15.1164 4.89464 14.9289 4.70711C14.7414 4.51957 14.636 4.26522 14.636 4ZM4 14.636C4.26522 14.636 4.51957 14.7414 4.70711 14.9289C4.89464 15.1164 5 15.3708 5 15.636V17.5C5 17.8978 5.15804 18.2794 5.43934 18.5607C5.72064 18.842 6.10218 19 6.5 19H8.364C8.62922 19 8.88357 19.1054 9.07111 19.2929C9.25864 19.4804 9.364 19.7348 9.364 20C9.364 20.2652 9.25864 20.5196 9.07111 20.7071C8.88357 20.8946 8.62922 21 8.364 21H6.5C5.57174 21 4.6815 20.6313 4.02513 19.9749C3.36875 19.3185 3 18.4283 3 17.5V15.636C3 15.3708 3.10536 15.1164 3.29289 14.9289C3.48043 14.7414 3.73478 14.636 4 14.636ZM20 14.636C20.2652 14.636 20.5196 14.7414 20.7071 14.9289C20.8946 15.1164 21 15.3708 21 15.636V17.5C21 18.4283 20.6313 19.3185 19.9749 19.9749C19.3185 20.6313 18.4283 21 17.5 21H15.636C15.3708 21 15.1164 20.8946 14.9289 20.7071C14.7414 20.5196 14.636 20.2652 14.636 20C14.636 19.7348 14.7414 19.4804 14.9289 19.2929C15.1164 19.1054 15.3708 19 15.636 19H17.5C17.8978 19 18.2794 18.842 18.5607 18.5607C18.842 18.2794 19 17.8978 19 17.5V15.636C19 15.3708 19.1054 15.1164 19.2929 14.9289C19.4804 14.7414 19.7348 14.636 20 14.636Z" fill="#0F1120"/>
</svg>
