<svg width="24" height="24" viewBox="0 0 24 24" fill="none" xmlns="http://www.w3.org/2000/svg">
<path d="M12.0002 8.24999C11.0056 8.24999 10.0518 8.64508 9.34855 9.34834C8.64529 10.0516 8.2502 11.0054 8.2502 12C8.2502 12.9946 8.64529 13.9484 9.34855 14.6516C10.0518 15.3549 11.0056 15.75 12.0002 15.75C12.9948 15.75 13.9486 15.3549 14.6519 14.6516C15.3551 13.9484 15.7502 12.9946 15.7502 12C15.7502 11.0054 15.3551 10.0516 14.6519 9.34834C13.9486 8.64508 12.9948 8.24999 12.0002 8.24999ZM9.5002 12C9.5002 11.3369 9.76359 10.7011 10.2324 10.2322C10.7013 9.76338 11.3372 9.49999 12.0002 9.49999C12.6632 9.49999 13.2991 9.76338 13.768 10.2322C14.2368 10.7011 14.5002 11.3369 14.5002 12C14.5002 12.663 14.2368 13.2989 13.768 13.7678C13.2991 14.2366 12.6632 14.5 12.0002 14.5C11.3372 14.5 10.7013 14.2366 10.2324 13.7678C9.76359 13.2989 9.5002 12.663 9.5002 12ZM9.7472 21.734C10.4867 21.9105 11.2437 21.9995 12.0037 21.9995C12.7621 21.9987 13.5177 21.9091 14.2552 21.7325C14.4491 21.6858 14.6239 21.5805 14.7557 21.4309C14.8876 21.2813 14.9702 21.0947 14.9922 20.8965L15.1612 19.361C15.1898 19.0864 15.3154 18.831 15.5155 18.6408C15.7156 18.4506 15.977 18.3381 16.2527 18.3235C16.4362 18.3155 16.6187 18.35 16.7867 18.4235L18.1902 19.039C18.3122 19.0939 18.4444 19.1227 18.5782 19.1235C18.712 19.1244 18.8445 19.0973 18.9672 19.044C19.0907 18.9915 19.2012 18.9135 19.2922 18.815C20.3242 17.7026 21.0946 16.3738 21.5472 14.9255C21.6065 14.7334 21.6046 14.5276 21.5419 14.3365C21.4792 14.1455 21.3588 13.9786 21.1972 13.859L19.9502 12.939C19.8017 12.8311 19.6808 12.6896 19.5974 12.5261C19.5141 12.3625 19.4706 12.1816 19.4706 11.998C19.4706 11.8144 19.5141 11.6335 19.5974 11.4699C19.6808 11.3064 19.8017 11.1649 19.9502 11.057L21.1932 10.139C21.3552 10.0191 21.4759 9.85183 21.5387 9.6603C21.6014 9.46876 21.603 9.26247 21.5432 9.06999C21.0905 7.62152 20.3191 6.29284 19.2857 5.18149C19.1488 5.03514 18.9698 4.9349 18.7735 4.8946C18.5772 4.8543 18.3732 4.87592 18.1897 4.95649L16.7867 5.57449C16.6417 5.63999 16.4837 5.67449 16.3237 5.67449C16.0357 5.67392 15.758 5.56706 15.544 5.3744C15.3299 5.18174 15.1945 4.91684 15.1637 4.63049L14.9937 3.10049C14.9719 2.89968 14.8879 2.71069 14.7535 2.55998C14.619 2.40927 14.4407 2.30438 14.2437 2.25999C13.5099 2.09617 12.761 2.0092 12.0092 2.00049C11.2522 2.00922 10.4982 2.09636 9.7592 2.26049C9.56238 2.30463 9.38428 2.40918 9.2498 2.55953C9.11533 2.70987 9.03121 2.89848 9.0092 3.09899L8.8392 4.62999C8.80713 4.9168 8.6704 5.1817 8.4552 5.37399C8.23558 5.56056 7.95877 5.66641 7.6707 5.67399C7.51182 5.67388 7.35468 5.64085 7.2092 5.57699L5.8092 4.95899C5.6251 4.8777 5.42024 4.85578 5.2231 4.89629C5.02597 4.93679 4.84635 5.0377 4.7092 5.18499C3.67723 6.29659 2.90678 7.6248 2.4542 9.07249C2.39441 9.26489 2.39599 9.47112 2.4587 9.66259C2.52142 9.85405 2.64217 10.0212 2.8042 10.141L4.0482 11.059C4.27043 11.2232 4.42748 11.4607 4.49161 11.7295C4.55574 11.9983 4.52284 12.2811 4.3987 12.528C4.31615 12.6917 4.19626 12.8337 4.0487 12.9425L2.8037 13.862C2.64181 13.9816 2.52115 14.1486 2.45843 14.3399C2.39572 14.5312 2.39407 14.7372 2.4537 14.9295C2.90548 16.3786 3.676 17.7081 4.7087 18.8205C4.84513 18.9677 5.02409 19.0687 5.22064 19.1094C5.41719 19.1501 5.62154 19.1285 5.8052 19.0475L7.2142 18.429C7.3597 18.365 7.5167 18.332 7.6757 18.332H7.6797C7.96662 18.3324 8.24338 18.4382 8.45729 18.6295C8.67119 18.8207 8.8073 19.0839 8.8397 19.369L9.0087 20.8975C9.03071 21.096 9.11345 21.2828 9.24563 21.4326C9.3778 21.5823 9.55297 21.6875 9.7472 21.734ZM13.7792 20.5615C12.6092 20.8115 11.3992 20.8115 10.2292 20.5615L10.0772 19.2305C10.0111 18.6399 9.72993 18.0943 9.28728 17.6977C8.84463 17.3012 8.27149 17.0815 7.6772 17.0805H7.6722C7.34075 17.0791 7.0127 17.1473 6.7092 17.2805L5.4862 17.817C4.69284 16.9222 4.08751 15.877 3.7062 14.7435L4.7887 13.9435C5.09376 13.7186 5.34171 13.4251 5.51259 13.0868C5.68348 12.7485 5.7725 12.3748 5.7725 11.9957C5.7725 11.6167 5.68348 11.243 5.51259 10.9047C5.34171 10.5664 5.09376 10.2729 4.7887 10.048L3.7067 9.24799C4.08873 8.11579 4.6942 7.07183 5.4872 6.17799L6.7032 6.71399C7.00719 6.84881 7.33616 6.91814 7.6687 6.91749H7.6737C8.26941 6.91625 8.84381 6.69579 9.28738 6.29815C9.73094 5.90051 10.0126 5.35352 10.0787 4.76149L10.2287 3.43149C10.8153 3.31395 11.4115 3.25101 12.0097 3.24349C12.6032 3.25099 13.1947 3.31349 13.7767 3.43099L13.9267 4.76049C13.9909 5.35249 14.2713 5.89998 14.7141 6.29802C15.157 6.69606 15.7312 6.91664 16.3267 6.91749C16.6625 6.92542 16.9956 6.85525 17.2997 6.71249L18.5147 6.17699C19.3082 7.07076 19.9139 8.11495 20.2957 9.24749L19.2172 10.044C18.91 10.2679 18.66 10.5613 18.4877 10.9001C18.3153 11.239 18.2255 11.6138 18.2255 11.994C18.2255 12.3742 18.3153 12.749 18.4877 13.0878C18.66 13.4267 18.91 13.7201 19.2172 13.944L20.2997 14.744C19.9175 15.876 19.3122 16.9199 18.5197 17.814L17.2997 17.279C16.9524 17.1249 16.5736 17.0551 16.1941 17.0753C15.8147 17.0956 15.4454 17.2052 15.1165 17.3954C14.7875 17.5855 14.5081 17.8507 14.3012 18.1694C14.0942 18.488 13.9656 18.8511 13.9257 19.229L13.7792 20.5615Z" fill="#0F1120"/>
</svg>
