<svg width="202" height="164" viewBox="0 0 202 164" fill="none" xmlns="http://www.w3.org/2000/svg">
<g clip-path="url(#clip0_260_12806)">
<path d="M71.9362 142.008C67.3685 142.056 62.8058 141.687 58.3055 140.904C49.0997 139.197 43.8082 135.665 38.3091 131.566C29.8908 125.29 21.2253 118.278 14.8367 109.553C7.80547 99.9489 4.53369 89.3165 5.6111 79.6099C6.86644 68.4371 12.2502 56.9776 21.6108 45.5446C26.0984 40.0652 31.9105 36.6089 37.5282 33.268C42.141 30.5267 46.902 27.6931 51.0371 23.713C64.2592 11.0641 86.5653 -4.85989 127.665 2.87969C140.037 5.21243 151.058 11.6209 158.152 20.428C163.793 23.0639 167.707 28.9946 170.949 34.5167C173.806 39.3568 175.444 44.1937 177.028 48.8723C179.318 55.6465 181.691 62.6514 187.796 69.9923C188.267 70.559 188.755 71.1389 189.249 71.7286C194.214 77.6363 200.389 84.9904 201.618 92.4103C203.12 101.491 200.119 110.265 193.967 114.766C189.796 117.817 183.895 119.211 176.906 118.799C173.391 118.588 169.865 117.985 166.459 117.402C164.109 117 161.681 116.585 159.276 116.301C145.844 114.756 132.252 117.153 120.159 123.201C112.604 127.016 112.354 130.176 112.153 132.716C111.929 135.497 111.754 137.691 102.549 139.134C90.2885 141.055 80.2425 142.008 71.9362 142.008ZM106.99 1.15978C78.8554 1.15978 62.0517 13.6538 51.2842 23.9535C47.1096 27.9567 42.3288 30.8001 37.7028 33.5513C31.8512 37.0307 26.3258 40.3156 21.8711 45.7422C12.5533 57.1226 7.19263 68.5261 5.94389 79.633C4.86318 89.2572 8.11518 99.8105 15.0969 109.346C21.4593 118.038 30.1016 125.029 38.4903 131.289C50.2298 140.044 61.027 145.296 102.493 138.795C111.441 137.391 111.599 135.415 111.817 132.677C112.025 130.041 112.285 126.792 120.005 122.894C132.157 116.821 145.813 114.417 159.309 115.975C161.721 116.258 164.152 116.674 166.505 117.076C169.905 117.659 173.424 118.262 176.92 118.469C183.839 118.878 189.658 117.507 193.766 114.499C199.816 110.071 202.768 101.422 201.285 92.4631C200.073 85.132 193.928 77.8175 188.992 71.9395C188.496 71.3486 188.01 70.7698 187.536 70.2031C181.397 62.8161 179.018 55.7816 176.712 48.9778C175.134 44.3156 173.503 39.4952 170.663 34.6848C167.407 29.1626 163.803 23.6635 158.604 21.0013C159.621 22.3088 160.558 23.6777 161.408 25.1001L161.124 25.2681C160.168 23.6646 159.101 22.1299 157.932 20.6751C156.955 20.2374 155.934 19.906 154.887 19.6867L154.953 19.3572C155.821 19.5385 156.67 19.7999 157.49 20.1381C150.429 11.6473 139.665 5.47602 127.619 3.20588C120.821 1.88426 113.915 1.19926 106.99 1.15978Z" fill="#EDF6FB"/>
<path d="M15.4758 101.61C8.88617 87.4417 9.39028 70.5952 15.5187 56.2396C22.0392 40.9548 35.581 29.0374 50.724 20.6553C77.3958 5.91753 110.407 1.12354 140.291 8.7445C148.004 10.7214 155.592 13.522 161.941 18.0656C168.29 22.6092 173.338 29.0407 174.87 36.3816C175.928 41.4655 175.289 46.734 176.023 51.8674C178.939 72.2459 199.381 81.7318 199.107 102.278C198.939 115.128 189.552 124.117 176.432 132.103C164.923 139.128 46.701 168.808 15.4758 101.61Z" fill="#E6EFF1"/>
<path d="M186.152 128.67L184.949 129.794C183.443 131.197 182.056 132.509 180.943 133.685C170.887 144.301 167.19 163.444 167.19 163.444H161.259C161.259 163.444 161.529 160.831 162.324 156.772C163.697 149.734 166.633 138.143 172.422 127.23C172.636 126.822 172.857 126.42 173.081 126.014C176.047 120.647 179.727 115.494 184.284 111.188C184.842 110.679 185.448 110.224 186.092 109.83C186.317 109.692 186.55 109.553 186.794 109.418C190.224 107.481 195.463 105.962 197.717 109.254L197.822 109.415C201.094 114.66 192.903 122.41 186.152 128.67Z" fill="#086375" fill-opacity="0.06"/>
<path d="M190.531 86.4105C190.438 86.6411 190.346 86.8783 190.244 87.1189C188.541 91.1979 185.582 96.2554 181.018 102.44C176.198 108.987 171.065 121.599 167.668 136.429C167.668 136.429 167.668 136.446 167.668 136.452C167.529 137.063 167.393 137.676 167.259 138.291L167.236 138.396C165.925 144.456 164.975 150.589 164.393 156.762C164.205 158.791 164.063 161.417 163.958 163.444C163.958 163.615 163.941 163.266 163.935 163.444H154.966C154.353 152.854 155.322 114.875 163.78 94.3807C163.879 94.1401 163.981 93.8963 164.083 93.6591C164.505 92.6882 164.951 91.7613 165.421 90.8783C177.206 68.7073 186.86 71.7023 189.826 74.0746C189.924 74.1569 190.017 74.2327 190.102 74.3118L190.125 74.3349C192.392 76.4535 192.939 80.2788 190.531 86.4105Z" fill="#086375" fill-opacity="0.06"/>
<path d="M181.654 155.688C179.806 158.387 177.806 160.978 175.664 163.45H166.215C166.264 163.338 173.5 138.288 183.766 140.172C188.771 141.085 185.635 149.843 181.654 155.688Z" fill="#086375" fill-opacity="0.06"/>
<path d="M190.119 74.3414C185.109 78.4821 180.788 83.3921 177.318 88.8882L177.078 89.2638C166.755 105.547 162.791 126.07 161.365 142.024C161.365 142.159 161.342 142.291 161.332 142.423C160.72 149.412 160.509 156.43 160.699 163.444H160.31C160.116 156.923 160.09 139.78 164.047 121.734C165.219 116.325 166.753 111.001 168.64 105.797L168.788 105.395C170.012 102.075 171.423 98.8263 173.015 95.6656C177.506 86.7696 183.16 79.5209 189.819 74.0811C189.918 74.1635 190.01 74.2393 190.096 74.3184L190.119 74.3414Z" fill="#F5CDFF"/>
<path d="M190.531 86.4104C190.438 86.6411 190.346 86.8783 190.244 87.1188C187.447 89.02 182.597 89.3461 179.592 89.3461C178.333 89.3461 177.401 89.2868 177.078 89.2638H176.969L177.002 88.8717L177.332 88.8947C179.019 88.9837 187.147 89.2769 190.531 86.4104Z" fill="#F5CDFF"/>
<path d="M169.045 105.639L168.781 105.929L168.64 105.797C165.206 102.545 164.083 96.631 163.773 94.3807C163.872 94.1401 163.974 93.8963 164.076 93.6591C164.215 94.9375 165.101 101.774 168.788 105.395C168.874 105.478 168.956 105.56 169.045 105.639Z" fill="#F5CDFF"/>
<path d="M167.246 138.396C166.626 139.469 165.773 140.388 164.749 141.085C163.725 141.782 162.557 142.239 161.332 142.423H161.272L161.24 142.034L161.365 142.017C162.84 141.776 164.216 141.122 165.335 140.131C166.453 139.14 167.268 137.852 167.684 136.416L167.246 138.396Z" fill="#F5CDFF"/>
<path d="M184.495 140.377C182.643 141.783 180.811 143.955 179.084 146.462L178.844 146.818C176.458 150.36 174.284 154.544 172.538 158.271C172.478 158.393 172.422 158.515 172.366 158.637C171.569 160.353 170.864 162.04 170.277 163.434C170.277 163.457 170.254 163.408 170.244 163.434H169.882C171.398 159.833 173.701 154.61 176.409 149.978L176.705 149.474C178.959 145.691 181.476 142.251 184.046 140.218C184.199 140.263 184.348 140.315 184.495 140.377Z" fill="#F5CDFF"/>
<path d="M181.032 156.597C180.784 156.946 180.537 157.289 180.287 157.628C178.613 158.65 176.663 158.91 175.104 158.91C174.185 158.911 173.268 158.822 172.366 158.646L172.238 158.617L172.33 158.238L172.538 158.281C173.559 158.482 178.106 159.19 181.032 156.597Z" fill="#F5CDFF"/>
<path d="M186.343 144.09C186.343 144.344 186.317 144.607 186.284 144.877C184.887 146.64 182.551 146.999 180.864 146.999C180.187 147.002 179.511 146.945 178.844 146.828C178.86 146.698 178.883 146.57 178.913 146.442L179.084 146.472C180.03 146.627 184.567 147.184 186.343 144.09Z" fill="#F5CDFF"/>
<path d="M176.712 149.484C176.762 149.75 176.798 149.905 176.801 149.915L176.422 150.011C176.422 150.003 176.422 149.995 176.422 149.988C176.333 149.622 175.47 145.793 177.127 142.591C177.44 142.304 177.76 142.037 178.086 141.793C176.07 144.505 176.501 148.232 176.719 149.484H176.712Z" fill="#F5CDFF"/>
<path d="M88.5653 163.546H82.1898C81.2013 156.92 79.0004 147.194 74.1076 140.106C73.2081 138.788 72.0615 137.326 70.8127 135.741C70.4854 135.332 70.1559 134.914 69.8243 134.485C64.223 127.402 57.4719 118.687 61.4191 114.104C61.4685 114.054 61.5048 114.008 61.5476 113.965C64.2164 111.118 69.0566 113.375 72.0911 115.758C72.3086 115.929 72.5128 116.087 72.7072 116.265C73.2729 116.743 73.7915 117.273 74.2558 117.85C78.0086 122.697 80.7895 128.232 82.8554 133.866C83.0102 134.291 83.1651 134.716 83.3067 135.141C86.964 145.691 88.1864 156.439 88.5653 163.546Z" fill="#086375" fill-opacity="0.06"/>
<path d="M69.7386 155.595C71.5488 158.237 73.5069 160.773 75.6034 163.193H84.8619C84.8125 163.085 77.7318 138.568 67.6826 140.413C62.7864 141.312 65.8539 149.882 69.7386 155.595Z" fill="#086375" fill-opacity="0.06"/>
<path d="M66.9709 140.62C68.7831 141.994 70.5755 144.12 72.2657 146.584L72.4996 146.93C74.8357 150.4 76.9642 154.508 78.6742 158.132C78.7302 158.251 78.7862 158.37 78.8389 158.488C79.6231 160.169 80.3117 161.819 80.8883 163.183C80.8883 163.207 80.9081 163.157 80.918 163.183H81.2705C79.7878 159.658 77.5342 154.548 74.8851 150.004C74.7863 149.839 74.6907 149.675 74.5919 149.513C72.3876 145.81 69.9231 142.442 67.4091 140.452C67.2588 140.497 67.1123 140.553 66.9709 140.62Z" fill="#F5CDFF"/>
<path d="M70.3613 156.492C70.6018 156.821 70.8456 157.17 71.0894 157.503C72.7369 158.492 74.6347 158.759 76.1602 158.759C77.0595 158.76 77.9567 158.673 78.8389 158.498L78.9674 158.469L78.8751 158.1L78.6742 158.142C77.6758 158.324 73.2245 159.029 70.3613 156.492Z" fill="#F5CDFF"/>
<path d="M65.162 144.251C65.162 144.502 65.1818 144.759 65.2214 145.022C66.5854 146.746 68.8753 147.101 70.526 147.101C71.1889 147.105 71.8506 147.047 72.5029 146.93C72.4877 146.804 72.4657 146.678 72.437 146.554L72.269 146.584C71.3399 146.736 66.8984 147.279 65.162 144.251Z" fill="#F5CDFF"/>
<path d="M74.5919 149.533C74.5457 149.793 74.5095 149.945 74.5062 149.951L74.8785 150.047C74.8789 150.039 74.8789 150.032 74.8785 150.024C74.9642 149.668 75.8109 145.919 74.1866 142.775C73.8802 142.495 73.5672 142.235 73.2509 141.994C75.2278 144.65 74.7994 148.294 74.5853 149.52L74.5919 149.533Z" fill="#F5CDFF"/>
<path d="M84.9574 163.546H84.5917C83.3375 153.536 81.3353 144.889 78.5852 137.606C78.5391 137.477 78.4864 137.349 78.4369 137.223C74.3382 126.515 68.6183 118.832 61.3038 114.268L61.4059 114.104L61.5081 113.949L61.5344 113.965C65.4882 116.446 69.0104 119.84 72.0449 124.103L72.3184 124.489C74.4475 127.587 76.2579 130.892 77.722 134.354C78.7716 136.809 79.6889 139.319 80.4698 141.872C80.5193 142.014 80.5621 142.149 80.6016 142.291C82.5192 148.508 83.9657 155.628 84.9574 163.546Z" fill="#F5CDFF"/>
<path d="M69.8242 134.489L70.8127 135.741C72.2637 136.606 73.8758 137.167 75.5507 137.388C76.5552 137.546 77.5719 137.613 78.5885 137.589H78.7137L78.6906 137.207H78.4435C77.3134 137.237 72.5952 137.131 69.8242 134.489Z" fill="#F5CDFF"/>
<path d="M72.0581 124.1C72.0021 124.268 71.9658 124.364 71.9626 124.37L72.3184 124.515C72.3179 124.505 72.3179 124.495 72.3184 124.486C72.4897 124.054 73.9988 120.005 72.6907 116.248C72.4963 116.08 72.292 115.919 72.0779 115.741C73.5836 119.115 72.4238 123.049 72.0581 124.1Z" fill="#F5CDFF"/>
<path d="M80.2755 142.08L80.5324 142.367L80.6214 142.281C81.0992 141.803 83.3133 139.365 83.3034 135.138C83.1551 134.71 83.0036 134.288 82.8487 133.863C83.3364 138.387 81.2013 141.111 80.4929 141.863C80.3611 142.001 80.282 142.077 80.2755 142.08Z" fill="#F5CDFF"/>
<path d="M164.67 163.444H164.287C167.872 148.548 172.547 136.307 178.185 127.306C183.687 118.525 190.267 112.446 197.75 109.237L197.905 109.596C182.89 116.034 171.707 134.172 164.67 163.444Z" fill="#F5CDFF"/>
<path d="M186.152 128.67L184.949 129.794C183.347 130.444 181.63 130.762 179.901 130.729C178.863 130.73 177.827 130.639 176.804 130.456L176.679 130.433L176.762 130.051L177.012 130.097C178.159 130.288 182.972 130.917 186.152 128.67Z" fill="#F5CDFF"/>
<path d="M185.519 117.843C185.549 118.024 185.575 118.127 185.575 118.133L185.193 118.222C185.194 118.211 185.194 118.2 185.193 118.189C185.091 117.728 184.205 113.405 186.102 109.827C186.326 109.688 186.56 109.55 186.804 109.415C184.755 112.568 185.315 116.726 185.519 117.843Z" fill="#F5CDFF"/>
<path d="M174.406 134.713L174.106 134.963C174.077 134.931 174.051 134.897 174.027 134.861C173.618 134.304 171.763 131.497 172.439 127.23C172.653 126.822 172.874 126.42 173.098 126.014C171.898 130.505 173.638 133.593 174.224 134.459C174.337 134.621 174.406 134.709 174.406 134.713Z" fill="#F5CDFF"/>
<path d="M159.078 24.4312V159.879C159.078 160.788 158.717 161.659 158.074 162.302C157.432 162.944 156.56 163.305 155.651 163.305H89.0693C88.1611 163.305 87.2904 162.943 86.6485 162.301C86.0066 161.658 85.646 160.787 85.646 159.879V24.4312C85.6456 23.9814 85.7338 23.5359 85.9056 23.1201C86.0775 22.7044 86.3296 22.3267 86.6475 22.0084C86.9654 21.6902 87.343 21.4377 87.7585 21.2655C88.1741 21.0932 88.6195 21.0046 89.0693 21.0046H155.651C156.102 21.0041 156.547 21.0925 156.963 21.2645C157.379 21.4366 157.757 21.689 158.075 22.0072C158.394 22.3255 158.646 22.7034 158.818 23.1194C158.99 23.5353 159.079 23.9811 159.078 24.4312Z" fill="#363347"/>
<path d="M156.647 24.4312V159.879C156.647 160.788 156.286 161.659 155.643 162.302C155 162.944 154.129 163.305 153.22 163.305H86.6411C85.7329 163.305 84.8622 162.943 84.2203 162.301C83.5783 161.658 83.2178 160.787 83.2178 159.879V24.4312C83.2173 23.9814 83.3056 23.5359 83.4774 23.1201C83.6493 22.7044 83.9014 22.3267 84.2193 22.0084C84.5372 21.6902 84.9147 21.4377 85.3303 21.2655C85.7459 21.0932 86.1913 21.0046 86.6411 21.0046H153.22C153.67 21.0041 154.116 21.0925 154.532 21.2645C154.948 21.4366 155.326 21.689 155.644 22.0072C155.962 22.3255 156.215 22.7034 156.387 23.1194C156.559 23.5353 156.647 23.9811 156.647 24.4312Z" fill="#242236"/>
<path d="M148.614 150.587H91.2506C88.7169 150.587 86.6576 148.409 86.6576 145.734V36.1411C86.6576 33.4657 88.7169 31.2911 91.2506 31.2911H148.614C151.144 31.2911 153.207 33.4657 153.207 36.1411V145.734C153.207 148.409 151.144 150.587 148.614 150.587Z" fill="#EEF6FB"/>
<g opacity="0.77">
<path d="M123.517 31.2878L96.7035 150.584C96.7035 150.584 90.9112 150.584 90.7432 150.558L117.557 31.2845L123.517 31.2878Z" fill="white"/>
</g>
<g opacity="0.77">
<path d="M147.404 31.2878L118.874 150.587H106.891L135.421 31.2878H147.404Z" fill="white"/>
</g>
<path d="M148.614 150.745H111.833V150.416H148.614C151.055 150.416 153.042 148.314 153.042 145.727V115.744H153.371V145.727C153.371 148.502 151.236 150.745 148.614 150.745ZM105.122 150.745H95.2043V150.416H105.109L105.122 150.745Z" fill="#2D313D"/>
<path d="M11.5286 160.192L10.985 153.816H15.6604L15.377 160.192H11.5286Z" fill="#F0AB8F"/>
<path d="M11.0014 153.918L11.3112 157.506C12.7169 157.577 14.1262 157.489 15.5121 157.243L15.6768 153.536L11.0014 153.918Z" fill="#E09B82"/>
<path d="M10.2997 163.595H22.4576C22.4888 163.243 22.4722 162.889 22.4082 162.541L10.4677 162.61L10.2997 163.595Z" fill="#2D313D"/>
<path d="M10.4677 162.607L22.4016 162.528C22.2896 161.292 20.7542 160.712 19.2913 160.343L19.0013 160.274L18.3984 160.136L18.1084 160.073C17.7149 159.998 17.3289 159.888 16.9553 159.744C16.7411 159.642 16.4775 159.49 16.2534 159.355L16.036 159.22L15.667 158.983C14.8861 159.24 13.7098 159.971 11.1267 158.805L11.0509 159.256L11.0048 159.51L10.4677 162.607Z" fill="#2D313D"/>
<path d="M19.0013 160.3C19.1152 160.578 19.1831 160.871 19.2023 161.17H19.4461C19.4307 160.901 19.3786 160.635 19.2913 160.38L19.0013 160.3Z" fill="#2D313D"/>
<path d="M18.1084 160.083C18.2352 160.373 18.3099 160.683 18.3292 160.999H18.573C18.5573 160.711 18.4984 160.426 18.3984 160.156L18.1084 160.083Z" fill="#2D313D"/>
<path d="M11.0048 159.529C11.8477 159.975 12.7828 160.219 13.7362 160.241C14.6519 160.262 15.5449 159.955 16.2535 159.375L16.036 159.24C15.5846 159.628 13.9207 160.735 11.0509 159.276L11.0048 159.529Z" fill="#2D313D"/>
<path d="M19.3572 155.905C14.9355 156.6 10.8301 156.894 7.70663 155.905C7.70663 155.905 5.07076 126.278 9.74943 99.056L19.12 99.0956C19.12 99.0956 22.7212 131.813 19.3572 155.905Z" fill="#242236"/>
<path d="M20.2731 72.0384C22.026 71.8934 23.1825 71.3333 23.7097 70.3745C24.4971 68.9445 23.591 67.1785 23.5515 67.1027L23.3307 67.2213C23.3307 67.2378 24.2105 68.9445 23.4889 70.2526C23.0046 71.1323 21.914 71.6496 20.2501 71.7847L20.2731 72.0384Z" fill="#2D313D"/>
<path d="M38.9055 160.192L36.8956 153.816H41.571L42.9944 160.192H38.9055Z" fill="#F0AB8F"/>
<path d="M36.8857 153.764L37.9994 157.266C39.4266 157.535 40.8954 157.487 42.3024 157.128L41.5051 153.566H39.8379L36.8857 153.764Z" fill="#E09B82"/>
<path d="M14.1843 80.2359C14.1843 80.2359 1.56833 82.5423 2.70505 95.0265C3.17621 100.213 7.09707 103.797 7.09707 103.797L8.53691 99.4119L13.5813 101.109L14.1843 80.2359Z" fill="#F5CDFF"/>
<path d="M20.283 81.8372L20.4544 74.9971L16.4907 74.3777L14.5105 80.9344L20.283 81.8372Z" fill="#F0AB8F"/>
<path d="M18.8893 77.4056C16.4939 76.3085 14.0755 72.3909 15.8053 68.5689C17.176 65.5343 22.4543 67.2509 23.4724 70.2163C25.0671 74.7698 24.4049 79.9229 18.8893 77.4056Z" fill="#F0AB8F"/>
<path d="M40.4079 87.1847C40.5957 86.9508 41.2316 86.2259 41.2843 85.9294C41.337 85.6329 41.4095 84.1436 41.7291 84.1897C42.0487 84.2359 41.795 85.2671 42.0586 85.2605C42.2233 85.2605 42.7868 83.2441 43.1393 83.4484C43.3699 83.5835 42.8625 84.7663 43.0075 84.7663C43.1525 84.7663 43.4655 83.2177 43.818 83.399C44.1706 83.5802 43.2381 85.1024 43.4128 85.1815C43.5017 85.2177 44.1772 83.3825 44.4605 83.5341C44.8394 83.7449 43.8905 85.1485 44.0553 85.2605C44.1376 85.3166 44.3848 84.7597 44.5726 84.4467C44.678 84.2721 44.8329 84.3281 44.8263 84.4665C44.7505 85.8899 43.0009 87.6592 42.9185 87.8865C42.7933 88.216 42.6649 88.5455 42.5331 88.875L40.4079 87.1847Z" fill="#F0AB8F"/>
<path d="M45.1228 155.622C40.856 156.225 36.866 156.366 33.3998 155.622C19.0211 128.934 13.0014 98.8122 13.0014 98.8122H24.1116C38.464 123.533 45.1228 155.622 45.1228 155.622Z" fill="#242236"/>
<path d="M35.7457 90.8848L40.4738 86.3314L43.1327 88.5224C43.1327 88.5224 42.0059 100.783 33.7326 99.8633C27.9007 99.2043 24.1182 87.9491 24.1182 87.9491L35.7457 90.8848Z" fill="#F5CDFF"/>
<path d="M6.9686 106.924C17.0014 111.491 31.581 107.494 31.581 107.494L31.1362 106.015L31.0703 105.787L27.278 93.1583L37.2515 93.0397C37.2515 93.0397 30.5695 83.6626 26.6783 81.3825C25.455 80.7254 24.1293 80.2798 22.7575 80.0646L22.3917 80.0053C19.7007 79.5806 16.9553 79.6431 14.2864 80.1898C14.1909 80.1898 14.0986 80.2293 14.0064 80.2491C12.5688 80.554 11.1865 81.0773 9.90759 81.801C9.90759 81.801 10.6226 85.8273 9.62094 88.5653C7.34091 94.7826 6.98507 102.212 6.96201 105.369C6.96201 105.458 6.96201 105.54 6.96201 105.623C6.95212 106.456 6.9686 106.924 6.9686 106.924Z" fill="#F5CDFF"/>
<path d="M15.7395 109.003L16.1843 109.036C16.293 109.036 16.3984 109.036 16.5137 109.056C24.3192 109.494 31.5876 107.497 31.5876 107.497L31.1428 106.021L31.0769 105.794L28.1149 95.9424C27.6173 95.435 25.1166 91.3626 24.7278 89.7152C24.7278 89.7152 24.563 93.9293 25.8876 97.3889C26.7245 99.57 27.6635 102.812 26.5465 104.868C25.1166 107.537 15.8647 108.967 15.7395 109.003Z" fill="#9CC0DB"/>
<path d="M32.6084 86.913L32.4117 87.0733L36.5811 92.1891L36.7777 92.0288L32.6084 86.913Z" fill="#2D313D"/>
<path d="M21.1562 77.9098C21.8793 77.9858 22.6051 77.7935 23.1957 77.3694L23.0309 77.175C22.9815 77.2179 21.713 78.236 19.6274 77.2146L19.5153 77.4419C20.0277 77.7005 20.5845 77.8593 21.1562 77.9098Z" fill="#2D313D"/>
<path d="M6.95869 105.633C10.8202 107.221 14.9553 107.741 18.718 107.741C22.915 107.716 27.0904 107.138 31.1362 106.021L31.0703 105.794C28.2664 106.595 16.7147 109.435 6.96199 105.379C6.9587 105.468 6.95869 105.55 6.95869 105.633Z" fill="#2D313D"/>
<path d="M7.09379 106.924C7.09379 106.815 7.13003 96.0775 9.72966 88.5949L9.49243 88.5125C6.85656 96.0347 6.8335 106.815 6.8335 106.924H7.09379Z" fill="#2D313D"/>
<path d="M14.0064 80.2359C14.488 80.6979 15.056 81.0603 15.678 81.3023C16.2999 81.5443 16.9635 81.6611 17.6307 81.6461C20.0458 81.6461 22.3193 80.3282 22.7443 80.0514L22.3786 79.9921C21.232 80.6511 17.1068 82.7202 14.2733 80.1766C14.1909 80.203 14.0986 80.2359 14.0064 80.2359Z" fill="#2D313D"/>
<path d="M37.5941 163.595H49.7554C49.7866 163.243 49.7699 162.889 49.7059 162.541L37.7655 162.61L37.5941 163.595Z" fill="#2D313D"/>
<path d="M37.7655 162.607L49.6994 162.528C49.5873 161.292 48.0355 160.712 46.589 160.343L46.2991 160.274L45.6961 160.136L45.4062 160.073C45.0126 159.998 44.6266 159.888 44.253 159.744C44.0388 159.642 43.7752 159.49 43.5479 159.355L43.3337 159.22L42.9647 158.983C42.1838 159.24 41.0076 159.971 38.4244 158.805L38.3486 159.256L38.3025 159.51L37.7655 162.607Z" fill="#2D313D"/>
<path d="M46.2991 160.3C46.413 160.578 46.4809 160.871 46.5001 161.17H46.7439C46.7264 160.901 46.6744 160.635 46.589 160.38L46.2991 160.3Z" fill="#2D313D"/>
<path d="M45.4062 160.083C45.5329 160.373 45.6076 160.683 45.6269 160.999H45.8707C45.8551 160.711 45.7962 160.426 45.6961 160.156L45.4062 160.083Z" fill="#2D313D"/>
<path d="M38.3025 159.529C39.1455 159.975 40.0806 160.219 41.0339 160.241C41.9488 160.263 42.8411 159.956 43.5479 159.375L43.3337 159.24C42.879 159.628 41.2184 160.735 38.3486 159.276L38.3025 159.529Z" fill="#2D313D"/>
<path d="M24.5929 90.8325L24.4011 90.9985L25.7769 92.5879L25.9687 92.4218L24.5929 90.8325Z" fill="#2D313D"/>
<path d="M8.12509 105.606H8.3755C8.3755 103.148 8.67203 100.064 8.67533 100.031L8.42492 100.008C8.42163 100.041 8.12509 103.138 8.12509 105.606Z" fill="#2D313D"/>
<path d="M5.53532 85.679C7.89442 87.6559 14.1283 88.2292 17.1529 83.4088C19.3802 79.8603 19.2517 75.4222 19.054 74.1635L20.059 72.1372C20.059 72.1372 23.6833 71.1883 23.4395 67.1455C23.4395 67.1455 23.0177 67.386 21.8843 67.1126C21.2583 66.9577 19.6669 66.0681 17.9503 66.1637H17.9338C16.4017 66.1241 13.1003 66.6744 12.0031 71.6001C11.097 75.6594 7.61436 75.554 5.7429 76.9641C1.99337 79.7516 2.86979 83.4649 5.53532 85.679Z" fill="#2D313D"/>
<path d="M18.3786 72.9313C18.3441 73.1522 18.3758 73.3785 18.4699 73.5814C18.564 73.7842 18.7162 73.9547 18.9072 74.071C19.0981 74.1874 19.3194 74.2445 19.5428 74.2351C19.7662 74.2256 19.9819 74.1501 20.1624 74.0181C20.3429 73.8861 20.4802 73.7034 20.5568 73.4933C20.6335 73.2832 20.6461 73.0551 20.5931 72.8379C20.54 72.6206 20.4237 72.424 20.2588 72.2728C20.094 72.1217 19.888 72.0229 19.6669 71.9889C19.5204 71.966 19.3708 71.9721 19.2267 72.0071C19.0826 72.0421 18.9469 72.1051 18.8272 72.1927C18.7075 72.2802 18.6063 72.3905 18.5293 72.5173C18.4523 72.644 18.4011 72.7847 18.3786 72.9313Z" fill="#F0AB8F"/>
<path d="M2.71495 78.6939C3.22844 77.587 4.07212 76.6662 5.13007 76.0581C5.74558 75.7143 6.40055 75.4466 7.08061 75.2607C8.84994 74.694 10.8565 74.0515 11.723 71.2213C13.1728 66.503 16.4478 66.3218 17.7921 66.4635H17.8481C19.0738 66.5096 20.1743 67.0434 20.9058 67.3992C21.1197 67.5083 21.3397 67.6051 21.5647 67.6892L21.6537 67.4256C21.4445 67.3446 21.2399 67.2522 21.0408 67.1488C20.2764 66.7765 19.12 66.2164 17.8383 66.1867H17.8218C16.4017 66.0385 12.9751 66.2395 11.4726 71.129C10.6456 73.8209 8.79722 74.4238 7.00812 74.9873C6.3051 75.1776 5.62876 75.4554 4.99498 75.8143C3.88802 76.451 3.00612 77.4158 2.47113 78.5753L2.71495 78.6939Z" fill="#2D313D"/>
<path d="M9.79886 156.347C12.5665 156.735 15.8647 156.442 19.3539 155.895C20.6718 146.492 20.8465 135.915 20.6718 126.341C20.6718 126.453 17.7987 117.217 17.7987 117.217C17.7987 117.217 19.0475 124.43 18.6191 128.772C18.1776 133.256 16.5368 134.581 15.9042 139.645C15.5352 142.611 17.0113 144.825 16.4742 147.919C15.9075 151.174 13.4133 153.19 10.9751 155.378C10.6226 155.688 10.1844 156.017 9.79886 156.347Z" fill="#242236"/>
<path d="M20.8168 126.897L21.0804 126.805C19.9107 123.451 18.774 119.991 17.746 116.525L17.4791 116.608C18.5236 120.077 19.6471 123.54 20.8168 126.897Z" fill="#2D313D"/>
<path d="M32.7276 154.37C32.9484 154.788 33.1691 155.207 33.3866 155.625C36.8527 156.37 40.8428 156.228 45.1096 155.625C42.698 144.847 39.5518 134.247 35.693 123.899C35.3964 127.033 36.1674 130.298 37.09 133.359C38.3025 137.382 39.7818 141.484 39.3964 145.671C39.1295 148.706 37.5644 151.932 34.9022 153.579C34.2214 153.951 33.4882 154.217 32.7276 154.37Z" fill="#242236"/>
<path d="M40.0224 137.036L40.2893 136.953C37.0109 126.364 33.2877 116.677 29.2219 108.209L28.9715 108.328C33.0308 116.782 36.7506 126.443 40.0224 137.036Z" fill="#2D313D"/>
<path d="M34.5958 100.035C34.3019 100.034 34.0082 100.018 33.7161 99.9852C29.156 99.4778 25.8283 92.5454 24.6125 89.5867L24.8398 89.4944C26.0424 92.4103 29.3142 99.2471 33.7359 99.7414C34.6074 99.8627 35.4947 99.8024 36.3418 99.5643C37.189 99.3261 37.9777 98.9152 38.6584 98.3575C42.3453 95.3493 43.0042 88.585 43.0108 88.5158L43.2579 88.5389C43.2579 88.6081 42.5825 95.4745 38.8132 98.5486C37.6276 99.5276 36.1332 100.054 34.5958 100.035Z" fill="#2D313D"/>
<path d="M52.6713 37.8445V53.0008C52.6704 53.9871 52.2782 54.9328 51.5808 55.6302C50.8834 56.3276 49.9377 56.7198 48.9514 56.7207H28.1939L23.6075 60.7964V56.7141H23.5021C22.5161 56.7132 21.5708 56.3209 20.8739 55.6234C20.177 54.9259 19.7855 53.9802 19.7855 52.9942V37.838C19.7873 36.8534 20.1796 35.9098 20.8764 35.2142C21.5732 34.5186 22.5175 34.128 23.5021 34.128H48.9481C49.4366 34.1275 49.9204 34.2233 50.3719 34.4099C50.8234 34.5964 51.2337 34.87 51.5794 35.2152C51.9252 35.5603 52.1995 35.9701 52.3869 36.4213C52.5742 36.8724 52.6709 37.356 52.6713 37.8445Z" fill="white"/>
<path d="M33.5744 47.5577C34.754 47.304 35.7062 46.6417 36.062 45.8345C36.1815 45.5606 36.2334 45.262 36.2133 44.9638C36.1932 44.6656 36.1018 44.3766 35.9467 44.1212C35.7159 43.7421 35.3997 43.4222 35.0232 43.1871C34.6468 42.952 34.2206 42.8081 33.7787 42.767C32.7192 42.6597 31.6557 42.9279 30.7738 43.5248C29.9863 44.0619 29.703 44.3387 29.3537 45.1195L29.8644 45.3502C30.1544 44.6912 30.3356 44.5034 31.0901 43.9894C31.8655 43.4702 32.7975 43.2372 33.726 43.3304C34.0795 43.3651 34.4205 43.4799 34.723 43.666C35.0256 43.8521 35.2818 44.1047 35.4722 44.4045C35.5828 44.5843 35.6485 44.7879 35.664 44.9983C35.6795 45.2087 35.6442 45.4198 35.5612 45.6138C35.2811 46.2497 34.4607 46.7999 33.469 47.0141L33.5744 47.5577Z" fill="#363347"/>
<path d="M27.3307 49.7817C26.6719 49.0642 26.2808 48.1414 26.2236 47.1689C26.1177 46.9648 26.0263 46.7534 25.9501 46.5363C25.7279 45.9157 25.6486 45.253 25.7182 44.5975C25.7878 43.942 26.0045 43.3106 26.3521 42.7506C27.9007 40.2201 31.9533 38.6913 35.6073 39.2712C39.1855 39.8412 41.8972 42.309 42.0586 45.1393C42.2102 47.8345 39.9631 50.556 36.7111 51.617C35.6926 51.9404 34.6298 52.1027 33.5612 52.098C31.0802 52.098 28.675 51.2611 27.3307 49.7817ZM26.8299 43.0438C26.307 43.8885 26.1333 44.9035 26.3455 45.8741C26.6745 44.6603 27.3964 43.5897 28.3982 42.8296C29.3274 42.0949 31.0077 41.3568 31.9237 41.2778C33.1955 41.169 35.0406 41.1921 36.6221 41.917C37.2427 42.1782 37.7908 42.5859 38.2194 43.1052C38.6481 43.6245 38.9445 44.2399 39.0834 44.8988C39.1947 45.5127 39.1557 46.1444 38.9698 46.74C38.7839 47.3356 38.4566 47.8773 38.0158 48.3188C36.1575 50.2496 32.3289 50.9712 29.4789 49.9234C28.5644 49.5959 27.7387 49.0601 27.0671 48.3584C27.2337 48.7426 27.4644 49.0958 27.7491 49.4028C29.5316 51.3797 33.3932 52.1079 36.5365 51.0832C39.5479 50.0948 41.6369 47.6137 41.4985 45.1723C41.3535 42.6451 38.7835 40.3453 35.5184 39.8247C35.0377 39.7494 34.5519 39.712 34.0653 39.7127C31.0802 39.7094 28.0457 41.0603 26.8299 43.0438ZM31.9698 41.8379C31.1593 41.9071 29.5909 42.6023 28.7442 43.2711C28.2089 43.6695 27.7602 44.1725 27.4254 44.7497C27.0907 45.3269 26.8768 45.9661 26.7969 46.6286C26.7969 46.7637 26.7969 46.8922 26.7969 47.024C27.4439 48.1401 28.4725 48.985 29.6931 49.4028C32.3092 50.3616 35.9533 49.6928 37.6303 47.9366C38.0093 47.56 38.291 47.0969 38.4511 46.5872C38.6113 46.0775 38.6451 45.5365 38.5496 45.0108C38.426 44.4404 38.1664 43.9082 37.793 43.4596C37.4195 43.011 36.9432 42.6593 36.4047 42.4343C35.3376 41.9862 34.1877 41.7695 33.0307 41.7983C32.6716 41.7918 32.3257 41.8082 31.9698 41.8379Z" fill="#363347"/>
<path d="M45.2843 47.8872C46.0501 47.2521 46.6305 46.4224 46.9646 45.4852C47.2377 44.7594 47.3142 43.9743 47.1863 43.2094C47.0584 42.4446 46.7308 41.727 46.2365 41.1295C45.5511 40.3025 44.1904 39.5018 42.5891 38.9878L42.4178 39.5249C43.9202 40.0059 45.1854 40.7374 45.8016 41.4853C46.2378 42.0068 46.5286 42.6344 46.6443 43.3044C46.76 43.9744 46.6966 44.6631 46.4605 45.3007C46.1579 46.143 45.6344 46.8884 44.9449 47.4589L45.2843 47.8872Z" fill="#363347"/>
<path d="M40.7703 50.3385C43.4062 50.3385 45.2414 49.4028 46.22 48.2496C46.8493 47.5116 47.0964 46.5692 46.9778 45.3666C46.8739 44.5552 46.5735 43.7814 46.1027 43.1125C45.6319 42.4436 45.0048 41.8997 44.276 41.5281L44.0059 42.0224C44.6545 42.3497 45.2134 42.8306 45.6337 43.4232C46.0541 44.0158 46.3232 44.7022 46.4177 45.4226C46.5198 46.4638 46.3155 47.271 45.7917 47.8872C44.4408 49.4786 41.2514 50.6054 36.3552 48.9975L36.1806 49.5313C37.6584 50.0406 39.2074 50.3131 40.7703 50.3385Z" fill="#363347"/>
<path d="M30.5695 50.2067L30.988 49.8278C32.6782 51.6927 36.5002 53.0568 39.7193 52.0057C42.9383 50.9547 45.1953 48.4407 45.0635 46.1212C44.9185 43.594 42.3486 41.2942 39.0834 40.7736C35.7095 40.2366 31.8117 41.6797 30.3982 43.996C30.096 44.4836 29.9077 45.0331 29.8472 45.6035C29.7868 46.174 29.8557 46.7507 30.0489 47.2908C30.3224 48.0025 30.7503 48.6447 31.3018 49.1711C31.8533 49.6976 32.5147 50.0951 33.2383 50.3352C35.8544 51.294 39.4985 50.6252 41.1756 48.869C41.5551 48.4928 41.8375 48.0298 41.9982 47.5201C42.1589 47.0103 42.1932 46.4692 42.0982 45.9432C41.9745 45.3728 41.7149 44.8406 41.3415 44.392C40.9681 43.9434 40.4918 43.5917 39.9532 43.3667C38.5721 42.7691 37.0212 42.6918 35.5875 43.1492C34.2433 43.6072 33.2812 44.6055 33.1823 45.6072C33.498 45.1603 33.8908 44.7731 34.3421 44.4638C35.2229 43.8646 36.2873 43.5961 37.347 43.706C37.7882 43.7481 38.2135 43.8924 38.5893 44.1275C38.965 44.3625 39.2808 44.6819 39.5117 45.0602C39.6666 45.3157 39.7581 45.6045 39.7787 45.9025C39.7994 46.2005 39.7485 46.4992 39.6303 46.7735C39.0801 48.0157 37.179 48.8295 35.4722 48.5494C34.9888 48.4821 34.5239 48.3179 34.1055 48.0665C33.6871 47.8151 33.3238 47.4818 33.0373 47.0865C32.9051 47.3837 32.8351 47.7048 32.8317 48.0301C32.8283 48.3554 32.8916 48.6779 33.0176 48.9778C33.1879 49.306 33.4456 49.5808 33.7622 49.7718L33.4624 50.2496C33.0568 50.0007 32.7274 49.645 32.5102 49.2216C32.1477 48.4605 32.1807 47.5544 32.6584 46.5264L32.7112 46.4078C32.6414 46.1783 32.6092 45.9391 32.6156 45.6994C32.6486 44.4342 33.7952 43.1657 35.4063 42.6154C36.9755 42.1062 38.6771 42.1918 40.1872 42.856C40.8058 43.1157 41.3526 43.5208 41.7811 44.0371C42.2096 44.5534 42.5071 45.1654 42.6484 45.8213C42.7645 46.4388 42.7279 47.0752 42.5419 47.6753C42.3558 48.2754 42.0259 48.821 41.5809 49.2644C39.7259 51.1952 35.894 51.9168 33.0439 50.869C32.2421 50.6 31.5099 50.1568 30.8997 49.5712C30.2896 48.9855 29.8167 48.272 29.5152 47.4819C29.2938 46.8612 29.2151 46.1986 29.2846 45.5432C29.3542 44.8879 29.5704 44.2566 29.9171 43.6961C31.469 41.1657 35.5184 39.6369 39.1723 40.2168C42.7505 40.7868 45.4622 43.2546 45.6236 46.0849C45.7686 48.6516 43.3172 51.4258 39.8939 52.5395C39.0725 52.8001 38.2153 52.9302 37.3536 52.925C34.6353 52.9283 31.9468 51.7224 30.5695 50.2067ZM34.6584 44.935C34.0979 45.3239 33.64 45.8428 33.324 46.4473C33.5458 46.8669 33.865 47.2272 34.2548 47.4978C34.6447 47.7684 35.0938 47.9415 35.5645 48.0025C37.0109 48.2397 38.6715 47.561 39.1163 46.5528C39.1989 46.3586 39.2336 46.1474 39.2175 45.9369C39.2015 45.7265 39.1351 45.523 39.0241 45.3436C38.8342 45.0432 38.5781 44.7902 38.2755 44.6041C37.9728 44.4179 37.6315 44.3034 37.2778 44.2694C37.1477 44.2534 37.0168 44.2457 36.8857 44.2464C36.0919 44.2563 35.3181 44.4967 34.6584 44.9383V44.935Z" fill="#363347"/>
<path d="M28.6882 47.617C28.3011 47.1652 28.0238 46.6301 27.8781 46.0533C27.7323 45.4766 27.722 44.8739 27.848 44.2925C27.923 43.8521 28.0491 43.422 28.2236 43.0108C28.0625 41.982 28.2765 40.9296 28.8265 40.0454C30.3026 37.6303 34.0291 36.375 37.8873 36.9911C41.7456 37.6073 44.3815 39.7885 44.533 42.4342C44.6846 45.08 42.4375 47.8509 39.1855 48.9086C37.7983 49.3362 36.3538 49.5484 34.9022 49.5379C32.3586 49.5214 29.871 48.9119 28.6882 47.617ZM29.3043 40.3288C28.9902 40.8378 28.7995 41.4133 28.7475 42.0092C29.4095 40.9692 30.3257 40.1153 31.4097 39.5282L31.6766 40.0224C30.4171 40.7108 29.4113 41.7847 28.8068 43.0866C28.8434 43.2721 28.893 43.4549 28.955 43.6335C29.2287 44.3457 29.657 44.9882 30.2091 45.5147C30.7612 46.0412 31.4234 46.4385 32.1477 46.678C34.7638 47.64 38.4079 46.9679 40.085 45.2118C40.464 44.8351 40.7457 44.372 40.9058 43.8623C41.0659 43.3526 41.0997 42.8116 41.0043 42.2859C40.8806 41.7155 40.6211 41.1833 40.2476 40.7347C39.8742 40.2861 39.3979 39.9344 38.8593 39.7094C37.4793 39.1117 35.9295 39.0344 34.497 39.4919C33.1032 39.9664 32.1115 41.0207 32.0851 42.0586L31.5217 42.0421C31.5547 40.7769 32.7046 39.5084 34.3157 38.9614C35.8845 38.4512 37.586 38.5356 39.0965 39.1987C39.7171 39.4609 40.265 39.8694 40.6935 40.3892C41.1221 40.9089 41.4186 41.5247 41.5578 42.1838C41.6688 42.7977 41.6297 43.4293 41.4439 44.0249C41.258 44.6204 40.9308 45.1621 40.4903 45.6038C38.632 47.5346 34.8034 48.2397 31.9533 47.2051C31.1809 46.9458 30.4725 46.5253 29.8749 45.9715C29.2774 45.4177 28.8043 44.7432 28.4872 43.9927C28.4509 44.1278 28.4246 44.2595 28.4015 44.3946C28.2902 44.8924 28.2959 45.4091 28.4183 45.9043C28.5406 46.3994 28.7762 46.8594 29.1066 47.248C30.8496 49.1689 35.7754 49.4259 39.0109 48.3715C42.0224 47.3831 44.1113 44.9053 43.9729 42.4606C43.8378 40.0883 41.3568 38.1114 37.7984 37.5414C37.1989 37.4472 36.593 37.3999 35.9862 37.3997C33.0571 37.403 30.4212 38.5035 29.3043 40.3222V40.3288Z" fill="#363347"/>
<path d="M33.6963 54.1803C33.927 53.976 34.1708 53.7652 34.4245 53.5642C35.3724 52.8084 36.461 52.2484 37.6271 51.9168C42.9812 50.4473 42.2399 46.7669 42.2102 46.6088L42.7604 46.4869C42.7604 46.5297 43.6632 50.8459 37.7753 52.4604C36.6821 52.7687 35.6608 53.2905 34.7705 53.9958C34.5266 54.1869 34.2927 54.3912 34.0654 54.5922L33.6963 54.1803Z" fill="#363347"/>
<path d="M23.7723 60.7964H23.4428V56.8788H23.3011C22.4932 56.8786 21.7055 56.6264 21.0476 56.1575C20.3898 55.6887 19.8945 55.0263 19.6306 54.2627L19.9404 54.1573C20.1831 54.8554 20.637 55.4608 21.2392 55.8894C21.8414 56.318 22.562 56.5486 23.3011 56.5493H23.7723V60.7964Z" fill="#2D313D"/>
<path d="M19.7493 51.1886H19.4198V37.8445C19.4207 36.8154 19.8299 35.8287 20.5576 35.101C21.2853 34.3733 22.272 33.9641 23.3011 33.9632H29.4328V34.2927H23.3011C22.3594 34.2936 21.4565 34.668 20.7906 35.334C20.1246 35.9999 19.7502 36.9028 19.7493 37.8445V51.1886Z" fill="#2D313D"/>
<path d="M38.7869 33.9632H32.9319V34.2927H38.7869V33.9632Z" fill="#2D313D"/>
<path d="M146.653 40.6287V43.2085H60.8227V40.6287C60.8444 39.5372 61.2982 38.4988 62.0845 37.7415C62.8708 36.9842 63.9255 36.5698 65.0171 36.5892H142.472C143.561 36.5733 144.613 36.9893 145.396 37.7462C146.18 38.5032 146.632 39.5395 146.653 40.6287Z" fill="#657786"/>
<path d="M146.653 43.2085V105.076C146.631 106.165 146.179 107.2 145.395 107.957C144.612 108.714 143.561 109.13 142.472 109.115H65.017C63.9274 109.131 62.8758 108.715 62.0918 107.958C61.3078 107.201 60.8551 106.165 60.8326 105.076V43.2085H146.653Z" fill="#F5CDFF"/>
<path d="M103.277 42.8296C103.277 42.8296 101.758 41.0603 102.618 39.8445C102.618 39.8445 100.18 34.2729 105.28 34.095C105.28 34.095 106.16 29.1231 114.301 33.5711C114.301 33.5711 121.141 32.4245 118.331 43.3074C118.743 45.7126 118.967 48.5791 116.248 48.6285L103.277 42.8296Z" fill="#2D313D"/>
<path d="M117.553 55.4719L116.163 45.4161L108.997 49.561L108.338 55.6465L104.921 56.8623C107.287 59.9397 115.843 60.7041 119.774 56.0881L117.553 55.4719Z" fill="#F0AB8F"/>
<path d="M108.479 54.2067C112.7 52.8228 113.57 49.4259 113.57 49.4259L108.838 50.8756L108.479 54.2067Z" fill="#2D313D"/>
<path d="M115.207 43.4688C115.207 43.4688 115.975 38.5793 113.145 36.9615C110.314 35.3437 104.713 35.2614 103.59 39.09C102.947 41.2613 103.445 47.0898 103.942 49.4226C104.39 51.5181 105.992 53.093 108.074 53.093C113.016 53.093 115.02 46.8328 115.02 46.8328L115.207 43.4688Z" fill="#F0AB8F"/>
<path d="M129.899 109.23H97.3889C97.8732 104.618 98.2752 100.947 98.5486 98.7727H129.309L129.899 109.23Z" fill="#253B3E"/>
<path d="M118.815 55.7322C118.815 55.7322 107.801 60.9084 107.026 56.1144L105.254 56.7075L102.249 101.936C107.712 103.791 115.593 103.142 123.995 101.936L124.301 60.3087L121.955 56.3879L118.815 55.7322Z" fill="#5D76AD"/>
<path d="M107.168 109.389H95.2703L96.4663 92.0282L99.4316 63.8836C99.4514 64.1868 107.033 56.1144 107.033 56.1144C107.033 56.1144 107.237 65.2609 107.504 71.6002C107.909 81.2474 107.168 109.389 107.168 109.389Z" fill="white"/>
<path d="M116.067 109.389C116.067 109.389 115.464 80.7236 115.738 72.124C115.965 65.106 117.125 60.2626 117.935 57.6762C118.153 56.9974 118.341 56.4735 118.479 56.1045C118.522 55.9991 118.558 55.9101 118.588 55.831L118.614 55.7717C118.654 55.6795 118.683 55.6037 118.706 55.5477L118.762 55.4324L119.145 55.8047L119.306 55.9628L119.613 56.2594L124.285 60.826L125.049 61.5772L125.306 61.8277L129.484 65.9067L131.985 80.2359L134.014 91.9359L135.527 100.562L135.569 100.819L137.026 109.385L116.067 109.389Z" fill="white"/>
<path d="M84.1469 71.531C83.7845 71.1158 82.5786 69.8242 82.4633 69.2872C82.3479 68.7501 82.1338 66.0187 81.5407 66.1208C80.9476 66.223 81.4847 68.0977 80.9905 68.0977C80.684 68.0977 79.5308 64.4438 78.9015 64.8424C78.4864 65.1027 79.4847 67.2213 79.231 67.2773C78.9773 67.3333 78.2986 64.4602 77.666 64.8194C77.0334 65.1785 78.829 67.9033 78.5127 68.0582C78.3546 68.134 77.0004 64.8095 76.493 65.1126C75.811 65.5212 77.6363 68.045 77.3398 68.2559C77.1948 68.3613 76.7105 67.3531 76.3513 66.793C76.1503 66.48 75.8637 66.5953 75.8867 66.8457C76.1108 69.4486 79.4221 72.5919 79.5902 73.0038C79.8384 73.6166 80.0943 74.2108 80.3578 74.7863L84.1469 71.531Z" fill="#F0AB8F"/>
<path d="M110.173 58.3582C113.669 58.3582 118.647 56.0518 118.904 55.92L118.729 55.5477C118.654 55.5839 111.132 59.0831 108.262 57.5674C107.98 57.4244 107.738 57.2138 107.558 56.9545C107.377 56.6952 107.264 56.3953 107.227 56.0815L106.822 56.1474C106.869 56.5239 107.006 56.8833 107.224 57.1945C107.441 57.5057 107.73 57.7592 108.067 57.9332C108.725 58.2398 109.447 58.3855 110.173 58.3582Z" fill="#5D567C"/>
<path d="M115.247 47.2052C115.247 47.2052 117.814 47.4259 117.794 45.1657C117.774 43.1261 115.293 42.8593 114.733 43.884L115.247 47.2052Z" fill="#F0AB8F"/>
<path d="M101.56 89.7086C101.56 89.7086 88.361 98.1401 82.6609 83.8602C81.1684 80.1173 79.2047 73.8308 79.2047 73.8308L83.9953 70.1339L90.9145 76.9114C90.9145 76.9114 92.8387 71.3333 94.2884 66.8655C96.2489 60.8293 100.783 57.5543 107.155 55.8245L101.56 89.7086Z" fill="white"/>
<path d="M115.738 43.3074C115.451 43.4284 115.212 43.6396 115.056 43.9089C114.9 44.1783 114.836 44.4911 114.875 44.7999C114.707 44.8214 114.537 44.8064 114.376 44.756C114.216 44.7056 114.067 44.6211 113.942 44.5081C113.817 44.3951 113.718 44.2564 113.651 44.1015C113.585 43.9466 113.552 43.7791 113.557 43.6105C113.52 42.2926 113.405 40.23 113.405 40.23C113.405 40.23 113.053 38.5628 110.657 38.4607C110.657 38.4607 109.774 41.0603 107.382 40.1773C107.382 40.1773 106.064 42.566 103.257 41.2679C103.257 41.2679 102.377 36.0686 107.013 35.1823C111.649 34.296 114.72 35.548 115.079 37.1592C115.537 39.1559 115.738 43.3074 115.738 43.3074Z" fill="#2D313D"/>
<path d="M107.191 71.5375C107.191 67.8407 105.158 63.3795 104.858 62.7436L105.432 61.5311L103.784 61.3697C104.331 59.7223 106.058 57.9628 106.074 57.943L105.827 57.6959C105.748 57.775 103.876 59.6728 103.385 61.4751L103.329 61.6761L104.904 61.8309L104.473 62.7436L104.512 62.8194C104.535 62.8688 106.845 67.6463 106.842 71.5375H107.191Z" fill="#2D313D"/>
<path d="M99.9167 77.378L98.7228 87.6812L99.0697 87.7214L100.264 77.4182L99.9167 77.378Z" fill="#433A60"/>
<path d="M106.315 79.7351C106.162 79.7351 106.013 79.7803 105.886 79.865C105.759 79.9498 105.661 80.0702 105.602 80.2111C105.544 80.3519 105.529 80.507 105.558 80.6565C105.588 80.8061 105.662 80.9434 105.769 81.0513C105.877 81.1591 106.015 81.2325 106.164 81.2623C106.314 81.292 106.469 81.2768 106.61 81.2184C106.75 81.16 106.871 81.0612 106.956 80.9344C107.04 80.8076 107.086 80.6586 107.086 80.5061C107.085 80.3019 107.003 80.1063 106.859 79.9619C106.714 79.8175 106.519 79.736 106.315 79.7351ZM106.315 80.8652C106.265 80.87 106.214 80.8643 106.167 80.8486C106.119 80.8328 106.076 80.8072 106.039 80.7736C106.002 80.7399 105.972 80.6989 105.952 80.6531C105.932 80.6073 105.921 80.5578 105.921 80.5077C105.921 80.4577 105.932 80.4082 105.952 80.3624C105.972 80.3166 106.002 80.2756 106.039 80.2419C106.076 80.2083 106.119 80.1827 106.167 80.1669C106.214 80.1511 106.265 80.1455 106.315 80.1503C106.403 80.1588 106.486 80.2001 106.546 80.2662C106.606 80.3323 106.639 80.4184 106.639 80.5077C106.639 80.597 106.606 80.6831 106.546 80.7492C106.486 80.8153 106.403 80.8567 106.315 80.8652Z" fill="#323847"/>
<path d="M118.502 43.3832C118.608 43.1624 121.085 37.9928 119.188 35.1461C118.331 33.8611 116.716 33.2713 114.394 33.3866C113.448 32.2952 112.118 31.6097 110.68 31.4723C108.878 31.3405 107.026 32.1774 105.171 33.9533L105.415 34.207C107.191 32.5036 108.954 31.703 110.651 31.8216C112.018 31.9582 113.28 32.6181 114.173 33.6634L114.232 33.7359H114.324C116.562 33.6074 118.1 34.1444 118.894 35.3339C120.68 38.0126 118.212 43.169 118.186 43.2184L118.502 43.3832Z" fill="#2D313D"/>
<path d="M100.374 69.3959C100.492 68.4925 100.55 67.5822 100.549 66.6711C100.549 64.6942 100.255 62.0122 98.855 60.5987L98.5947 60.859C99.9127 62.1769 100.18 64.7502 100.18 66.6711C100.18 67.5633 100.124 68.4547 100.012 69.3399L100.374 69.3959Z" fill="#2D313D"/>
<path d="M110.641 93.7876L95.1352 93.669C94.8869 93.6673 94.6475 93.576 94.4611 93.412C94.2747 93.2479 94.1537 93.0221 94.1204 92.7761L91.1155 70.2921C91.0951 70.1457 91.1065 69.9966 91.149 69.8551C91.1914 69.7135 91.2639 69.5828 91.3615 69.4717C91.4591 69.3607 91.5794 69.2721 91.7144 69.2118C91.8493 69.1515 91.9957 69.121 92.1435 69.1224L107.649 69.241C107.897 69.2421 108.137 69.3331 108.324 69.4972C108.51 69.6614 108.631 69.8876 108.664 70.1339L111.672 92.6179C111.691 92.7644 111.679 92.9133 111.636 93.0546C111.593 93.196 111.52 93.3264 111.422 93.4372C111.325 93.5481 111.204 93.6367 111.069 93.6971C110.935 93.7575 110.788 93.7884 110.641 93.7876Z" fill="#555B6E"/>
<path d="M112.545 81.1684C112.018 81.0036 110.311 80.5391 109.932 80.1437C109.553 79.7483 107.926 77.5408 107.481 77.9328C107.036 78.3249 108.469 79.6462 108.054 79.9097C107.797 80.0712 104.895 77.5671 104.568 78.2393C104.354 78.6808 106.315 79.9559 106.12 80.1437C105.926 80.3315 103.847 78.2393 103.484 78.8752C103.122 79.5111 106.094 80.8883 105.906 81.1815C105.814 81.3298 102.914 79.2046 102.641 79.7384C102.275 80.4435 105.155 81.6296 105.016 81.9657C104.947 82.1305 104.005 81.5308 103.399 81.2441C103.069 81.086 102.881 81.3331 103.03 81.5341C104.591 83.6329 109.059 84.5653 109.418 84.8289C109.952 85.221 110.483 85.59 111.01 85.9426L112.545 81.1684Z" fill="#F0AB8F"/>
<path d="M125.675 81.7614L111.702 79.9361L109.435 86.2622C109.435 86.2622 116.519 92.7036 124.825 95.0429C128.383 96.0479 133.095 96.575 136.627 93.8172C144.37 87.7745 140.877 74.839 134.268 63.5047C130.522 57.0831 118.782 55.4258 118.782 55.4258L125.675 81.7614Z" fill="white"/>
<path d="M116.436 71.9988C117.646 65.8375 120.674 63.0303 120.72 63.0006L120.815 62.9117L120.041 61.4092L121.688 61.452L121.669 61.2544C121.418 58.6185 119.323 56.7404 119.234 56.6646L119.003 56.9282C119.023 56.9447 120.98 58.6844 121.309 61.0896L119.464 61.0435L120.36 62.8293C119.817 63.3663 117.207 66.19 116.077 71.923L116.436 71.9988Z" fill="#2D313D"/>
<path d="M124.156 69.3399L124.519 69.2839C124.364 68.3217 124.284 67.349 124.278 66.3745C124.278 59.7157 128.719 59.5476 128.911 59.5443V59.1753C128.858 59.1753 123.916 59.3434 123.916 66.3745C123.92 67.3677 124 68.359 124.156 69.3399Z" fill="#2D313D"/>
<path d="M111.712 79.7709L111.669 80.0976L125.642 81.9223L125.685 81.5956L111.712 79.7709Z" fill="#2D313D"/>
<path d="M130.136 96.0182C128.321 95.9927 126.519 95.7177 124.779 95.2011L124.871 94.8716C128.601 95.9227 131.79 95.9457 134.324 94.9342C135.115 94.6211 135.858 94.1962 136.528 93.6723L136.729 93.9326C136.035 94.4784 135.266 94.9222 134.446 95.2505C133.071 95.7778 131.609 96.0383 130.136 96.0182Z" fill="#2D313D"/>
<path d="M124.779 95.2011C116.542 92.8782 109.395 86.45 109.323 86.3841L109.547 86.1403C109.616 86.2062 116.697 92.5817 124.871 94.8848L124.779 95.2011Z" fill="#2D313D"/>
<path d="M125.963 73.7998L125.641 73.8685L127.277 81.5477L127.599 81.479L125.963 73.7998Z" fill="#2D313D"/>
<path d="M67.8242 39.8972C67.8249 40.1842 67.7403 40.4649 67.5813 40.7038C67.4222 40.9428 67.1959 41.1291 66.9308 41.2392C66.6658 41.3494 66.374 41.3783 66.0925 41.3225C65.811 41.2667 65.5523 41.1285 65.3494 40.9256C65.1465 40.7226 65.0083 40.464 64.9525 40.1825C64.8967 39.901 64.9256 39.6092 65.0358 39.3442C65.1459 39.0791 65.3322 38.8527 65.5711 38.6937C65.8101 38.5347 66.0908 38.4501 66.3778 38.4507C66.7614 38.4507 67.1293 38.6031 67.4006 38.8744C67.6718 39.1457 67.8242 39.5136 67.8242 39.8972Z" fill="white"/>
<path d="M72.0581 39.8972C72.0588 40.1842 71.9742 40.4649 71.8152 40.7038C71.6561 40.9428 71.4297 41.1291 71.1647 41.2392C70.8997 41.3494 70.6079 41.3783 70.3264 41.3225C70.0449 41.2667 69.7862 41.1285 69.5833 40.9256C69.3803 40.7226 69.2422 40.464 69.1864 40.1825C69.1305 39.901 69.1595 39.6092 69.2697 39.3442C69.3798 39.0791 69.5661 38.8527 69.805 38.6937C70.0439 38.5347 70.3247 38.4501 70.6117 38.4507C70.995 38.4516 71.3624 38.6043 71.6335 38.8754C71.9046 39.1464 72.0573 39.5138 72.0581 39.8972Z" fill="white"/>
<path d="M76.292 39.8972C76.2927 40.1842 76.2081 40.4649 76.0491 40.7038C75.89 40.9428 75.6637 41.1291 75.3986 41.2392C75.1336 41.3494 74.8418 41.3783 74.5603 41.3225C74.2788 41.2667 74.0201 41.1285 73.8172 40.9256C73.6142 40.7226 73.4761 40.464 73.4203 40.1825C73.3644 39.901 73.3934 39.6092 73.5036 39.3442C73.6137 39.0791 73.8 38.8527 74.0389 38.6937C74.2779 38.5347 74.5586 38.4501 74.8456 38.4507C75.2289 38.4516 75.5963 38.6043 75.8674 38.8754C76.1385 39.1464 76.2912 39.5138 76.292 39.8972Z" fill="white"/>
<path d="M96.5882 70.2657C96.4273 70.2671 96.2715 70.2095 96.1501 70.1039C96.0287 69.9983 95.9501 69.8519 95.9292 69.6924L95.7184 68.246C95.7093 68.1797 95.7147 68.1122 95.7342 68.0481C95.7537 67.9841 95.7868 67.925 95.8312 67.8749C95.8757 67.8249 95.9304 67.785 95.9917 67.7581C96.0529 67.7311 96.1193 67.7177 96.1862 67.7188L103.198 67.7715C103.31 67.7722 103.419 67.8137 103.503 67.8882C103.587 67.9627 103.641 68.0652 103.656 68.1768L103.834 69.4947C103.848 69.5894 103.842 69.6862 103.816 69.7784C103.79 69.8705 103.743 69.9558 103.681 70.0282C103.618 70.1007 103.54 70.1586 103.453 70.1979C103.365 70.2372 103.27 70.257 103.175 70.2558L96.5882 70.2657Z" fill="#2D313D"/>
<path d="M94.1398 79.6519L93.8132 79.6956L94.1754 82.4029L94.502 82.3592L94.1398 79.6519Z" fill="#2D313D"/>
<path d="M99.4251 92.16L96.5059 92.1204C96.2178 92.1175 95.9405 92.011 95.7245 91.8205C95.5085 91.6299 95.3684 91.368 95.3296 91.0826L94.4103 84.2095L94.7398 84.1634L95.6591 91.0397C95.6875 91.2465 95.7894 91.4361 95.946 91.574C96.1027 91.712 96.3037 91.7889 96.5124 91.7909L99.435 91.8305L99.4251 92.16Z" fill="#2D313D"/>
<path d="M101.457 91.8693L101.453 92.1988L105.163 92.2499L105.167 91.9205L101.457 91.8693Z" fill="#2D313D"/>
<path d="M99.7908 43.0438H64.1768V43.3732H99.7908V43.0438Z" fill="#2D313D"/>
<path d="M146.818 40.6287H146.489C146.47 39.5812 146.037 38.5837 145.284 37.8553C144.531 37.127 143.52 36.7273 142.472 36.744H123.965V36.4146H142.472C143.607 36.3978 144.702 36.8322 145.517 37.6224C146.332 38.4125 146.8 39.4938 146.818 40.6287Z" fill="#2D313D"/>
<path d="M60.9875 40.6287H60.658C60.667 40.0656 60.787 39.5098 61.011 38.9931C61.235 38.4765 61.5588 38.0091 61.9636 37.6177C62.3685 37.2262 62.8466 36.9185 63.3706 36.7121C63.8945 36.5056 64.454 36.4045 65.0171 36.4146H97.4679V36.744H65.0171C64.4973 36.734 63.9806 36.8266 63.4966 37.0164C63.0127 37.2063 62.5709 37.4898 62.1966 37.8506C61.8223 38.2114 61.5229 38.6425 61.3154 39.1192C61.1079 39.5959 60.9965 40.1088 60.9875 40.6287Z" fill="#2D313D"/>
<path d="M60.9875 53.4983H60.658V62.7601H60.9875V53.4983Z" fill="#2D313D"/>
<path d="M146.818 105.076H146.489V43.3732H122.212V43.0438H146.818V105.076Z" fill="#2D313D"/>
<path d="M142.472 109.28H65.0171C63.8833 109.298 62.7888 108.865 61.9735 108.077C61.1582 107.289 60.6887 106.209 60.6679 105.076V68.4832H60.9974V105.076C61.0182 106.122 61.453 107.117 62.2064 107.844C62.9599 108.57 63.9707 108.968 65.0171 108.95H142.472V109.28Z" fill="#2D313D"/>
<path d="M198.04 163.216H0V163.875H198.04V163.216Z" fill="#2D313D"/>
<path d="M47.6006 119.195L42.2282 120.684L42.4042 121.319L47.7765 119.83L47.6006 119.195Z" fill="white"/>
<path d="M172.129 43.5624L171.79 44.1272L176.568 46.9993L176.907 46.4345L172.129 43.5624Z" fill="#8DBEE2"/>
<path d="M41.5318 20.941L41.0658 21.407L45.0078 25.349L45.4738 24.883L41.5318 20.941Z" fill="#8DBEE2"/>
<g opacity="0.6">
<path d="M40.4739 64.4956L39.8545 64.713L41.6942 69.9534L42.3136 69.7359L40.4739 64.4956Z" fill="#DF6659"/>
</g>
<g opacity="0.6">
<path d="M57.2395 119.622L56.6204 119.847L58.528 125.086L59.1472 124.86L57.2395 119.622Z" fill="#DF6659"/>
</g>
<path d="M119.4 11.5773L116.204 16.1451L116.744 16.5228L119.94 11.9551L119.4 11.5773Z" fill="white"/>
<g opacity="0.6">
<path d="M166.755 52.629L164.927 57.8957L165.55 58.1118L167.378 52.8451L166.755 52.629Z" fill="#DF6659"/>
</g>
<path d="M71.5309 4.07242V19.9931C71.5327 21.0283 71.9451 22.0206 72.6778 22.752C73.4104 23.4834 74.4034 23.8942 75.4386 23.8942H97.2636L102.077 28.1775V23.8942H102.183C103.219 23.8942 104.213 23.4825 104.946 22.7496C105.679 22.0168 106.09 21.0229 106.09 19.9865V4.07242C106.089 3.03718 105.676 2.04494 104.944 1.31353C104.211 0.582121 103.218 0.171324 102.183 0.171326H75.4386C74.4034 0.171324 73.4104 0.582121 72.6778 1.31353C71.9451 2.04494 71.5327 3.03718 71.5309 4.07242Z" fill="#F5CDFF"/>
<path d="M100.091 5.56827H77.5309V6.22724H100.091V5.56827Z" fill="white"/>
<path d="M100.091 9.68353H77.5309V10.3425H100.091V9.68353Z" fill="white"/>
<path d="M100.091 13.7988H77.5309V14.4578H100.091V13.7988Z" fill="white"/>
<path d="M93.5735 17.914H77.5309V18.573H93.5735V17.914Z" fill="white"/>
<path d="M71.6957 19.9931H71.3662V4.07242C71.3671 2.99262 71.7964 1.95729 72.56 1.19375C73.3235 0.43021 74.3588 0.00087257 75.4386 0H102.183V0.329484H75.4386C74.4465 0.331226 73.4955 0.726129 72.7939 1.42769C72.0923 2.12925 71.6974 3.08027 71.6957 4.07242V19.9931Z" fill="#2D313D"/>
<path d="M102.249 28.5465L97.1549 24.026L97.3757 23.7788L101.919 27.8117V23.736H102.189C103.182 23.7351 104.133 23.3405 104.835 22.6388C105.537 21.937 105.931 20.9855 105.932 19.9931V4.07242H106.262V19.9931C106.261 21.0627 105.84 22.0892 105.089 22.851C104.338 23.6129 103.318 24.0491 102.249 24.0655V28.5465Z" fill="#2D313D"/>
<path d="M92.8057 23.7393H75.4386V24.0688H92.8057V23.7393Z" fill="#2D313D"/>
</g>
<defs>
<clipPath id="clip0_260_12806">
<rect width="202" height="163.875" fill="white"/>
</clipPath>
</defs>
</svg>
