<svg width="100%" height="88" viewBox="0 0 375 88" fill="none" xmlns="http://www.w3.org/2000/svg">
<mask id="path-1-inside-1_745_19040" fill="white">
<path fill-rule="evenodd" clip-rule="evenodd" d="M92.5148 0H24C10.7452 0 0 10.7452 0 24V88H375V24C375 10.7452 364.255 0 351 0H282.52C249.195 4.51031 236.166 13.6744 225.249 21.353C215.398 28.2812 207.268 34 187.5 34C170.086 34 161.21 28.2007 150.584 21.2584C138.513 13.3717 124.185 4.00979 92.5148 0Z"/>
</mask>
<path fill-rule="evenodd" clip-rule="evenodd" d="M92.5148 0H24C10.7452 0 0 10.7452 0 24V88H375V24C375 10.7452 364.255 0 351 0H282.52C249.195 4.51031 236.166 13.6744 225.249 21.353C215.398 28.2812 207.268 34 187.5 34C170.086 34 161.21 28.2007 150.584 21.2584C138.513 13.3717 124.185 4.00979 92.5148 0Z" fill="#FBFCFF"/>
<path d="M92.5148 0L92.6404 -0.99208L92.5778 -1H92.5148V0ZM0 88H-1V89H0V88ZM375 88V89H376V88H375ZM282.52 0V-1H282.452L282.385 -0.990965L282.52 0ZM225.249 21.353L224.673 20.535L225.249 21.353ZM150.584 21.2584L151.131 20.4213L150.584 21.2584ZM24 1H92.5148V-1H24V1ZM1 24C1 11.2975 11.2975 1 24 1V-1C10.1929 -1 -1 10.1929 -1 24H1ZM1 88V24H-1V88H1ZM375 87H0V89H375V87ZM374 24V88H376V24H374ZM351 1C363.703 1 374 11.2975 374 24H376C376 10.1929 364.807 -1 351 -1V1ZM282.52 1H351V-1H282.52V1ZM282.385 -0.990965C265.65 1.27413 253.97 4.71345 245.083 8.57109C236.195 12.4295 230.137 16.6922 224.673 20.535L225.824 22.1709C231.278 18.3351 237.193 14.1766 245.88 10.4057C254.568 6.63406 266.065 3.23618 282.654 0.990965L282.385 -0.990965ZM224.673 20.535C219.738 24.0064 215.333 27.1001 209.722 29.3462C204.126 31.5861 197.282 33 187.5 33V35C197.486 35 204.59 33.5545 210.465 31.2029C216.324 28.8576 220.909 25.6278 225.824 22.1709L224.673 20.535ZM187.5 33C170.391 33 161.723 27.3413 151.131 20.4213L150.037 22.0956C160.697 29.0601 169.78 35 187.5 35V33ZM151.131 20.4213C138.994 12.4911 124.519 3.04411 92.6404 -0.99208L92.3892 0.99208C123.851 4.97547 138.033 14.2523 150.037 22.0956L151.131 20.4213Z" fill="#EFF5FF" mask="url(#path-1-inside-1_745_19040)"/>
</svg>
