<svg width="32" height="32" viewBox="0 0 32 32" fill="none" xmlns="http://www.w3.org/2000/svg">
<path d="M4.33325 12.8669C4.17769 12.7558 4.08303 12.6166 4.04925 12.4495C4.01547 12.2824 4.06569 12.1104 4.19992 11.9335C5.57769 10.0446 7.30569 8.57797 9.38392 7.53353C11.4621 6.48908 13.6786 5.96686 16.0332 5.96686C18.3888 5.96686 20.611 6.47264 22.6999 7.4842C24.7888 8.49575 26.5333 9.95664 27.9333 11.8669C28.0666 12.0669 28.1092 12.2446 28.0612 12.4002C28.0133 12.5558 27.9261 12.6891 27.7999 12.8002C27.6666 12.9113 27.511 12.9615 27.3333 12.9509C27.1555 12.9402 26.9999 12.8455 26.8666 12.6669C25.6444 10.9335 24.0719 9.60597 22.1493 8.6842C20.2266 7.76242 18.1879 7.30108 16.0332 7.3002C13.8777 7.3002 11.8555 7.76153 9.96658 8.6842C8.07769 9.60686 6.51103 10.9344 5.26658 12.6669C5.13325 12.8669 4.97769 12.978 4.79992 13.0002C4.62214 13.0224 4.46658 12.978 4.33325 12.8669ZM19.7999 29.3002C17.4888 28.7224 15.5999 27.5722 14.1333 25.8495C12.6666 24.1269 11.9332 22.0215 11.9332 19.5335C11.9332 18.4224 12.3333 17.4891 13.1333 16.7335C13.9333 15.978 14.8999 15.6002 16.0332 15.6002C17.1666 15.6002 18.1332 15.978 18.9332 16.7335C19.7332 17.4891 20.1333 18.4224 20.1333 19.5335C20.1333 20.2669 20.411 20.8838 20.9666 21.3842C21.5221 21.8846 22.1777 22.1344 22.9333 22.1335C23.6888 22.1335 24.3333 21.8833 24.8666 21.3829C25.3999 20.8824 25.6666 20.266 25.6666 19.5335C25.6666 16.9558 24.7221 14.7891 22.8333 13.0335C20.9444 11.278 18.6888 10.4002 16.0666 10.4002C13.4444 10.4002 11.1888 11.278 9.29992 13.0335C7.41103 14.7891 6.46658 16.9446 6.46658 19.5002C6.46658 20.0335 6.5168 20.7002 6.61725 21.5002C6.71769 22.3002 6.95636 23.2335 7.33325 24.3002C7.39992 24.5002 7.39458 24.678 7.31725 24.8335C7.23992 24.9891 7.11192 25.1002 6.93325 25.1669C6.75547 25.2335 6.58303 25.2278 6.41592 25.1495C6.2488 25.0713 6.13236 24.9438 6.06658 24.7669C5.73325 23.9002 5.49458 23.0389 5.35058 22.1829C5.20658 21.3269 5.13414 20.4438 5.13325 19.5335C5.13325 16.578 6.20569 14.1002 8.35058 12.1002C10.4955 10.1002 13.0564 9.10019 16.0332 9.10019C19.0332 9.10019 21.611 10.1002 23.7666 12.1002C25.9221 14.1002 26.9999 16.578 26.9999 19.5335C26.9999 20.6446 26.6057 21.5722 25.8173 22.3162C25.0288 23.0602 24.0675 23.4326 22.9333 23.4335C21.7999 23.4335 20.8275 23.0611 20.0159 22.3162C19.2044 21.5713 18.799 20.6438 18.7999 19.5335C18.7999 18.8002 18.5279 18.1833 17.9839 17.6829C17.4399 17.1824 16.7897 16.9326 16.0332 16.9335C15.2777 16.9335 14.6275 17.1838 14.0826 17.6842C13.5377 18.1846 13.2657 18.8011 13.2666 19.5335C13.2666 21.6891 13.9057 23.4891 15.1839 24.9335C16.4621 26.378 18.1119 27.3891 20.1333 27.9669C20.3333 28.0335 20.4666 28.1446 20.5332 28.3002C20.5999 28.4558 20.611 28.6224 20.5666 28.8002C20.5221 28.9558 20.4333 29.0891 20.2999 29.2002C20.1666 29.3113 19.9999 29.3446 19.7999 29.3002ZM8.66658 5.9002C8.48881 6.01131 8.31103 6.03931 8.13325 5.9842C7.95547 5.92908 7.82214 5.8122 7.73325 5.63353C7.64436 5.45575 7.62214 5.29486 7.66658 5.15086C7.71103 5.00686 7.82214 4.87886 7.99992 4.76686C9.24436 4.1002 10.5444 3.58908 11.8999 3.23353C13.2555 2.87797 14.6332 2.7002 16.0332 2.7002C17.4555 2.7002 18.8444 2.87264 20.1999 3.21753C21.5555 3.56242 22.8666 4.05664 24.1333 4.7002C24.3333 4.81131 24.4501 4.94464 24.4839 5.1002C24.5177 5.25575 24.5008 5.41131 24.4333 5.56686C24.3666 5.72242 24.2555 5.84464 24.0999 5.93353C23.9444 6.02242 23.7555 6.01131 23.5332 5.9002C22.3555 5.3002 21.1386 4.83886 19.8826 4.5162C18.6266 4.19353 17.3435 4.03264 16.0332 4.03353C14.7444 4.03353 13.4777 4.18375 12.2332 4.4842C10.9888 4.78464 9.79992 5.25664 8.66658 5.9002ZM12.5999 28.8335C11.2888 27.4558 10.283 26.05 9.58258 24.6162C8.88214 23.1824 8.53236 21.4882 8.53325 19.5335C8.53325 17.5113 9.26658 15.8055 10.7332 14.4162C12.1999 13.0269 13.9666 12.3326 16.0332 12.3335C18.0999 12.3335 19.8777 13.0282 21.3666 14.4175C22.8555 15.8069 23.5999 17.5122 23.5999 19.5335C23.5999 19.7335 23.5386 19.8949 23.4159 20.0175C23.2933 20.1402 23.1324 20.2011 22.9333 20.2002C22.7555 20.2002 22.5999 20.1389 22.4666 20.0162C22.3333 19.8935 22.2666 19.7326 22.2666 19.5335C22.2666 17.8669 21.6497 16.4722 20.4159 15.3495C19.1821 14.2269 17.7212 13.666 16.0332 13.6669C14.3444 13.6669 12.8941 14.2282 11.6826 15.3509C10.471 16.4735 9.86569 17.8678 9.86658 19.5335C9.86658 21.3335 10.1777 22.8615 10.7999 24.1175C11.4221 25.3735 12.3332 26.6344 13.5332 27.9002C13.6666 28.0335 13.7332 28.1891 13.7332 28.3669C13.7332 28.5446 13.6666 28.7002 13.5332 28.8335C13.3999 28.9669 13.2444 29.0335 13.0666 29.0335C12.8888 29.0335 12.7332 28.9669 12.5999 28.8335ZM22.6666 26.5669C20.6888 26.5669 18.9719 25.9002 17.5159 24.5669C16.0599 23.2335 15.3324 21.5558 15.3333 19.5335C15.3333 19.3558 15.3946 19.2002 15.5172 19.0669C15.6399 18.9335 15.8008 18.8669 15.9999 18.8669C16.1999 18.8669 16.3612 18.9335 16.4839 19.0669C16.6066 19.2002 16.6675 19.3558 16.6666 19.5335C16.6666 21.2002 17.2666 22.5669 18.4666 23.6335C19.6666 24.7002 21.0666 25.2335 22.6666 25.2335C22.7999 25.2335 22.9888 25.2224 23.2332 25.2002C23.4777 25.178 23.7332 25.1446 23.9999 25.1002C24.1999 25.0558 24.3724 25.0838 24.5173 25.1842C24.6621 25.2846 24.7564 25.4344 24.7999 25.6335C24.8444 25.8113 24.811 25.9669 24.6999 26.1002C24.5888 26.2335 24.4444 26.3224 24.2666 26.3669C23.8666 26.478 23.5168 26.5393 23.2173 26.5509C22.9177 26.5624 22.7341 26.5678 22.6666 26.5669Z" />
</svg>
