<svg width="32" height="32" viewBox="0 0 32 32" fill="none" xmlns="http://www.w3.org/2000/svg">
<path d="M3.03067 7.5C4.1258 6.53138 5.53797 5.99773 7 6H25C26.5213 6 27.9107 6.56667 28.9693 7.5C28.8475 6.53325 28.377 5.6442 27.6462 4.99977C26.9153 4.35533 25.9744 3.99983 25 4H7C6.02561 3.99983 5.08466 4.35533 4.35381 4.99977C3.62296 5.6442 3.15247 6.53325 3.03067 7.5ZM3.03067 11.5C4.1258 10.5314 5.53797 9.99773 7 10H25C26.5213 10 27.9107 10.5667 28.9693 11.5C28.8475 10.5332 28.377 9.6442 27.6462 8.99977C26.9153 8.35533 25.9744 7.99983 25 8H7C6.02561 7.99983 5.08466 8.35533 4.35381 8.99977C3.62296 9.6442 3.15247 10.5332 3.03067 11.5ZM7 12C5.93913 12 4.92172 12.4214 4.17157 13.1716C3.42143 13.9217 3 14.9391 3 16V24C3 25.0609 3.42143 26.0783 4.17157 26.8284C4.92172 27.5786 5.93913 28 7 28H25C26.0609 28 27.0783 27.5786 27.8284 26.8284C28.5786 26.0783 29 25.0609 29 24V16C29 14.9391 28.5786 13.9217 27.8284 13.1716C27.0783 12.4214 26.0609 12 25 12H20C19.7348 12 19.4804 12.1054 19.2929 12.2929C19.1054 12.4804 19 12.7348 19 13C19 13.7956 18.6839 14.5587 18.1213 15.1213C17.5587 15.6839 16.7956 16 16 16C15.2044 16 14.4413 15.6839 13.8787 15.1213C13.3161 14.5587 13 13.7956 13 13C13 12.7348 12.8946 12.4804 12.7071 12.2929C12.5196 12.1054 12.2652 12 12 12H7Z" />
<defs>
<linearGradient id="paint0_linear_804_5348" x1="-4.57656" y1="-1.24081" x2="27.0062" y2="2.29015" gradientUnits="userSpaceOnUse">
<stop stop-color="#101F48"/>
<stop offset="1" stop-color="#0F1120"/>
</linearGradient>
</defs>
</svg>
